<?xml version="1.0" encoding="iso-8859-1"?>
<!-- Generator: Adobe Illustrator 22.1.0, SVG Export Plug-In . SVG Version: 6.00 Build 0)  -->
<svg version="1.1" xmlns="http://www.w3.org/2000/svg" xmlns:xlink="http://www.w3.org/1999/xlink" x="0px" y="0px"
	 viewBox="0 0 336.466 336.466" style="enable-background:new 0 0 336.466 336.466;" xml:space="preserve">
<g id="Logo">
	<g>
		<g>
			<path style="fill:#FFFFFF;" d="M168.233,1.715C76.268,1.715,1.716,76.268,1.716,168.233s74.552,166.518,166.518,166.518
				s166.518-74.552,166.518-166.518S260.198,1.715,168.233,1.715z M168.233,296.731c-70.967,0-128.498-57.53-128.498-128.498
				S97.266,39.735,168.233,39.735s128.498,57.53,128.498,128.498S239.201,296.731,168.233,296.731z"/>
			<path d="M168.233,336.466c-44.937,0-87.184-17.499-118.959-49.274C17.499,255.417,0,213.17,0,168.233
				c0-44.937,17.499-87.184,49.274-118.959S123.296,0,168.233,0s87.184,17.499,118.959,49.274s49.274,74.022,49.274,118.959
				c0,44.937-17.499,87.184-49.274,118.959C255.417,318.967,213.17,336.466,168.233,336.466z M168.233,3.431
				c-90.872,0-164.802,73.93-164.802,164.802c0,90.872,73.93,164.802,164.802,164.802s164.802-73.93,164.802-164.802
				C333.035,77.361,259.105,3.431,168.233,3.431z M168.233,298.447c-34.781,0-67.481-13.545-92.075-38.139
				c-24.594-24.594-38.139-57.293-38.139-92.075c0-34.781,13.545-67.481,38.139-92.075c24.594-24.594,57.294-38.139,92.075-38.139
				s67.481,13.544,92.075,38.139c24.594,24.594,38.138,57.294,38.138,92.075c0,34.781-13.545,67.481-38.138,92.075
				C235.714,284.902,203.014,298.447,168.233,298.447z M168.233,41.451c-69.908,0-126.782,56.874-126.782,126.782
				c0,69.908,56.874,126.782,126.782,126.782s126.782-56.874,126.782-126.782C295.015,98.325,238.141,41.451,168.233,41.451z"/>
		</g>
		<g>
			<path style="fill:#F2C1DA;" d="M168.233,8.898C80.235,8.898,8.898,80.235,8.898,168.233s71.337,159.336,159.336,159.336
				s159.335-71.337,159.335-159.336S256.232,8.898,168.233,8.898z M168.233,280.838c-62.19,0-112.605-50.415-112.605-112.605
				S106.043,55.628,168.233,55.628s112.605,50.415,112.605,112.605S230.423,280.838,168.233,280.838z"/>
			<path d="M168.233,329.284c-43.018,0-83.462-16.752-113.88-47.171C23.934,251.695,7.182,211.251,7.182,168.233
				c0-43.018,16.752-83.462,47.171-113.88s70.862-47.171,113.88-47.171s83.462,16.752,113.88,47.171s47.171,70.862,47.171,113.88
				c0,43.019-16.752,83.462-47.171,113.881C251.695,312.532,211.251,329.284,168.233,329.284z M168.233,10.613
				c-86.912,0-157.62,70.708-157.62,157.62s70.708,157.62,157.62,157.62c86.912,0,157.62-70.708,157.62-157.62
				S255.145,10.613,168.233,10.613z M168.233,282.554c-63.037,0-114.321-51.284-114.321-114.321
				c0-63.037,51.284-114.321,114.321-114.321s114.321,51.284,114.321,114.321C282.554,231.269,231.27,282.554,168.233,282.554z
				 M168.233,57.343c-61.145,0-110.89,49.745-110.89,110.89c0,61.145,49.745,110.889,110.89,110.889s110.89-49.745,110.89-110.889
				C279.123,107.088,229.378,57.343,168.233,57.343z"/>
		</g>
		<g>
			<path style="fill:#FFFFFF;" d="M168.233,55.429c-62.3,0-112.804,50.504-112.804,112.804s50.504,112.804,112.804,112.804
				s112.804-50.504,112.804-112.804S230.533,55.429,168.233,55.429z M168.324,273.322c-58.116,0-105.228-47.112-105.228-105.228
				S110.208,62.865,168.324,62.865s105.228,47.112,105.228,105.228S226.44,273.322,168.324,273.322z"/>
			<path d="M168.233,282.753c-63.146,0-114.52-51.374-114.52-114.52s51.373-114.52,114.52-114.52
				c63.147,0,114.52,51.373,114.52,114.52S231.38,282.753,168.233,282.753z M168.233,57.144
				c-61.254,0-111.089,49.834-111.089,111.089s49.834,111.089,111.089,111.089c61.255,0,111.089-49.835,111.089-111.089
				S229.488,57.144,168.233,57.144z M168.325,275.037c-58.969,0-106.944-47.975-106.944-106.944S109.355,61.149,168.325,61.149
				c58.969,0,106.944,47.975,106.944,106.944S227.293,275.037,168.325,275.037z M168.325,64.58
				c-57.077,0-103.513,46.436-103.513,103.513s46.436,103.513,103.513,103.513c57.077,0,103.513-46.436,103.513-103.513
				S225.401,64.58,168.325,64.58z"/>
		</g>
		<g>
			<path style="fill:#FFFFFF;" d="M44.333,166.34c-1.394-5.594-4.94-9.125-8.843-13.013c-2.519-2.509-4.867-4.298-6.516-5.448
				c0.537,0.374-1.059,4.508-1.248,5.03c-2.591,7.126-10.502,13.151-9.255,21.344c0.492,3.23,2.289,6.173,4.942,8.063
				c7.956,5.668,19.423,2.195,21.369-7.835C45.311,171.758,44.998,169.008,44.333,166.34z M36.966,183.117
				c-2.951,1.589-6.441,0.238-6.692,0.137c-0.169-0.068-2.95-1.234-4.368-3.969c-1.879-3.624-0.712-8.745,3.003-12.692
				c0.819,1.411,1.639,2.822,2.458,4.233c1.367-1.896,1.976-3.688,2.509-5.531c0.559-1.934,1.001-4.096,0.769-5.803
				c1.642,1.468,5.043,4.963,6.009,10.379C41.269,173.321,41.456,180.7,36.966,183.117z"/>
			<path d="M31.821,185.905c-3.114,0-6.226-0.982-8.905-2.89c-2.836-2.02-4.766-5.167-5.293-8.633
				c-0.844-5.546,2.205-10.078,5.154-14.462c1.665-2.475,3.238-4.813,4.143-7.304l0.068-0.184c1.253-3.363,1.25-4.104,1.237-4.218
				c0.006,0.053,0.067,0.235,0.258,0.369l0.982-1.407c2.359,1.646,4.589,3.511,6.63,5.543c3.919,3.904,7.618,7.589,9.07,13.414l0,0
				c0.799,3.205,0.949,5.989,0.459,8.512c-0.919,4.737-3.961,8.459-8.346,10.211C35.519,185.56,33.669,185.905,31.821,185.905z
				 M29.752,149.499c-0.201,0.829-0.57,1.961-1.155,3.532l-0.064,0.172c-0.977,2.688-2.683,5.224-4.332,7.676
				c-2.892,4.3-5.625,8.361-4.881,13.246c0.458,3.01,2.132,5.741,4.592,7.494c1.852,1.319,3.935,2.141,6.068,2.441
				c-0.009-0.003-0.018-0.007-0.025-0.01c-0.13-0.052-3.231-1.326-4.809-4.369c-2.068-3.988-0.806-9.483,3.139-13.675l0.789-0.838
				l2.334,4.019c0.823-1.43,1.265-2.816,1.645-4.13c0.67-2.316,0.92-4.15,0.743-5.449l-0.314-2.307l1.736,1.552
				c2.358,2.108,5.361,5.704,6.281,10.868c0.538,3.016,0.642,7.972-1.327,11.366c1.922-1.718,3.242-4.053,3.769-6.769
				c0.441-2.272,0.297-4.813-0.44-7.77c-1.336-5.361-4.709-8.721-8.614-12.611C33.284,152.341,31.562,150.853,29.752,149.499z
				 M36.966,183.117l0.005,0.008L36.966,183.117z M28.768,168.058c-2.843,3.512-3.697,7.752-2.1,10.832
				c1.288,2.484,3.901,3.557,3.927,3.567c0.136,0.054,3.338,1.318,5.965-0.096c3.932-2.118,3.845-8.998,3.249-12.341
				c-0.656-3.679-2.492-6.493-4.294-8.465c-0.106,1.145-0.377,2.463-0.815,3.977c-0.522,1.805-1.155,3.74-2.637,5.794l-0.773,1.073
				L28.768,168.058z"/>
		</g>
		<g>
			<path style="fill:#FFFFFF;" d="M290.336,174.482c1.946,10.03,13.413,13.503,21.369,7.835c2.654-1.89,4.451-4.834,4.942-8.063
				c1.247-8.193-6.665-14.219-9.255-21.344c-0.19-0.521-1.785-4.655-1.248-5.03c-1.648,1.15-3.997,2.939-6.516,5.448
				c-3.903,3.888-7.449,7.42-8.843,13.013C290.121,169.008,289.808,171.758,290.336,174.482z M294.465,169.871
				c0.965-5.416,4.367-8.911,6.009-10.379c-0.233,1.708,0.209,3.869,0.769,5.803c0.533,1.844,1.142,3.635,2.509,5.531
				c0.819-1.411,1.639-2.822,2.458-4.233c3.715,3.947,4.882,9.068,3.003,12.692c-1.418,2.735-4.199,3.9-4.368,3.969
				c-0.25,0.101-3.741,1.452-6.692-0.137C293.663,180.7,293.85,173.321,294.465,169.871z"/>
			<path d="M303.298,185.905c-1.848,0-3.698-0.346-5.457-1.049c-4.386-1.752-7.428-5.474-8.347-10.211v-0.001
				c-0.489-2.522-0.338-5.306,0.46-8.511c1.451-5.825,5.151-9.511,9.069-13.413c2.042-2.034,4.272-3.899,6.63-5.543
				c0.001,0,0.001-0.001,0.001-0.001l0,0l0.982,1.407c0.192-0.133,0.252-0.316,0.259-0.369c-0.013,0.114-0.016,0.856,1.238,4.222
				l0.066,0.18c0.906,2.492,2.479,4.83,4.144,7.305c2.949,4.383,5.998,8.916,5.154,14.461c-0.528,3.466-2.457,6.613-5.293,8.633
				C309.525,184.923,306.413,185.905,303.298,185.905z M306.045,165.168l0.789,0.838c3.946,4.191,5.208,9.687,3.14,13.675
				c-1.577,3.04-4.678,4.316-4.809,4.369c-0.007,0.003-0.016,0.006-0.025,0.009c2.133-0.3,4.216-1.122,6.068-2.441
				c2.459-1.752,4.134-4.484,4.592-7.494c0.743-4.885-1.989-8.946-4.881-13.246c-1.649-2.452-3.355-4.988-4.332-7.676l-0.062-0.167
				c-0.586-1.573-0.956-2.706-1.157-3.536c-1.81,1.354-3.532,2.841-5.133,4.436c-3.906,3.891-7.279,7.251-8.616,12.613
				c-0.737,2.958-0.881,5.499-0.44,7.771v-0.001c0.527,2.716,1.847,5.051,3.77,6.769c-1.969-3.394-1.865-8.351-1.327-11.366v-0.001
				c0.92-5.164,3.924-8.76,6.281-10.868l1.736-1.552l-0.314,2.308c-0.177,1.3,0.073,3.133,0.743,5.449
				c0.38,1.315,0.823,2.701,1.645,4.13L306.045,165.168z M295.31,170.021c-0.595,3.343-0.683,10.224,3.25,12.341
				c2.63,1.416,5.829,0.151,5.964,0.096c0.027-0.011,2.641-1.086,3.928-3.568c1.598-3.081,0.744-7.32-2.1-10.832l-2.521,4.343
				l-0.773-1.073c-1.481-2.054-2.115-3.989-2.638-5.794c-0.437-1.513-0.708-2.831-0.814-3.977
				C297.801,163.528,295.966,166.342,295.31,170.021L295.31,170.021z"/>
		</g>
		<path style="fill:#FBB040;" d="M159.759,167.325c-8.987-12.916-21.462-18.483-35.194-24.611
			c-8.861-3.954-16.59-6.238-21.912-7.572c1.732,0.434,1.677,12.529,1.7,14.043c0.31,20.693-14.022,43.747-2.886,63.437
			c4.39,7.762,11.833,13.526,20.438,15.772c25.8,6.734,51.681-13.261,46.906-40.737
			C167.514,180.195,164.044,173.484,159.759,167.325z M157.256,217.277c-5.984,6.918-16.201,6.86-16.938,6.846
			c-0.498-0.01-8.724-0.283-14.997-5.883c-8.313-7.421-10.309-21.618-4.663-35.293c3.46,2.804,6.921,5.609,10.381,8.413
			c1.646-6.165,1.46-11.326,1.03-16.547c-0.451-5.478-1.422-11.42-3.674-15.551c5.615,2.151,17.685,7.763,25.406,20.643
			C158.72,188.109,166.363,206.751,157.256,217.277z"/>
		<path style="fill:#F7941D;" d="M157.089,184.628c-7.093,29.774,19.903,53.431,48.621,47.803
			c9.578-1.877,18.122-7.686,23.457-15.891c13.534-20.814-0.604-47.039,1.139-69.686c0.128-1.657,0.887-14.91,2.814-15.268
			c-5.919,1.1-14.541,3.078-24.516,6.809c-15.458,5.782-29.5,11.034-40.22,24.574C163.272,169.425,159.016,176.541,157.089,184.628z
			 M174.057,177.152c9.331-13.585,22.933-18.914,29.23-20.89c-2.747,4.372-4.213,10.815-5.079,16.786
			c-0.825,5.69-1.379,11.331,0.006,18.196c3.981-2.837,7.962-5.675,11.942-8.512c5.257,15.363,2.109,30.78-7.501,38.345
			c-7.251,5.709-16.281,5.451-16.827,5.428c-0.808-0.034-12.004-0.664-18.09-8.647C158.477,205.709,168.113,185.806,174.057,177.152
			z"/>
		<g id="XMLID_11_">
			<g>
				<path style="fill:#F8EE59;" d="M201.98,178.995c2.465,13.816,3.216,43.358-14.763,53.036
					c-11.812,6.364-25.788,0.953-26.792,0.549c-0.678-0.274-11.812-4.94-17.487-15.892c-7.529-14.509-2.853-35.015,12.019-50.814
					c3.283,5.649,6.561,11.299,9.844,16.948c5.473-7.591,7.912-14.763,10.046-22.147c2.237-7.747,4.008-16.4,3.076-23.235
					C184.498,143.317,198.117,157.308,201.98,178.995z"/>
				<path style="fill:#BF392E;" d="M156.256,92.497c6.597,4.603,16.001,11.765,26.088,21.811
					c15.628,15.566,29.822,29.708,35.404,52.104c2.662,10.678,3.915,21.692,1.802,32.597c-7.793,40.157-53.704,54.066-85.56,31.37
					c-10.626-7.565-17.824-19.351-19.791-32.286c-4.992-32.804,26.689-56.93,37.061-85.457
					C152.015,110.549,158.405,93.994,156.256,92.497z M187.217,232.03c17.979-9.678,17.228-39.22,14.763-53.036
					c-3.863-21.687-17.482-35.678-24.058-41.556c0.932,6.835-0.839,15.488-3.076,23.235c-2.133,7.384-4.572,14.556-10.046,22.147
					c-3.283-5.649-6.561-11.299-9.844-16.948c-14.872,15.799-19.548,36.305-12.019,50.814c5.675,10.952,16.809,15.618,17.487,15.892
					C161.429,232.983,175.405,238.395,187.217,232.03z"/>
			</g>
			<g>
				<path style="fill:none;" d="M217.748,166.412c-5.582-22.396-19.776-36.538-35.404-52.104
					c-10.087-10.046-19.491-17.207-26.088-21.811c2.149,1.497-4.241,18.051-4.997,20.138
					c-10.372,28.527-42.053,52.653-37.061,85.457c1.968,12.935,9.166,24.721,19.791,32.286c31.857,22.696,77.767,8.788,85.56-31.37
					C221.663,188.103,220.409,177.089,217.748,166.412z"/>
				<path style="fill:none;" d="M187.217,232.03c-11.812,6.364-25.788,0.953-26.792,0.549c-0.678-0.274-11.812-4.94-17.487-15.892
					c-7.529-14.509-2.853-35.015,12.019-50.814c3.283,5.649,6.561,11.299,9.844,16.948c5.473-7.591,7.912-14.763,10.046-22.147
					c2.237-7.747,4.008-16.4,3.076-23.235c6.576,5.877,20.195,19.869,24.058,41.556C204.445,192.81,205.196,222.352,187.217,232.03z
					"/>
			</g>
		</g>
		<g>
			<g>
				<g>
					<g id="XMLID_10_">
						<g>
							<polygon style="fill:#FFFFFF;" points="252.443,201.219 193.066,201.977 194.528,197.307 249.18,196.613 252.474,201.157 
															"/>
							<polygon style="fill:#FFFFFF;" points="249.18,196.613 252.338,189.33 255.632,193.874 252.474,201.157 							"/>
							<polygon style="fill:#FFFFFF;" points="249.18,196.613 194.528,197.307 196.831,189.977 252.291,189.268 252.338,189.33 
															"/>
							<line style="fill:#FFFFFF;" x1="193.066" y1="201.977" x2="194.528" y2="197.307"/>
							<path style="fill:#FFFFFF;" d="M194.528,197.307"/>
						</g>
						<g>
							<path d="M191.503,203.141l4.484-14.297l56.866-0.727l0.396,0.522l3.692,5.093l-3.471,7.992l-0.309,0.63L191.503,203.141z
								 M197.674,191.11l-3.044,9.703l57.063-0.728l2.63-6.067l-2.609-3.599L197.674,191.11z"/>
							
								<rect x="246.771" y="191.797" transform="matrix(0.3979 -0.9174 0.9174 0.3979 -26.0232 346.2287)" width="8.004" height="2.288"/>
							<polygon points="251.573,201.865 251.532,201.805 248.254,197.284 250.106,195.941 253.457,200.567 							"/>
							<polygon points="194.542,198.451 194.513,196.163 249.283,195.468 249.295,197.756 249.186,197.756 							"/>
						</g>
					</g>
				</g>
				<g id="XMLID_9_">
					<g>
						<path style="fill:#BE1E2D;" d="M262.734,200.871c-3.443,4.863-8.202,2.708-13.368-0.95c-1.764-1.25-3.202-2.71-4.242-4.222
							l0.7,0.497l6.975-3.927l-0.005-0.243l-0.063-5.584l-0.617-0.436c1.737,0.483,3.556,1.345,5.286,2.57
							C262.567,192.233,266.201,195.984,262.734,200.871z"/>
						<path style="fill:#FFFFFF;" d="M245.125,195.699l-77.041-54.575l6.153-4.585l70.75,50.117
							c-0.367,0.27-0.689,0.594-0.952,0.969C242.573,189.689,243.108,192.784,245.125,195.699z"/>
						<path style="fill:#FFFFFF;" d="M252.8,192.269l-6.975,3.927l-0.7-0.497c-2.016-2.915-2.552-6.01-1.091-8.074
							c0.263-0.376,0.586-0.699,0.952-0.969l7.587,5.373l0.223-0.003L252.8,192.269z"/>
						<path style="fill:#FFFFFF;" d="M252.733,186.441l0.063,5.584l-0.223,0.003l-7.587-5.373c1.664-1.253,4.289-1.452,7.13-0.651
							L252.733,186.441z"/>
						<path style="fill:#FFFFFF;" d="M178.157,133.618l73.959,52.387c-2.84-0.801-5.466-0.602-7.13,0.651l-70.75-50.117
							L178.157,133.618z"/>
						<path style="fill:#FFFFFF;" d="M174.236,136.539"/>
						<line style="fill:#FFFFFF;" x1="178.157" y1="133.618" x2="174.236" y2="136.539"/>
					</g>
					<path style="fill:#7E2A35;" d="M262.321,201.285c0,0-2.612-3.461-5.206-5.646c-2.435-2.051-4.471-3.244-4.471-3.244
						l0.104-5.827c0,0,2.911,0.994,4.604,2.27C262.407,192.646,265.738,196.364,262.321,201.285z"/>
					<g>
						<path d="M257.849,204.837c-0.436,0-0.885-0.04-1.345-0.118c-2.136-0.366-4.54-1.558-7.798-3.865
							c-1.817-1.288-3.381-2.847-4.523-4.507l1.884-1.297c0.991,1.441,2.361,2.803,3.962,3.937c2.963,2.099,5.079,3.171,6.861,3.477
							c2.02,0.342,3.578-0.371,4.912-2.254c1.36-1.918,1.516-3.58,0.505-5.39c-1.122-2.009-3.564-3.894-5.566-5.312
							c-1.565-1.11-3.27-1.94-4.931-2.402l0.613-2.204c1.912,0.532,3.863,1.479,5.641,2.739c2.198,1.557,4.893,3.653,6.24,6.063
							c1.437,2.573,1.224,5.207-0.636,7.828C262.112,203.73,260.159,204.837,257.849,204.837z"/>
						<path d="M245.754,197.548l-1.291-0.917l-78.325-55.484l12.002-8.943l0.678,0.481l75.051,53.16l0.087,7.086L245.754,197.548z
							 M170.029,141.1l75.866,53.743l5.751-3.238l-0.051-4.568l-0.141-0.099l-73.281-51.907L170.029,141.1z"/>
						
							<rect x="212.261" y="116.284" transform="matrix(0.578 -0.816 0.816 0.578 -44.0068 243.4661)" width="2.287" height="95.999"/>
					</g>
				</g>
			</g>
			<g>
				<g>
					<g id="XMLID_8_">
						<g>
							<polygon style="fill:#FFFFFF;" points="162.695,258.202 143.799,201.907 148.692,201.869 166.082,253.685 162.764,258.212 
															"/>
							<polygon style="fill:#FFFFFF;" points="166.082,253.685 173.981,254.463 170.664,258.989 162.764,258.212 							"/>
							<polygon style="fill:#FFFFFF;" points="166.082,253.685 148.692,201.869 156.375,201.817 174.026,254.399 173.981,254.463 
															"/>
							<line style="fill:#FFFFFF;" x1="143.799" y1="201.907" x2="148.692" y2="201.869"/>
							<path style="fill:#FFFFFF;" d="M148.692,201.869"/>
						</g>
						<g>
							<path d="M171.201,260.192l-8.671-0.858l-0.696-0.102l-19.622-58.458l14.984-0.106l18.098,53.915l-0.377,0.537
								L171.201,260.192z M163.545,257.141l6.581,0.647l2.628-3.585l-17.199-51.236l-10.169,0.073L163.545,257.141z"/>
							
								<rect x="168.921" y="250.075" transform="matrix(0.0979 -0.9952 0.9952 0.0979 -99.4463 398.4412)" width="2.287" height="8.004"/>
							<polygon points="163.627,258.966 161.814,257.571 161.858,257.514 165.159,253.009 167.004,254.361 							"/>
							<polygon points="165.028,254.142 164.994,254.039 147.607,202.233 149.776,201.505 167.203,253.435 							"/>
						</g>
					</g>
				</g>
				<g id="XMLID_7_">
					<g>
						<path style="fill:#BE1E2D;" d="M166.176,267.892c-5.684-1.789-5.089-6.98-3.187-13.017c0.651-2.062,1.6-3.878,2.721-5.331
							l-0.259,0.819l5.874,5.439l0.23-0.079l5.297-1.769l0.227-0.721c0.072,1.802-0.192,3.797-0.829,5.819
							C174.348,265.089,171.889,269.697,166.176,267.892z"/>
						<path style="fill:#FFFFFF;" d="M165.71,249.545l28.374-90.048l6.248,4.454l-26.055,82.694c-0.37-0.266-0.776-0.474-1.214-0.61
							C170.651,245.276,167.868,246.733,165.71,249.545z"/>
						<path style="fill:#FFFFFF;" d="M171.325,255.802l-5.874-5.439l0.259-0.819c2.158-2.812,4.94-4.269,7.353-3.51
							c0.438,0.135,0.845,0.344,1.214,0.61l-2.793,8.867l0.071,0.211L171.325,255.802z"/>
						<path style="fill:#FFFFFF;" d="M176.852,253.954l-5.297,1.769l-0.071-0.211l2.793-8.867c1.702,1.2,2.695,3.639,2.802,6.588
							L176.852,253.954z"/>
						<path style="fill:#FFFFFF;" d="M204.313,166.789l-27.234,86.444c-0.107-2.949-1.1-5.388-2.802-6.588l26.055-82.694
							L204.313,166.789z"/>
						<path style="fill:#FFFFFF;" d="M200.333,163.95"/>
						<line style="fill:#FFFFFF;" x1="204.313" y1="166.789" x2="200.333" y2="163.95"/>
					</g>
					<path style="fill:#7E2A35;" d="M164.797,267.859c0,0,2.742-3.359,4.249-6.398c1.414-2.852,2.09-5.114,2.09-5.114l5.685-1.283
						c0,0-0.275,3.064-1.112,5.011C173.209,265.891,170.388,270.01,164.797,267.859z"/>
					<g>
						<path d="M168.527,269.431c-0.85,0-1.749-0.149-2.695-0.448c-3.052-0.961-4.811-2.927-5.226-5.845
							c-0.305-2.145,0.094-4.799,1.293-8.606c0.671-2.126,1.676-4.092,2.906-5.686l1.811,1.397
							c-1.068,1.384-1.945,3.105-2.536,4.976c-1.091,3.464-1.464,5.807-1.209,7.596c0.288,2.027,1.448,3.293,3.649,3.986
							c2.244,0.708,3.873,0.347,5.286-1.169c1.569-1.684,2.616-4.585,3.354-6.924c0.577-1.829,0.846-3.706,0.777-5.43l2.285-0.09
							c0.079,1.984-0.226,4.131-0.881,6.208c-0.809,2.569-1.979,5.777-3.861,7.797C172.09,268.683,170.431,269.431,168.527,269.431z
							"/>
						<path d="M171.05,257.106l-6.907-6.395l0.477-1.509l28.847-91.55l12.187,8.688l-27.885,88.514L171.05,257.106z
							 M166.761,250.017l4.843,4.485l4.332-1.447l0.051-0.165l26.985-85.652l-8.271-5.896L166.761,250.017z"/>
						
							<rect x="137.909" y="208.588" transform="matrix(0.3004 -0.9538 0.9538 0.3004 -69.9778 324.0606)" width="95.998" height="2.287"/>
					</g>
				</g>
			</g>
			<g>
				<g>
					<g id="XMLID_6_">
						<g>
							<polygon style="fill:#FFFFFF;" points="80.7,191.053 128.115,155.304 129.7,159.933 86.056,192.835 80.712,191.121 							
								"/>
							<polygon style="fill:#FFFFFF;" points="86.056,192.835 87.82,200.574 82.476,198.861 80.712,191.121 							"/>
							<polygon style="fill:#FFFFFF;" points="86.056,192.835 129.7,159.933 132.182,167.205 87.895,200.596 87.82,200.574 							
								"/>
							<line style="fill:#FFFFFF;" x1="128.115" y1="155.304" x2="129.7" y2="159.933"/>
							<path style="fill:#FFFFFF;" d="M129.7,159.933"/>
						</g>
						<g>
							<path d="M88.122,201.858l-0.629-0.188l-5.987-1.919l-1.932-8.496l-0.124-0.692l49.237-37.123l4.845,14.179L88.122,201.858z
								 M83.446,197.971l4.232,1.357l43.153-32.537l-3.288-9.623l-45.568,34.357L83.446,197.971z"/>
							<polygon points="86.721,200.898 86.706,200.833 84.941,193.089 87.171,192.581 88.949,200.38 							"/>
							<polygon points="85.707,193.924 80.27,192.179 81.018,190.017 81.086,190.041 86.405,191.746 							"/>
							<polygon points="86.652,193.817 85.285,191.983 85.372,191.918 129.012,159.019 130.389,160.846 							"/>
						</g>
					</g>
				</g>
				<g id="XMLID_5_">
					<g>
						<path style="fill:#BE1E2D;" d="M72.61,197.423c-0.102-5.958,5.009-7.037,11.338-7.145c2.162-0.036,4.185,0.289,5.918,0.893
							l-0.858,0.014l-3.299,7.293l0.148,0.193l3.355,4.464l0.756-0.013c-1.686,0.639-3.663,1.021-5.782,1.056
							C77.857,204.287,72.708,203.414,72.61,197.423z"/>
						<path style="fill:#FFFFFF;" d="M89.866,191.172l94.399-1.599l-2.246,7.337l-86.689,1.47c0.136-0.435,0.204-0.886,0.194-1.345
							C95.48,194.506,93.216,192.328,89.866,191.172z"/>
						<path style="fill:#FFFFFF;" d="M85.709,198.479l3.299-7.293l0.858-0.014c3.35,1.156,5.614,3.334,5.658,5.863
							c0.01,0.459-0.058,0.91-0.194,1.345l-9.295,0.159l-0.178,0.134L85.709,198.479z"/>
						<path style="fill:#FFFFFF;" d="M89.212,203.137l-3.355-4.464l0.178-0.134l9.295-0.159c-0.6,1.994-2.598,3.709-5.362,4.744
							L89.212,203.137z"/>
						<path style="fill:#FFFFFF;" d="M180.587,201.584l-90.62,1.539c2.764-1.035,4.763-2.749,5.362-4.744l86.689-1.47
							L180.587,201.584z"/>
						<path style="fill:#FFFFFF;" d="M182.019,196.91"/>
						<line style="fill:#FFFFFF;" x1="180.587" y1="201.584" x2="182.019" y2="196.91"/>
					</g>
					<path style="fill:#7E2A35;" d="M72.32,197.545c0,0,4.224,0.981,7.616,0.994c3.183,0.012,5.511-0.379,5.511-0.379l3.657,4.537
						c0,0-2.871,1.104-4.988,1.211C77.794,204.228,72.854,203.512,72.32,197.545z"/>
					<g>
						<path d="M83.218,205.331c-2.504,0-5.418-0.193-7.632-1.203c-2.681-1.223-4.068-3.473-4.12-6.687
							c-0.055-3.199,1.254-5.49,3.889-6.808c1.938-0.968,4.582-1.431,8.573-1.499c2.229-0.036,4.41,0.294,6.314,0.957l-0.752,2.16
							c-1.652-0.575-3.566-0.862-5.523-0.829c-3.631,0.062-5.972,0.45-7.588,1.258c-1.831,0.915-2.665,2.416-2.625,4.723
							c0.039,2.352,0.897,3.784,2.782,4.644c2.094,0.955,5.176,1.033,7.63,0.987c1.918-0.032,3.784-0.371,5.396-0.981l0.81,2.139
							c-1.856,0.703-3.989,1.093-6.168,1.13C83.885,205.328,83.555,205.331,83.218,205.331z"/>
						<path d="M88.648,204.291l-4.263-5.661l3.879-8.576l1.583-0.026l95.973-1.625l-4.383,14.311l-0.831,0.015L88.648,204.291z
							 M87.031,198.331l2.745,3.652l0.172-0.003l89.789-1.525l2.974-9.713l-92.96,1.575L87.031,198.331z"/>
						<rect x="86.028" y="196.58" transform="matrix(0.9999 -0.0171 0.0171 0.9999 -3.359 2.319)" width="95.999" height="2.288"/>
					</g>
				</g>
			</g>
			<g>
				<g>
					<g id="XMLID_4_">
						<g>
							<polygon style="fill:#FFFFFF;" points="119.988,91.93 168.431,126.274 164.5,129.188 119.913,97.575 119.926,91.963 							
								"/>
							<polygon style="fill:#FFFFFF;" points="119.913,97.575 113.073,101.603 113.086,95.991 119.926,91.963 							"/>
							<polygon style="fill:#FFFFFF;" points="119.913,97.575 164.5,129.188 158.323,133.758 113.075,101.681 113.073,101.603 
															"/>
							<line style="fill:#FFFFFF;" x1="168.431" y1="126.274" x2="164.5" y2="129.188"/>
							<path style="fill:#FFFFFF;" d="M164.5,129.188"/>
						</g>
						<g>
							<path d="M158.338,135.17l-46.394-32.89l-0.014-0.653l0.014-6.291l7.515-4.419l0.62-0.324l50.302,35.661L158.338,135.17z
								 M114.218,101.089l44.09,31.257l8.173-6.052l-46.554-33.005l-5.699,3.356L114.218,101.089z"/>
							<rect x="112.463" y="98.462" transform="matrix(0.86 -0.5102 0.5102 0.86 -34.5208 73.3627)" width="8.004" height="2.288"/>
							<polygon points="121.057,97.578 118.77,97.573 118.785,91.86 121.071,91.922 121.069,91.994 							"/>
							<polygon points="163.839,130.121 119.156,98.439 120.493,96.583 120.582,96.647 165.162,128.255 							"/>
						</g>
					</g>
				</g>
				<g id="XMLID_3_">
					<g>
						<path style="fill:#BE1E2D;" d="M111.464,86.153c5.646-1.904,8.224,2.64,10.246,8.638c0.689,2.049,0.993,4.076,0.944,5.91
							l-0.273-0.814l-7.95-0.932l-0.14,0.199l-3.237,4.551l0.242,0.716c-1.12-1.413-2.083-3.181-2.759-5.189
							C106.514,93.234,105.785,88.063,111.464,86.153z"/>
						<path style="fill:#FFFFFF;" d="M122.654,100.701l30.147,89.47l-7.673,0.084l-27.686-82.163
							c0.456-0.003,0.907-0.074,1.34-0.223C121.179,107.062,122.568,104.245,122.654,100.701z"/>
						<path style="fill:#FFFFFF;" d="M114.43,98.955l7.95,0.932l0.273,0.814c-0.086,3.543-1.475,6.36-3.871,7.169
							c-0.434,0.149-0.885,0.22-1.34,0.223l-2.97-8.81l-0.182-0.129L114.43,98.955z"/>
						<path style="fill:#FFFFFF;" d="M111.054,103.706l3.237-4.551l0.182,0.129l2.97,8.81c-2.082,0.033-4.322-1.352-6.146-3.672
							L111.054,103.706z"/>
						<path style="fill:#FFFFFF;" d="M140.239,190.309l-28.943-85.887c1.824,2.32,4.064,3.705,6.146,3.672l27.686,82.163
							L140.239,190.309z"/>
						<path style="fill:#FFFFFF;" d="M145.128,190.256"/>
						<line style="fill:#FFFFFF;" x1="140.239" y1="190.309" x2="145.128" y2="190.256"/>
					</g>
					<path style="fill:#7E2A35;" d="M111.367,85.957c0,0,0.201,4.331,1.108,7.6c0.851,3.067,1.858,5.202,1.858,5.202l-3.376,4.75
						c0,0-1.841-2.465-2.517-4.473C106.417,93.038,105.768,88.088,111.367,85.957z"/>
					<g>
						<path d="M110.399,105.132c-1.232-1.555-2.252-3.469-2.947-5.535c-0.86-2.552-1.805-5.834-1.475-8.575
							c0.352-2.926,2.076-4.929,5.123-5.953c3.031-1.022,5.612-0.47,7.666,1.642c1.511,1.553,2.753,3.932,4.028,7.714
							c0.711,2.112,1.057,4.292,1.003,6.306l-2.287-0.061c0.047-1.749-0.259-3.655-0.884-5.515c-1.16-3.441-2.239-5.554-3.5-6.849
							c-1.427-1.467-3.111-1.807-5.297-1.069c-2.229,0.75-3.334,2.001-3.582,4.059c-0.275,2.285,0.589,5.247,1.372,7.571
							c0.612,1.819,1.502,3.494,2.572,4.844L110.399,105.132z"/>
						<path d="M139.421,191.461l-29.637-87.943l4.102-5.779l9.348,1.096l0.505,1.5l30.649,90.962L139.421,191.461z M112.324,103.893
							l0.055,0.163l28.678,85.1l10.157-0.111l-29.687-88.106l-6.556-0.769L112.324,103.893z"/>
						
							<rect x="128.656" y="96.771" transform="matrix(0.9476 -0.3193 0.3193 0.9476 -39.4334 49.0285)" width="2.287" height="95.999"/>
					</g>
				</g>
			</g>
			<g>
				<g>
					<g id="XMLID_2_">
						<g>
							<polygon style="fill:#FFFFFF;" points="225.803,97.925 208.586,154.757 204.576,151.953 220.426,99.644 225.752,97.877 
															"/>
							<polygon style="fill:#FFFFFF;" points="220.426,99.644 214.437,94.434 219.764,92.667 225.752,97.877 							"/>
							<polygon style="fill:#FFFFFF;" points="220.426,99.644 204.576,151.953 198.284,147.543 214.364,94.46 214.437,94.434 
															"/>
							<line style="fill:#FFFFFF;" x1="208.586" y1="154.757" x2="204.576" y2="151.953"/>
							<path style="fill:#FFFFFF;" d="M204.576,151.953"/>
						</g>
						<g>
							<path d="M209.223,156.599l-12.274-8.595l16.487-54.427l0.614-0.22l5.973-1.981l6.571,5.725l0.505,0.486L209.223,156.599z
								 M199.619,147.081l8.33,5.833l16.546-54.617l-4.989-4.34l-4.219,1.399L199.619,147.081z"/>
							<polygon points="219.675,100.507 213.641,95.257 215.133,93.524 215.183,93.567 221.176,98.781 							"/>
							<polygon points="220.786,100.73 220.065,98.559 225.487,96.762 226.154,98.95 226.086,98.971 							"/>
							<polygon points="205.671,152.284 203.482,151.621 219.366,99.201 221.55,99.88 221.518,99.984 							"/>
						</g>
					</g>
				</g>
				<g id="XMLID_1_">
					<g>
						<path style="fill:#BE1E2D;" d="M228.58,88.01c3.596,4.751,0.103,8.637-4.945,12.456c-1.725,1.303-3.551,2.234-5.306,2.768
							l0.685-0.517l-1.636-7.836l-0.233-0.069l-5.342-1.627l-0.602,0.456c0.985-1.51,2.356-2.984,4.047-4.262
							C220.295,85.56,224.969,83.229,228.58,88.01z"/>
						<path style="fill:#FFFFFF;" d="M218.329,103.234l-75.3,56.953l-2.512-7.251l69.15-52.302c0.147,0.431,0.358,0.836,0.636,1.201
							C211.829,103.851,214.941,104.276,218.329,103.234z"/>
						<path style="fill:#FFFFFF;" d="M217.378,94.881l1.636,7.836l-0.685,0.517c-3.388,1.042-6.5,0.617-8.026-1.399
							c-0.279-0.364-0.489-0.77-0.636-1.201l7.414-5.609l0.065-0.213L217.378,94.881z"/>
						<path style="fill:#FFFFFF;" d="M211.803,93.185l5.342,1.627l-0.065,0.213l-7.414,5.609c-0.692-1.964-0.088-4.527,1.534-6.993
							L211.803,93.185z"/>
						<path style="fill:#FFFFFF;" d="M138.917,148.317L211.2,93.641c-1.622,2.466-2.226,5.029-1.534,6.993l-69.15,52.302
							L138.917,148.317z"/>
						<path style="fill:#FFFFFF;" d="M140.517,152.937"/>
						<line style="fill:#FFFFFF;" x1="138.917" y1="148.317" x2="140.517" y2="152.937"/>
					</g>
					<path style="fill:#7E2A35;" d="M229.164,88.894c0,0-4.135,1.304-7.062,3.018c-2.747,1.609-4.553,3.129-4.553,3.129
						l-5.457-2.046c0,0,1.911-2.411,3.679-3.58C221.051,85.924,225.669,84.028,229.164,88.894z"/>
					<g>
						<path d="M218.663,104.328l-0.667-2.188c1.673-0.51,3.385-1.404,4.95-2.587c2.897-2.191,4.558-3.885,5.387-5.49
							c0.939-1.819,0.728-3.523-0.665-5.363c-1.417-1.876-2.954-2.527-4.985-2.11c-2.255,0.463-4.789,2.221-6.746,3.701
							c-1.531,1.157-2.837,2.532-3.778,3.975l-1.915-1.25c1.083-1.662,2.576-3.235,4.315-4.549c2.148-1.625,4.961-3.562,7.665-4.117
							c2.886-0.593,5.333,0.407,7.27,2.971c1.931,2.552,2.225,5.173,0.873,7.792c-0.994,1.925-2.856,3.858-6.04,6.266
							C222.548,102.722,220.589,103.742,218.663,104.328z"/>
						<path d="M142.463,162.049l-4.899-14.143l74.012-55.986l6.781,2.058l1.924,9.214l-1.263,0.954L142.463,162.049z
							 M140.27,148.727l3.324,9.598l74.153-56.084l-1.349-6.461l-4.369-1.331l-0.137,0.104L140.27,148.727z"/>
						
							<rect x="130.799" y="122.837" transform="matrix(0.7976 -0.6032 0.6032 0.7976 -38.5942 132.9564)" width="95.998" height="2.288"/>
					</g>
				</g>
			</g>
		</g>
		<g>
			<g>
				<path style="fill:#FFFFFF;" d="M55.113,111.958l2.943,2.142l-2.729,5.168l-23.216-18.187l2.897-5.487l28.112,8.913l-2.729,5.168
					l-3.429-1.222L55.113,111.958z M51.341,109.242l1.252-2.372l-9.714-3.635L51.341,109.242z"/>
				<path d="M55.606,120.577l-24.588-19.263l3.566-6.754L64.358,104l-3.555,6.733l-3.429-1.222l-1.157,2.191l2.943,2.142
					L55.606,120.577z M33.204,100.848l21.843,17.112l1.903-3.603l-2.943-2.142l2.544-4.818l3.429,1.222l1.903-3.603l-26.451-8.386
					L33.204,100.848z M51.643,110.508l-14.626-10.382l16.79,6.283L51.643,110.508z M48.741,106.345l2.298,1.631l0.34-0.644
					L48.741,106.345z"/>
			</g>
			<g>
				<path style="fill:#FFFFFF;" d="M65.994,80.798c0.507,0.391,0.837,0.925,0.991,1.599c0.154,0.675-0.031,1.35-0.553,2.026
					l9.179,3.243l-3.67,4.753l-9.032-3.433l-0.465,0.602l7.319,5.651l-3.547,4.594L43.245,82.098l6.727-8.714
					c0.832-1.077,1.708-1.656,2.63-1.737c0.922-0.08,1.837,0.23,2.745,0.931L65.994,80.798z M50.816,80.61l7.922,6.116l1.737-2.25
					c0.228-0.295,0.184-0.566-0.133-0.811l-6.971-5.382c-0.317-0.245-0.589-0.219-0.818,0.077L50.816,80.61z"/>
				<path d="M66.371,101.036l-24.33-18.784l7.251-9.392c0.98-1.27,2.068-1.965,3.235-2.067c1.142-0.1,2.265,0.273,3.344,1.106
					l10.646,8.22c0.667,0.515,1.105,1.217,1.303,2.088c0.134,0.589,0.088,1.175-0.137,1.749l9.329,3.296l-4.783,6.194l-6.667-2.534
					l5.403,4.172L66.371,101.036z M44.448,81.943L66.062,98.63l2.499-3.237l-7.319-5.651l1.378-1.785l9.032,3.433l2.556-3.311
					l-9.179-3.243l0.725-0.938c0.48-0.622,0.456-1.046,0.395-1.311c-0.109-0.479-0.331-0.842-0.678-1.11h0l-10.646-8.22
					c-0.739-0.57-1.443-0.814-2.147-0.756c-0.669,0.059-1.35,0.532-2.026,1.406L44.448,81.943z M58.892,87.929l-9.28-7.164
					l2.261-2.929c0.519-0.672,1.331-0.764,2.021-0.231l6.971,5.382c0.418,0.323,0.553,0.682,0.593,0.927
					c0.042,0.26,0.024,0.66-0.306,1.087L58.892,87.929z M52.019,80.456l6.564,5.067l1.03-1.334L53.05,79.12L52.019,80.456z"/>
			</g>
			<g>
				<path style="fill:#FFFFFF;" d="M80.759,82.345l-4.45-3.238l4.563-4.263c0.331-0.31,0.36-0.611,0.087-0.903l-3.607-3.861
					c-0.273-0.293-0.496-0.414-0.667-0.363c-0.172,0.051-0.404,0.213-0.696,0.486l-2.194,2.05c-0.312,0.292-0.632,0.545-0.961,0.76
					c-0.328,0.216-0.687,0.34-1.075,0.374c-0.388,0.034-0.792-0.045-1.21-0.239c-0.418-0.193-0.873-0.554-1.365-1.08l-6.722-7.196
					c-0.783-0.838-1.179-1.72-1.185-2.646c-0.006-0.925,0.488-1.853,1.482-2.782l5.85-5.466l4.42,3.266l-4.797,4.482
					c-0.351,0.328-0.38,0.648-0.089,0.96l3.607,3.861c0.201,0.215,0.391,0.311,0.571,0.288c0.18-0.022,0.377-0.133,0.592-0.334
					l2.662-2.487c0.682-0.638,1.354-0.964,2.016-0.98c0.661-0.015,1.365,0.377,2.112,1.176l6.531,6.991
					c1.093,1.17,1.628,2.222,1.606,3.156c-0.023,0.934-0.638,1.965-1.847,3.095L80.759,82.345z"/>
				<path d="M80.827,83.455l-5.863-4.267l5.192-4.851l-3.416-3.656c-0.047,0.039-0.102,0.088-0.167,0.148l-2.193,2.05
					c-0.348,0.324-0.71,0.611-1.076,0.851c-0.445,0.293-0.941,0.465-1.471,0.511c-0.536,0.047-1.091-0.059-1.645-0.316
					c-0.522-0.241-1.056-0.657-1.631-1.272l-6.723-7.196c-0.932-0.997-1.408-2.082-1.416-3.226c-0.008-1.17,0.582-2.319,1.755-3.414
					l6.371-5.953l5.824,4.302l-5.45,5.092l3.392,3.631c0.006-0.005,0.011-0.01,0.017-0.015l2.662-2.487
					c0.837-0.782,1.706-1.189,2.581-1.21c0.938-0.021,1.843,0.466,2.76,1.448l6.531,6.991c1.264,1.353,1.865,2.584,1.837,3.762
					c-0.029,1.186-0.722,2.396-2.119,3.701L80.827,83.455z M77.654,79.024l3.037,2.21l4.718-4.408
					c1.014-0.947,1.559-1.808,1.575-2.489c0.016-0.687-0.459-1.569-1.375-2.55l-6.531-6.991c-0.553-0.592-1.054-0.904-1.449-0.904
					c-0.006,0-0.011,0-0.017,0c-0.441,0.011-0.93,0.262-1.45,0.749l-2.662,2.487c-0.355,0.331-0.706,0.514-1.074,0.558
					c-0.316,0.039-0.805-0.023-1.301-0.555l-3.607-3.861c-0.621-0.665-0.57-1.518,0.13-2.172l4.043-3.778l-3.017-2.229l-5.329,4.979
					c-0.808,0.754-1.215,1.477-1.21,2.149c0.005,0.709,0.317,1.384,0.954,2.066l6.722,7.196c0.516,0.553,0.882,0.787,1.098,0.887
					c0.283,0.132,0.537,0.185,0.775,0.164c0.249-0.021,0.47-0.099,0.679-0.236c0.286-0.188,0.57-0.413,0.846-0.671l2.194-2.05
					c0.407-0.379,0.727-0.589,1.038-0.682c0.508-0.15,1.026,0.051,1.538,0.6l3.607,3.861c0.595,0.637,0.544,1.487-0.129,2.116
					L77.654,79.024z M72.441,66.02L72.441,66.02L72.441,66.02z"/>
			</g>
			<g>
				<path style="fill:#FFFFFF;" d="M104.459,58.595c0.311,0.467,0.547,0.942,0.71,1.427c0.163,0.485,0.214,0.972,0.155,1.46
					c-0.059,0.489-0.248,0.976-0.567,1.46c-0.319,0.485-0.811,0.949-1.477,1.393l-5.597,3.729c-0.667,0.444-1.284,0.72-1.854,0.827
					c-0.57,0.107-1.092,0.094-1.566-0.04c-0.474-0.133-0.903-0.368-1.288-0.705c-0.385-0.336-0.732-0.739-1.043-1.205L80.215,49.35
					c-0.636-0.955-0.882-1.889-0.737-2.803c0.144-0.914,0.784-1.749,1.916-2.503l5.997-3.995c1.133-0.754,2.149-1.023,3.048-0.804
					c0.899,0.219,1.667,0.806,2.303,1.761L104.459,58.595z M86.244,46.92c-0.289,0.193-0.329,0.444-0.122,0.755L95.931,62.4
					c0.118,0.178,0.231,0.287,0.338,0.328c0.107,0.041,0.261-0.006,0.461-0.139l1.832-1.22c0.2-0.133,0.302-0.257,0.305-0.372
					c0.004-0.114-0.053-0.261-0.172-0.438l-9.809-14.725c-0.207-0.311-0.455-0.37-0.744-0.178L86.244,46.92z"/>
				<path d="M95.098,69.819c-0.372,0-0.729-0.048-1.067-0.144c-0.595-0.167-1.14-0.465-1.62-0.886
					c-0.438-0.383-0.839-0.845-1.191-1.374L79.501,49.825c-0.756-1.135-1.049-2.284-0.871-3.413
					c0.183-1.156,0.952-2.193,2.288-3.083l5.997-3.995c1.335-0.889,2.589-1.201,3.726-0.923c1.111,0.271,2.058,0.983,2.814,2.118
					l11.718,17.59c0.351,0.527,0.623,1.075,0.809,1.63c0.203,0.606,0.268,1.224,0.193,1.837c-0.075,0.618-0.311,1.234-0.702,1.828
					c-0.38,0.579-0.958,1.129-1.718,1.635l-5.597,3.729c-0.761,0.507-1.492,0.828-2.172,0.956
					C95.683,69.79,95.386,69.819,95.098,69.819z M89.818,40.03c-0.565,0-1.22,0.245-1.952,0.733l-5.997,3.995
					c-0.92,0.613-1.44,1.26-1.544,1.923c-0.111,0.7,0.087,1.418,0.604,2.194l11.718,17.59c0.268,0.403,0.569,0.751,0.894,1.035
					c0.291,0.255,0.603,0.426,0.956,0.526c0.344,0.097,0.739,0.105,1.174,0.022c0.453-0.085,0.97-0.32,1.538-0.698l5.597-3.729
					c0.567-0.377,0.982-0.764,1.236-1.15c0.244-0.371,0.39-0.738,0.432-1.092c0.044-0.363,0.006-0.718-0.117-1.085
					c-0.138-0.411-0.343-0.823-0.611-1.224l-11.718-17.59c-0.517-0.776-1.103-1.235-1.792-1.403
					C90.102,40.046,89.963,40.03,89.818,40.03z M96.351,63.601c-0.133,0-0.264-0.024-0.39-0.073
					c-0.276-0.104-0.522-0.318-0.744-0.653l-9.809-14.724c-0.47-0.705-0.325-1.487,0.36-1.944l0.001-0.001l1.899-1.265
					c0.686-0.457,1.462-0.29,1.933,0.416l9.809,14.726c0.222,0.333,0.325,0.641,0.315,0.941c-0.013,0.407-0.244,0.763-0.687,1.059
					l-1.832,1.22C96.908,63.502,96.622,63.601,96.351,63.601z M87.001,47.447l9.501,14.264l1.337-0.891l-9.501-14.263L87.001,47.447
					z M86.244,46.92l0.474,0.715c0.001,0,0.001-0.001,0.001-0.001L86.244,46.92l0.476,0.713L86.244,46.92z"/>
			</g>
			<g>
				<path style="fill:#FFFFFF;" d="M100.629,32.425l5.053-2.232l7.415,9.46l-4.706-10.656l5.456-2.409l11.723,26.549l-5.456,2.409
					l-7.756-9.834l4.9,11.096l-4.907,2.167L100.629,32.425z"/>
				<path d="M111.914,60.105L99.498,31.987l6.448-2.848l3.598,4.59l-2.283-5.171l7.026-3.102l12.416,28.118l-6.849,3.025
					l-3.973-5.038l2.51,5.684L111.914,60.105z M101.76,32.863l11.03,24.979l3.338-1.474l-7.289-16.507l11.538,14.631l4.063-1.794
					l-11.03-24.979l-3.887,1.716l7.128,16.141l-11.232-14.329L101.76,32.863z"/>
			</g>
			<g>
				<path style="fill:#FFFFFF;" d="M123.806,23.299l5.581-1.595l7.974,27.905l-5.581,1.595L123.806,23.299z"/>
				<path d="M131.191,52.264l-8.445-29.554l7.231-2.066l8.445,29.554L131.191,52.264z M124.867,23.888l7.503,26.255l3.931-1.123
					l-7.502-26.255L124.867,23.888z"/>
			</g>
			<g>
				<path style="fill:#FFFFFF;" d="M145.113,47.793l-1.812-5.196l6.179-0.904c0.449-0.066,0.644-0.297,0.586-0.693l-0.765-5.228
					c-0.058-0.396-0.172-0.622-0.342-0.678c-0.17-0.056-0.453-0.055-0.849,0.003l-2.97,0.434c-0.423,0.062-0.83,0.088-1.223,0.078
					c-0.393-0.009-0.758-0.111-1.097-0.305c-0.338-0.193-0.624-0.488-0.858-0.886c-0.234-0.397-0.402-0.953-0.507-1.666
					l-1.425-9.744c-0.166-1.135,0.012-2.085,0.534-2.849c0.522-0.764,1.456-1.245,2.803-1.442l7.922-1.159l1.772,5.202l-6.496,0.95
					c-0.475,0.07-0.682,0.316-0.62,0.738l0.765,5.229c0.042,0.291,0.144,0.478,0.305,0.562c0.161,0.085,0.386,0.106,0.677,0.063
					l3.604-0.527c0.924-0.135,1.662-0.021,2.215,0.343c0.552,0.364,0.907,1.088,1.066,2.17l1.385,9.466
					c0.232,1.584,0.072,2.754-0.478,3.508c-0.551,0.755-1.644,1.252-3.281,1.492L145.113,47.793z"/>
				<path d="M144.536,48.744l-2.388-6.846l7.031-1.029l-0.724-4.951c-0.06,0.005-0.134,0.014-0.221,0.027l-2.971,0.434
					c-0.471,0.069-0.931,0.099-1.37,0.086c-0.532-0.013-1.037-0.153-1.499-0.417c-0.469-0.267-0.863-0.67-1.172-1.196
					c-0.292-0.496-0.494-1.143-0.616-1.976l-1.425-9.744c-0.197-1.35,0.029-2.514,0.675-3.457c0.659-0.966,1.799-1.574,3.387-1.807
					l8.628-1.262l2.335,6.854l-7.38,1.079l0.719,4.917c0.007-0.001,0.015-0.002,0.022-0.003l3.605-0.527
					c1.135-0.166,2.079-0.006,2.811,0.476c0.763,0.504,1.248,1.433,1.443,2.763l1.385,9.466c0.268,1.833,0.061,3.187-0.634,4.138
					c-0.698,0.957-1.958,1.558-3.85,1.835L144.536,48.744z M144.453,43.295l1.237,3.547l6.389-0.935
					c1.373-0.201,2.311-0.598,2.712-1.148c0.405-0.555,0.517-1.551,0.322-2.879l-1.385-9.466c-0.119-0.814-0.357-1.36-0.689-1.579
					c-0.368-0.243-0.914-0.314-1.618-0.211l-3.604,0.527c-0.479,0.07-0.872,0.021-1.201-0.153c-0.284-0.148-0.648-0.477-0.754-1.197
					l-0.765-5.228c-0.132-0.901,0.396-1.572,1.345-1.711l5.475-0.801l-1.21-3.551l-7.215,1.055c-1.094,0.16-1.841,0.522-2.219,1.077
					c-0.4,0.585-0.529,1.318-0.393,2.241l1.425,9.744c0.109,0.749,0.276,1.15,0.397,1.355c0.158,0.269,0.336,0.457,0.544,0.576
					c0.216,0.123,0.442,0.186,0.692,0.192c0.34,0.008,0.703-0.014,1.078-0.069l2.97-0.434c0.549-0.08,0.932-0.071,1.241,0.031
					c0.504,0.166,0.814,0.627,0.923,1.369l0.765,5.229c0.082,0.562-0.116,0.935-0.297,1.149c-0.236,0.279-0.577,0.453-1.014,0.517
					L144.453,43.295z M147.578,29.638L147.578,29.638L147.578,29.638z"/>
			</g>
			<g>
				<path style="fill:#FFFFFF;" d="M174.386,16.839l1.381,5.42l-3.882-0.043l-0.262,23.616l-5.924-0.066l0.261-23.616l-3.883-0.043
					l1.581-5.387L174.386,16.839z"/>
				<path d="M172.471,46.699l-7.639-0.085l0.261-23.616l-4.157-0.046l2.083-7.097l12.036,0.133l1.819,7.14l-4.141-0.046
					L172.471,46.699z M166.566,44.918l4.208,0.047l0.262-23.616l3.624,0.04l-0.943-3.699l-9.419-0.104l-1.079,3.677l3.608,0.04
					L166.566,44.918z"/>
			</g>
			<g>
				<path style="fill:#FFFFFF;" d="M182.46,46.612l-0.129-5.502l6.158,1.036c0.447,0.075,0.704-0.084,0.771-0.479l0.877-5.211
					c0.066-0.395,0.027-0.645-0.117-0.75c-0.144-0.106-0.414-0.192-0.809-0.258l-2.961-0.498c-0.421-0.071-0.817-0.171-1.187-0.301
					c-0.371-0.13-0.687-0.339-0.95-0.627c-0.263-0.288-0.445-0.656-0.544-1.106c-0.101-0.45-0.09-1.03,0.03-1.741l1.635-9.711
					c0.19-1.131,0.651-1.981,1.383-2.548c0.731-0.567,1.768-0.737,3.11-0.512l7.895,1.329l0.09,5.495l-6.474-1.09
					c-0.474-0.08-0.746,0.091-0.817,0.512l-0.877,5.211c-0.049,0.29-0.01,0.5,0.118,0.629c0.126,0.13,0.335,0.219,0.624,0.267
					l3.593,0.605c0.921,0.155,1.588,0.491,2.002,1.007s0.53,1.314,0.348,2.393l-1.588,9.434c-0.266,1.579-0.777,2.643-1.532,3.192
					c-0.756,0.55-1.95,0.687-3.581,0.412L182.46,46.612z"/>
				<path d="M191.02,48.798c-0.497,0-1.042-0.05-1.636-0.151l-7.765-1.307l-0.17-7.248l7.007,1.179l0.831-4.934
					c-0.059-0.013-0.132-0.028-0.219-0.043l-2.961-0.498c-0.469-0.079-0.916-0.192-1.329-0.338c-0.504-0.176-0.941-0.465-1.3-0.858
					c-0.364-0.398-0.615-0.902-0.748-1.498c-0.126-0.563-0.12-1.24,0.021-2.07l1.635-9.71c0.227-1.346,0.8-2.383,1.703-3.083
					c0.924-0.717,2.194-0.946,3.778-0.679l8.598,1.447l0.118,7.239l-7.355-1.238l-0.825,4.9c0.007,0.001,0.015,0.003,0.022,0.004
					l3.593,0.605c1.131,0.19,1.982,0.633,2.529,1.316c0.571,0.713,0.748,1.746,0.525,3.071l-1.588,9.434
					c-0.308,1.826-0.92,3.051-1.874,3.744C192.955,48.561,192.099,48.798,191.02,48.798z M183.301,45.884l6.367,1.072
					c1.369,0.23,2.383,0.14,2.934-0.26c0.556-0.404,0.967-1.317,1.19-2.641l1.588-9.434c0.137-0.811,0.077-1.403-0.172-1.714
					c-0.276-0.344-0.772-0.579-1.475-0.698l-3.593-0.605c-0.479-0.081-0.838-0.249-1.096-0.515c-0.224-0.227-0.47-0.653-0.35-1.369
					l0.877-5.211c0.152-0.898,0.865-1.375,1.805-1.215l5.457,0.918l-0.061-3.751l-7.191-1.21c-1.091-0.184-1.912-0.068-2.442,0.343
					c-0.561,0.434-0.908,1.092-1.063,2.013l-1.635,9.711c-0.126,0.745-0.09,1.179-0.039,1.411c0.068,0.305,0.179,0.538,0.34,0.715
					c0.168,0.184,0.364,0.313,0.601,0.396c0.322,0.113,0.673,0.202,1.046,0.265l2.961,0.498c0.548,0.092,0.91,0.219,1.173,0.412
					c0.427,0.311,0.581,0.845,0.456,1.585l-0.877,5.211c-0.094,0.56-0.398,0.854-0.636,1.002c-0.311,0.193-0.687,0.254-1.124,0.18
					l-5.133-0.864L183.301,45.884z M190.38,30.09L190.38,30.09L190.38,30.09z"/>
			</g>
			<g>
				<path style="fill:#FFFFFF;" d="M221.611,58.604c-1.484-0.791-2.357-1.649-2.619-2.575c-0.263-0.926-0.017-2.096,0.735-3.509
					l11.54-21.656l5.228,2.786l-10.956,20.561c-0.101,0.189-0.147,0.346-0.138,0.471c0.008,0.126,0.119,0.245,0.331,0.358
					l1.802,0.96c0.212,0.113,0.372,0.138,0.481,0.075c0.109-0.063,0.214-0.188,0.314-0.377l10.956-20.561l5.228,2.786l-11.54,21.656
					c-0.753,1.413-1.587,2.269-2.502,2.567c-0.915,0.299-2.115,0.052-3.598-0.738L221.611,58.604z"/>
				<path d="M229.651,63.13c-0.92,0-1.971-0.319-3.18-0.964l-5.263-2.805c-1.716-0.914-2.71-1.928-3.041-3.099
					c-0.328-1.157-0.066-2.513,0.804-4.146l11.944-22.413l6.742,3.593l-11.256,21.124l1.276,0.682l11.257-21.125l6.742,3.593
					l-11.943,22.413c-0.87,1.631-1.848,2.605-2.993,2.979C230.398,63.074,230.035,63.13,229.651,63.13z M222.014,57.847l5.264,2.805
					c1.245,0.664,2.259,0.899,2.929,0.68c0.693-0.226,1.37-0.952,2.011-2.156l11.137-20.899l-3.714-1.979l-10.553,19.804
					c-0.179,0.336-0.39,0.571-0.644,0.717c-0.26,0.151-0.701,0.263-1.312-0.062l-1.802-0.96c-0.611-0.326-0.763-0.755-0.784-1.058
					c-0.021-0.289,0.057-0.595,0.238-0.933l10.551-19.802l-3.714-1.979l-11.136,20.899c-0.642,1.204-0.867,2.17-0.667,2.871
					C220.008,56.474,220.769,57.183,222.014,57.847L222.014,57.847z"/>
			</g>
			<g>
				<path style="fill:#FFFFFF;" d="M254.019,44.114l4.364,3.387l-4.801,11.019l7.141-9.203l4.712,3.656l-17.792,22.928l-4.712-3.656
					l4.969-11.497l-7.436,9.582l-4.238-3.288L254.019,44.114z"/>
				<path d="M247.795,77.105l-5.915-4.59l2.545-5.89l-3.809,4.909l-5.593-4.34l18.843-24.284l5.569,4.321l-2.33,5.348l3.466-4.466
					l6.068,4.708L247.795,77.105z M243.982,71.975l3.509,2.723l16.741-21.573l-3.357-2.605L250.058,64.46l7.272-16.69l-3.16-2.452
					l-16.74,21.573l2.882,2.237l11.062-14.256L243.982,71.975z"/>
			</g>
			<g>
				<path style="fill:#FFFFFF;" d="M272.984,60.062l4.075,4.133L256.391,84.57l-4.074-4.133L272.984,60.062z"/>
				<path d="M256.382,85.783l-5.278-5.355l21.889-21.579l5.28,5.355L256.382,85.783z M253.53,80.446l2.87,2.912l19.446-19.17
					l-2.87-2.912L253.53,80.446z"/>
			</g>
			<g>
				<path style="fill:#FFFFFF;" d="M273.201,98.862c-0.448,0.336-0.91,0.599-1.385,0.789c-0.476,0.189-0.958,0.268-1.449,0.236
					c-0.491-0.032-0.988-0.194-1.489-0.484c-0.502-0.291-0.993-0.756-1.473-1.397l-4.035-5.38c-0.48-0.641-0.79-1.242-0.929-1.805
					c-0.139-0.563-0.155-1.085-0.048-1.565c0.107-0.48,0.317-0.922,0.633-1.325c0.314-0.403,0.696-0.773,1.145-1.109l16.908-12.682
					c0.918-0.688,1.837-0.986,2.758-0.893c0.921,0.093,1.79,0.684,2.606,1.773l4.324,5.764c0.816,1.089,1.14,2.088,0.973,2.998
					c-0.169,0.909-0.712,1.709-1.63,2.398L273.201,98.862z M283.841,80.024c-0.208-0.278-0.462-0.304-0.761-0.08L268.925,90.56
					c-0.171,0.128-0.274,0.247-0.308,0.356c-0.035,0.109,0.02,0.26,0.164,0.452l1.321,1.761c0.144,0.192,0.273,0.287,0.388,0.284
					c0.114-0.003,0.257-0.068,0.428-0.196l14.155-10.616c0.299-0.224,0.344-0.476,0.136-0.753L283.841,80.024z"/>
				<path d="M270.577,100.751c-0.089,0-0.178-0.003-0.266-0.009c-0.622-0.04-1.249-0.242-1.864-0.599
					c-0.6-0.347-1.181-0.894-1.729-1.624l-4.035-5.38c-0.548-0.731-0.91-1.443-1.076-2.115c-0.17-0.69-0.188-1.348-0.052-1.957
					c0.134-0.604,0.402-1.165,0.795-1.667c0.357-0.459,0.797-0.885,1.306-1.266l16.908-12.682c1.091-0.819,2.222-1.178,3.359-1.06
					c1.164,0.118,2.243,0.828,3.206,2.112l4.324,5.764c0.962,1.282,1.342,2.517,1.13,3.668c-0.209,1.125-0.868,2.11-1.958,2.929
					l-16.909,12.682c-0.506,0.379-1.038,0.682-1.581,0.899C271.626,100.649,271.103,100.751,270.577,100.751z M283.505,74.088
					c-0.624,0-1.252,0.243-1.912,0.738l-16.908,12.682c-0.387,0.29-0.718,0.61-0.983,0.95c-0.238,0.304-0.392,0.626-0.472,0.983
					c-0.078,0.348-0.063,0.743,0.044,1.173c0.11,0.448,0.374,0.951,0.782,1.497l4.035,5.38c0.408,0.544,0.818,0.938,1.217,1.169
					c0.384,0.223,0.759,0.348,1.114,0.371c0.366,0.027,0.718-0.034,1.077-0.177c0.402-0.161,0.802-0.389,1.187-0.678l16.908-12.682
					c0.746-0.56,1.172-1.171,1.301-1.868c0.121-0.66-0.153-1.444-0.816-2.327l-4.324-5.764c-0.663-0.884-1.338-1.367-2.006-1.434
					C283.669,74.092,283.586,74.088,283.505,74.088z M270.489,94.272c-0.4,0-0.76-0.211-1.072-0.627l-1.321-1.761
					c-0.321-0.427-0.419-0.841-0.294-1.229c0.089-0.283,0.289-0.539,0.609-0.78l14.155-10.617c0.68-0.509,1.468-0.408,1.962,0.252
					l1.369,1.825c0.3,0.399,0.322,0.774,0.288,1.018c-0.036,0.25-0.168,0.615-0.595,0.936l-14.154,10.616
					c-0.318,0.239-0.619,0.359-0.92,0.367C270.505,94.272,270.497,94.272,270.489,94.272z M269.646,91.092l0.964,1.285
					l13.711-10.283l-0.964-1.285L269.646,91.092z M283.841,80.024l-0.688,0.513c0.001,0.001,0.001,0.001,0.002,0.002L283.841,80.024
					z"/>
			</g>
			<g>
				<path style="fill:#FFFFFF;" d="M299.098,93.526l2.522,4.915l-9.012,7.953l10.364-5.318l2.722,5.307l-25.821,13.248l-2.722-5.307
					l9.366-8.315l-10.792,5.537l-2.448-4.772L299.098,93.526z"/>
				<path d="M279.501,120.786l-3.417-6.662l4.798-4.26l-5.529,2.837l-3.231-6.299l27.347-14.032l3.218,6.272l-4.373,3.859
					l5.029-2.58l3.505,6.833L279.501,120.786z M278.217,114.524l2.028,3.952l24.294-12.465l-1.939-3.78l-15.699,8.055l13.651-12.047
					l-1.826-3.558l-24.295,12.465l1.665,3.246l16.054-8.237L278.217,114.524z"/>
			</g>
		</g>
		<g>
			<g>
				<path style="fill:#FFFFFF;" d="M64.124,275.595l2.362-3.808l3.736,3.45c0.271,0.251,0.518,0.256,0.739,0.017l2.919-3.161
					c0.221-0.24,0.306-0.428,0.254-0.564c-0.052-0.136-0.197-0.315-0.436-0.536l-1.796-1.659c-0.255-0.236-0.481-0.481-0.675-0.734
					c-0.195-0.254-0.318-0.537-0.368-0.85c-0.051-0.313-0.011-0.646,0.122-0.997c0.132-0.351,0.397-0.743,0.795-1.173l5.44-5.892
					c0.634-0.686,1.326-1.06,2.077-1.121c0.751-0.061,1.534,0.285,2.348,1.036l4.79,4.422l-2.386,3.786l-3.928-3.627
					c-0.288-0.265-0.549-0.27-0.785-0.015l-2.919,3.161c-0.163,0.176-0.229,0.336-0.2,0.481c0.028,0.145,0.131,0.298,0.307,0.461
					l2.179,2.012c0.559,0.516,0.864,1.042,0.916,1.578c0.052,0.536-0.224,1.131-0.828,1.786l-5.285,5.724
					c-0.884,0.958-1.707,1.456-2.466,1.494c-0.76,0.038-1.635-0.4-2.624-1.314L64.124,275.595z"/>
				<path d="M70.94,281.727c-0.968,0-1.987-0.506-3.111-1.544l-4.807-4.439l3.283-5.292l4.276,3.948l2.551-2.763
					c-0.005-0.005-0.011-0.011-0.016-0.016l-1.796-1.659c-0.29-0.267-0.551-0.551-0.774-0.843c-0.281-0.365-0.461-0.781-0.534-1.235
					c-0.075-0.461-0.019-0.944,0.166-1.436c0.172-0.458,0.489-0.934,0.968-1.453l5.439-5.892c0.782-0.847,1.669-1.315,2.638-1.394
					c0.997-0.084,2.005,0.343,2.999,1.261l5.314,4.907l-3.316,5.262l-4.486-4.142l-2.529,2.739l2.076,1.917
					c0.715,0.661,1.115,1.375,1.188,2.125c0.077,0.789-0.278,1.613-1.052,2.452l-5.285,5.724c-1.053,1.14-2.051,1.718-3.054,1.769
					C71.033,281.726,70.986,281.727,70.94,281.727z M65.227,275.445l3.766,3.478c1.008,0.93,1.636,1.098,2,1.087
					c0.517-0.026,1.166-0.447,1.879-1.219l5.285-5.724c0.416-0.451,0.631-0.849,0.605-1.121c-0.031-0.317-0.248-0.665-0.644-1.031
					l-2.179-2.012c-0.316-0.293-0.501-0.595-0.567-0.925c-0.059-0.292-0.035-0.745,0.412-1.229l2.918-3.161
					c0.559-0.606,1.362-0.619,1.997-0.034l3.17,2.927l1.456-2.31l-4.266-3.938c-0.627-0.579-1.197-0.857-1.697-0.812
					c-0.534,0.043-1.03,0.321-1.516,0.848l-5.44,5.892c-0.4,0.433-0.559,0.724-0.622,0.892c-0.08,0.212-0.105,0.394-0.078,0.558
					c0.028,0.173,0.094,0.325,0.202,0.465c0.164,0.215,0.358,0.425,0.577,0.627l1.797,1.659c0.351,0.324,0.553,0.59,0.657,0.862
					c0.176,0.465,0.033,0.952-0.426,1.45l-2.919,3.161c-0.354,0.384-0.741,0.444-1,0.451c-0.338-0.008-0.658-0.149-0.951-0.42
					l-2.973-2.745L65.227,275.445z M73.333,271.408L73.333,271.408L73.333,271.408z"/>
			</g>
			<g>
				<path style="fill:#FFFFFF;" d="M77.097,284.063c0.423-0.552,0.984-0.875,1.685-0.967c0.7-0.093,1.327,0.072,1.879,0.495
					c0.552,0.423,0.874,0.985,0.967,1.685c0.092,0.701-0.072,1.327-0.495,1.879c-0.423,0.552-0.981,0.87-1.675,0.954
					c-0.694,0.084-1.317-0.085-1.869-0.508c-0.552-0.423-0.878-0.981-0.977-1.673C76.512,285.236,76.673,284.615,77.097,284.063z"/>
				<path d="M79.114,288.988c-0.748,0-1.435-0.237-2.047-0.706c-0.734-0.562-1.173-1.313-1.305-2.232
					c-0.133-0.925,0.087-1.77,0.654-2.509c0.564-0.737,1.322-1.173,2.254-1.296c0.931-0.123,1.777,0.101,2.513,0.665
					c0.736,0.563,1.172,1.321,1.296,2.253c0.123,0.933-0.101,1.778-0.665,2.514c-0.566,0.739-1.324,1.171-2.253,1.284
					C79.41,288.979,79.261,288.988,79.114,288.988z M79.155,283.928c-0.084,0-0.171,0.006-0.26,0.018
					c-0.477,0.063-0.832,0.266-1.117,0.638h0c-0.283,0.37-0.384,0.758-0.317,1.222c0.068,0.472,0.274,0.826,0.65,1.114
					c0.374,0.288,0.768,0.394,1.245,0.337c0.465-0.056,0.814-0.255,1.097-0.624c0.285-0.372,0.389-0.768,0.326-1.245
					c-0.063-0.476-0.266-0.832-0.638-1.117C79.837,284.04,79.519,283.928,79.155,283.928z"/>
			</g>
			<g>
				<path style="fill:#FFFFFF;" d="M97.367,272.477l7.763,4.922l-1.668,4.153l-4.35-2.757l-3.002,4.735l3.304,2.095l-2.182,3.441
					l-3.304-2.095l-5.114,8.066l-4.102-2.6L97.367,272.477z"/>
				<path d="M89.08,296.22l-5.551-3.519l13.572-21.408l9.09,5.763l-2.318,5.772l-4.496-2.85l-2.084,3.285l3.304,2.095l-3.1,4.89
					l-3.304-2.095L89.08,296.22z M85.897,292.171l2.653,1.681l5.114-8.066l3.304,2.095l1.263-1.992l-3.304-2.095l3.92-6.184
					l4.203,2.664l1.017-2.534l-6.436-4.08L85.897,292.171z"/>
			</g>
			<g>
				<path style="fill:#FFFFFF;" d="M95.914,296.779c0.333-0.61,0.839-1.015,1.517-1.214c0.678-0.199,1.322-0.132,1.933,0.202
					c0.61,0.333,1.014,0.839,1.214,1.517c0.199,0.678,0.132,1.323-0.202,1.933c-0.333,0.61-0.837,1.01-1.51,1.2
					c-0.673,0.189-1.315,0.117-1.925-0.216c-0.611-0.333-1.018-0.835-1.222-1.503C95.515,298.028,95.58,297.389,95.914,296.779z"/>
				<path d="M98.143,301.378c-0.556,0-1.095-0.142-1.613-0.425c-0.811-0.443-1.36-1.117-1.631-2.005
					c-0.273-0.895-0.185-1.763,0.262-2.581c0.445-0.814,1.127-1.36,2.028-1.626c0.902-0.265,1.773-0.173,2.586,0.273
					c0.813,0.444,1.36,1.126,1.625,2.028c0.264,0.903,0.173,1.773-0.272,2.586c-0.446,0.816-1.129,1.359-2.029,1.613
					C98.776,301.333,98.457,301.378,98.143,301.378z M98.177,296.311c-0.163,0-0.33,0.026-0.505,0.077
					c-0.461,0.136-0.781,0.39-1.005,0.802l0,0.001c-0.223,0.408-0.264,0.808-0.126,1.256c0.139,0.457,0.398,0.775,0.812,1.001
					c0.415,0.227,0.823,0.273,1.281,0.143c0.452-0.127,0.766-0.377,0.989-0.785c0.225-0.412,0.267-0.819,0.132-1.281
					c-0.136-0.461-0.391-0.78-0.802-1.005C98.697,296.38,98.444,296.311,98.177,296.311z"/>
			</g>
			<g>
				<path style="fill:#FFFFFF;" d="M125.904,287.136l4.628,1.474l-5.836,18.324l4.535,1.444l-2.112,3.945l-8.386-2.671
					L125.904,287.136z"/>
				<path d="M127.537,313.358l-9.883-3.148l7.692-24.152l6.262,1.995l-5.836,18.324l4.7,1.497L127.537,313.358z M119.81,309.096
					l6.889,2.194l1.289-2.407l-4.369-1.392l5.836-18.324l-2.993-0.953L119.81,309.096z"/>
			</g>
			<g>
				<path style="fill:#FFFFFF;" d="M146.406,313.143c-0.086,0.448-0.221,0.859-0.403,1.234c-0.183,0.374-0.431,0.686-0.744,0.935
					c-0.314,0.25-0.701,0.424-1.163,0.523c-0.462,0.099-1.012,0.088-1.653-0.036l-5.378-1.034c-0.64-0.123-1.156-0.316-1.548-0.58
					c-0.392-0.264-0.687-0.569-0.886-0.918c-0.199-0.348-0.314-0.729-0.344-1.145c-0.031-0.415-0.003-0.847,0.083-1.295l3.25-16.901
					c0.176-0.918,0.567-1.601,1.174-2.048c0.606-0.448,1.453-0.567,2.542-0.358l5.762,1.108c1.088,0.209,1.831,0.634,2.228,1.275
					c0.397,0.64,0.507,1.42,0.331,2.337L146.406,313.143z M142.506,295.963c-0.278-0.054-0.445,0.069-0.502,0.368l-2.72,14.148
					c-0.033,0.171-0.03,0.298,0.009,0.383c0.039,0.085,0.154,0.146,0.347,0.183l1.761,0.338c0.192,0.037,0.322,0.023,0.39-0.041
					c0.067-0.064,0.118-0.181,0.151-0.353l2.72-14.148c0.058-0.299-0.053-0.475-0.33-0.528L142.506,295.963z"/>
				<path d="M143.424,316.759c-0.356,0-0.738-0.039-1.144-0.117l-5.377-1.034c-0.763-0.147-1.373-0.379-1.865-0.71
					c-0.5-0.336-0.888-0.741-1.152-1.204c-0.262-0.459-0.415-0.966-0.455-1.507c-0.037-0.485-0.004-0.997,0.096-1.52l3.25-16.901
					c0.218-1.132,0.724-1.999,1.507-2.576c0.803-0.594,1.885-0.766,3.213-0.51l5.762,1.108c1.329,0.255,2.269,0.816,2.795,1.665
					c0.512,0.826,0.661,1.819,0.444,2.951l-3.25,16.902c-0.1,0.519-0.26,1.006-0.474,1.447c-0.24,0.49-0.57,0.904-0.981,1.231
					c-0.415,0.332-0.926,0.564-1.517,0.691C144.012,316.731,143.727,316.759,143.424,316.759z M140.37,292.28
					c-0.448,0-0.805,0.097-1.066,0.29c-0.431,0.318-0.706,0.815-0.841,1.52l-3.25,16.901c-0.072,0.374-0.095,0.733-0.07,1.069
					c0.021,0.29,0.098,0.546,0.234,0.784c0.134,0.234,0.336,0.44,0.619,0.63c0.293,0.197,0.707,0.348,1.232,0.45l5.377,1.034
					c0.523,0.1,0.964,0.114,1.31,0.039c0.33-0.07,0.601-0.19,0.808-0.355c0.214-0.17,0.381-0.38,0.509-0.642
					c0.148-0.304,0.26-0.647,0.331-1.019l3.25-16.9c0.135-0.705,0.064-1.269-0.217-1.723c-0.264-0.426-0.822-0.723-1.661-0.885
					l-5.762-1.108C140.879,292.308,140.611,292.28,140.37,292.28z M141.586,312.262c-0.11,0-0.226-0.012-0.348-0.035l-1.761-0.338
					c-0.483-0.094-0.808-0.32-0.966-0.673c-0.114-0.247-0.138-0.543-0.07-0.898l2.72-14.148c0.089-0.458,0.323-0.713,0.504-0.846
					c0.195-0.143,0.529-0.293,1.004-0.202l1.824,0.351c0.475,0.091,0.728,0.355,0.856,0.56c0.119,0.191,0.243,0.514,0.154,0.973
					l-2.72,14.148c-0.068,0.354-0.199,0.619-0.401,0.811C142.173,312.162,141.906,312.262,141.586,312.262z M140.196,310.279
					l0.97,0.187l2.577-13.391l-0.972-0.187L140.196,310.279z"/>
			</g>
			<g>
				<path style="fill:#FFFFFF;" d="M155.967,317.461c-1.366-0.094-2.3-0.442-2.803-1.044c-0.503-0.601-0.709-1.552-0.618-2.853
					l1.183-17.039c0.065-0.932,0.38-1.629,0.946-2.091c0.566-0.462,1.239-0.666,2.019-0.612l6.211,0.432l0.508,4.446l-4.52-0.314
					c-0.282-0.02-0.433,0.123-0.454,0.426l-0.964,13.885c-0.021,0.304,0.109,0.465,0.391,0.485l4.52,0.314l-1.15,4.331
					L155.967,317.461z"/>
				<path d="M161.882,318.732l-5.974-0.415c-1.624-0.112-2.737-0.553-3.402-1.349c-0.656-0.785-0.923-1.918-0.816-3.463
					l1.183-17.038c0.082-1.174,0.505-2.081,1.259-2.696c0.737-0.603,1.618-0.875,2.621-0.803l6.923,0.481l0.706,6.179l-5.115-0.355
					l-0.909,13.085l5.123,0.356L161.882,318.732z M156.453,294.672c-0.48,0-0.885,0.14-1.236,0.427
					c-0.378,0.308-0.584,0.794-0.632,1.485l-1.183,17.039c-0.073,1.051,0.072,1.827,0.421,2.244c0.34,0.407,1.102,0.662,2.204,0.738
					h0l4.561,0.317l0.702-2.643l-3.484-0.242c-0.483-0.034-0.765-0.265-0.917-0.453c-0.141-0.175-0.302-0.481-0.27-0.947
					l0.964-13.884c0.032-0.466,0.234-0.747,0.398-0.9c0.176-0.165,0.493-0.356,0.971-0.322l3.491,0.242l-0.31-2.712l-5.499-0.383
					C156.573,294.674,156.512,294.672,156.453,294.672z"/>
			</g>
			<g>
				<path style="fill:#FFFFFF;" d="M172.712,314.843l-0.272,2.951l-4.752,0.246l3.045-23.821l5.046-0.261l5.483,23.38l-4.752,0.246
					l-0.575-2.908L172.712,314.843z M173.039,311.073l2.181-0.112l-1.507-8.311L173.039,311.073z"/>
				<path d="M166.707,318.95l3.266-25.55l6.477-0.335l5.882,25.077l-6.519,0.337l-0.575-2.908l-1.74,0.089l-0.272,2.951
					L166.707,318.95z M171.493,295.039l-2.824,22.091l2.985-0.154l0.272-2.951l4.706-0.243l0.575,2.908l2.985-0.154l-5.085-21.683
					L171.493,295.039z M172.106,311.98l1.278-15.957l2.854,15.744L172.106,311.98z M174.043,309.277l-0.071,0.889l0.23-0.012
					L174.043,309.277z"/>
			</g>
			<g>
				<path style="fill:#FFFFFF;" d="M183.088,293.264l4.786-0.825l3.269,18.952l4.69-0.809l-0.055,4.475l-8.673,1.496
					L183.088,293.264z"/>
				<path d="M186.406,317.543l-4.309-24.979l6.477-1.117l3.269,18.952l4.86-0.839l-0.076,6.219L186.406,317.543z M184.079,293.963
					l3.726,21.597l7.124-1.229l0.034-2.73l-4.52,0.78l-3.269-18.952L184.079,293.963z"/>
			</g>
			<g>
				<path style="fill:#FFFFFF;" d="M209.282,286.678l4.704-1.843l7.018,17.905l1.487-0.582l1.606,4.097l-7.436,2.914l-1.606-4.097
					l1.426-0.559l-5.411-13.809l-1.821,0.714L209.282,286.678z"/>
				<path d="M216.175,310.28l-2.232-5.695l1.426-0.559l-4.785-12.211l-2.201,0.863l0.046-6.587l6.044-2.368l7.018,17.906
					l1.487-0.582l2.232,5.694L216.175,310.28z M216.167,305.557l0.98,2.499l5.838-2.288l-0.98-2.5l-1.487,0.582l-7.018-17.905
					l-3.364,1.319l-0.02,2.891l1.44-0.565l6.037,15.407L216.167,305.557z"/>
			</g>
			<g>
				<path style="fill:#FFFFFF;" d="M233.573,284.649c0.283,0.538,0.447,1.06,0.491,1.564c0.045,0.505-0.16,1.049-0.615,1.631
					c0.667-0.179,1.249-0.099,1.747,0.241c0.498,0.34,0.878,0.759,1.141,1.259l2.793,5.308c0.607,1.154,0.792,2.124,0.556,2.912
					c-0.237,0.787-0.961,1.5-2.172,2.138l-4.587,2.413c-1.211,0.638-2.209,0.831-2.992,0.58c-0.783-0.251-1.478-0.954-2.085-2.108
					l-2.793-5.308c-0.131-0.25-0.227-0.525-0.286-0.825c-0.06-0.3-0.076-0.599-0.048-0.896c0.028-0.297,0.107-0.578,0.238-0.843
					c0.13-0.265,0.324-0.503,0.583-0.712c-0.66,0.102-1.209-0.033-1.649-0.403c-0.44-0.37-0.791-0.805-1.055-1.305l-2.262-4.298
					c-0.607-1.154-0.766-2.12-0.476-2.899c0.29-0.779,1.041-1.487,2.252-2.124l3.808-2.004c1.212-0.638,2.22-0.856,3.027-0.653
					c0.806,0.202,1.512,0.88,2.12,2.033L233.573,284.649z M225.381,284.061c-0.327,0.172-0.409,0.412-0.247,0.719l2.034,3.866
					c0.112,0.212,0.233,0.326,0.365,0.342c0.131,0.017,0.303-0.031,0.514-0.142l1.327-0.699c0.212-0.111,0.343-0.223,0.394-0.336
					c0.051-0.113,0.021-0.275-0.09-0.486l-2.034-3.866c-0.081-0.154-0.171-0.254-0.269-0.3c-0.098-0.046-0.253-0.014-0.464,0.097
					L225.381,284.061z M233.988,296.916c0.173-0.091,0.297-0.193,0.372-0.307c0.075-0.113,0.042-0.304-0.099-0.574l-2.383-4.529
					c-0.08-0.154-0.183-0.254-0.305-0.3c-0.123-0.046-0.29-0.013-0.501,0.098l-1.413,0.744c-0.366,0.192-0.462,0.452-0.29,0.778
					l2.383,4.529c0.142,0.269,0.28,0.405,0.417,0.407c0.136,0.002,0.291-0.042,0.464-0.133L233.988,296.916z"/>
				<path d="M230.658,303.661c-0.345,0-0.671-0.05-0.982-0.149c-1.001-0.322-1.87-1.171-2.582-2.525l-2.793-5.308
					c-0.17-0.323-0.294-0.679-0.369-1.058c-0.075-0.376-0.096-0.761-0.06-1.142c0.026-0.273,0.084-0.539,0.175-0.795
					c-0.252-0.104-0.488-0.247-0.702-0.427c-0.522-0.438-0.947-0.964-1.262-1.561l-2.262-4.298
					c-0.723-1.373-0.898-2.583-0.521-3.598c0.37-0.993,1.239-1.838,2.657-2.584l3.808-2.004c1.418-0.746,2.607-0.983,3.635-0.727
					c1.048,0.262,1.947,1.092,2.67,2.466l2.262,4.299c0.336,0.638,0.533,1.273,0.587,1.889c0.025,0.281,0,0.566-0.074,0.853
					c0.295,0.08,0.575,0.208,0.835,0.385c0.613,0.419,1.09,0.946,1.417,1.569l2.793,5.308c0.713,1.354,0.921,2.551,0.619,3.557
					c-0.309,1.028-1.157,1.894-2.593,2.65l-4.587,2.413C232.329,303.4,231.447,303.661,230.658,303.661z M228.553,290.672
					l-2.467,1.998c-0.163,0.131-0.278,0.27-0.353,0.423c-0.085,0.174-0.136,0.352-0.154,0.546c-0.02,0.213-0.008,0.431,0.035,0.646
					c0.043,0.219,0.112,0.418,0.205,0.595l2.793,5.308c0.496,0.943,1.03,1.511,1.588,1.69c0.546,0.177,1.35-0.006,2.33-0.522
					l4.587-2.413c0.98-0.516,1.585-1.078,1.75-1.626c0.168-0.561,0.002-1.323-0.494-2.266l-2.793-5.308
					c-0.199-0.377-0.482-0.688-0.866-0.95c-0.181-0.123-0.488-0.27-1.042-0.121l-2.474,0.663l1.576-2.019
					c0.216-0.277,0.467-0.68,0.437-1.028c-0.034-0.388-0.167-0.805-0.396-1.24l-2.262-4.298c-0.486-0.923-1.014-1.461-1.569-1.601
					c-0.584-0.145-1.421,0.055-2.419,0.58l-3.808,2.004c-0.999,0.526-1.638,1.101-1.847,1.665c-0.2,0.537-0.055,1.277,0.431,2.2
					l2.262,4.298c0.213,0.405,0.491,0.748,0.848,1.048c0.156,0.132,0.424,0.296,0.967,0.212L228.553,290.672z M232.178,298.621
					c-0.008,0-0.016,0-0.023,0c-0.47-0.006-0.862-0.297-1.162-0.864l-2.383-4.53c-0.238-0.451-0.199-0.832-0.125-1.072
					c0.078-0.25,0.275-0.603,0.775-0.865l1.413-0.743c0.435-0.23,0.839-0.279,1.2-0.143c0.228,0.086,0.541,0.277,0.766,0.705
					l2.382,4.528c0.298,0.566,0.317,1.053,0.055,1.447c-0.154,0.233-0.385,0.432-0.687,0.591h-0.001l-1.356,0.714
					C232.738,298.543,232.451,298.621,232.178,298.621z M230.269,292.697l2.146,4.078l0.991-0.522l-2.146-4.078L230.269,292.697z
					 M227.586,289.849c-0.055,0-0.109-0.003-0.163-0.01c-0.291-0.037-0.704-0.205-1.014-0.793l-2.034-3.867
					c-0.235-0.444-0.197-0.818-0.123-1.053c0.074-0.241,0.262-0.579,0.73-0.825l1.529-0.804c0.461-0.243,0.876-0.281,1.231-0.113
					c0.27,0.129,0.492,0.356,0.661,0.676l2.034,3.866c0.24,0.455,0.279,0.872,0.113,1.238c-0.134,0.297-0.388,0.539-0.777,0.743
					l-1.326,0.698C228.134,289.769,227.851,289.849,227.586,289.849z M226.049,284.679l1.751,3.328l0.992-0.522l-1.751-3.328
					L226.049,284.679z"/>
			</g>
			<g>
				<path style="fill:#FFFFFF;" d="M237.162,272.171l5.383-3.792l8.973,12.738l1.066-0.751l2.158,3.064l-1.066,0.751l2.477,3.518
					l-3.81,2.684l-2.478-3.517l-5.889,4.148l-3.078-4.37l-3.266-13.807L237.162,272.171z M247.707,283.802l-5.237-7.435l2.263,7.855
					l0.789,1.119L247.707,283.802z"/>
				<path d="M243.769,292.21l-3.667-5.207l-0.039-0.161l-3.228-13.646l-0.869-1.232l6.786-4.78l8.973,12.738l1.066-0.751
					l3.146,4.466l-1.066,0.751l2.477,3.518l-5.213,3.672l-2.478-3.517L243.769,292.21z M241.694,286.286l2.489,3.534l5.889-4.148
					l2.478,3.517l2.408-1.696l-2.477-3.518l1.066-0.751l-1.171-1.662l-1.066,0.751l-8.973-12.738l-3.98,2.804l0.07,0.1l0.039,0.161
					L241.694,286.286z M245.315,286.536l-1.365-1.938l-3.717-12.897l8.669,12.308L245.315,286.536z M245.517,283.845l0.212,0.3
					l0.782-0.551l-1.804-2.562L245.517,283.845z"/>
			</g>
			<g>
				<path style="fill:#FFFFFF;" d="M268.288,272.447c0.875,0.967,1.301,1.842,1.277,2.625c-0.024,0.784-0.543,1.634-1.558,2.553
					l-5.027,4.55l-3.557-2.716l4.544-4.112c0.193-0.175,0.188-0.375-0.016-0.601l-2.253-2.49l-3.528,3.194
					c-0.532,0.481-1.113,0.722-1.743,0.721c-0.631-0.001-1.238-0.323-1.821-0.968l-6.671-7.371
					c-0.627-0.693-0.911-1.403-0.852-2.131c0.06-0.728,0.379-1.354,0.959-1.879l4.785-4.331c0.58-0.525,1.235-0.781,1.965-0.767
					c0.73,0.013,1.409,0.366,2.036,1.059L268.288,272.447z M254.392,264.184c-0.175-0.193-0.351-0.209-0.528-0.049l-1.426,1.291
					c-0.177,0.16-0.178,0.337-0.003,0.531l4.681,5.172c0.146,0.161,0.292,0.176,0.436,0.045l1.74-1.575L254.392,264.184z"/>
				<path d="M263.027,283.289l-4.943-3.775l4.962-4.491l-1.408-1.556l-2.892,2.618c-0.691,0.625-1.47,0.943-2.317,0.943
					c-0.001,0-0.002,0-0.003,0c-0.88-0.001-1.706-0.421-2.457-1.25l-6.671-7.371c-0.789-0.873-1.149-1.807-1.071-2.776
					c0.078-0.95,0.495-1.773,1.239-2.446l4.784-4.331c0.744-0.673,1.608-1.016,2.557-0.989c0.973,0.018,1.867,0.469,2.657,1.341
					l11.461,12.664c1.039,1.148,1.529,2.203,1.498,3.227c-0.032,1.036-0.633,2.071-1.84,3.163L263.027,283.289z M260.764,279.403
					l2.17,1.657l4.498-4.071c0.819-0.741,1.26-1.413,1.277-1.943c0.016-0.543-0.349-1.243-1.056-2.023l-11.461-12.664
					c-0.465-0.514-0.928-0.768-1.416-0.777c-0.506-0.028-0.958,0.169-1.374,0.546l-4.784,4.331c-0.416,0.376-0.639,0.806-0.68,1.313
					c-0.04,0.485,0.168,0.971,0.633,1.485l6.671,7.37c0.412,0.455,0.81,0.685,1.186,0.686c0.001,0,0.001,0,0.002,0
					c0.413,0,0.795-0.163,1.165-0.499l4.164-3.77l2.829,3.126c0.519,0.573,0.501,1.318-0.044,1.812L260.764,279.403z
					 M257.357,272.12c-0.019,0-0.037-0.001-0.054-0.002c-0.214-0.011-0.532-0.091-0.824-0.415l-4.68-5.171
					c-0.493-0.546-0.467-1.262,0.064-1.742l1.426-1.291c0.532-0.481,1.246-0.435,1.739,0.109l0.001,0.001l5.475,6.05l-2.376,2.151
					C257.85,272.06,257.564,272.12,257.357,272.12z M257.751,270.553L257.751,270.553L257.751,270.553z M256.976,270.537
					C256.976,270.537,256.975,270.537,256.976,270.537L256.976,270.537z M253.384,265.727l4.011,4.431l0.685-0.62l-4.01-4.432
					L253.384,265.727z"/>
			</g>
		</g>
	</g>
</g>
<g id="Layer_1">
</g>
</svg>
