<svg xmlns="http://www.w3.org/2000/svg" viewBox="0 0 459 162"><defs><style>.cls-1{fill:#f2c1da;}</style></defs><title>buy-tickets</title><g id="Layer_2" data-name="Layer 2"><rect class="cls-1" width="459" height="162"/></g><g id="Layer_1" data-name="Layer 1"><path d="M117.76,75.82a6.91,6.91,0,0,1-.76,3.35,4.34,4.34,0,0,1-2.84,2,3.9,3.9,0,0,1,3.13,1.51,5.19,5.19,0,0,1,1,3.1V99.29c0,2.88-.6,4.95-1.8,6.19s-3.31,1.88-6.33,1.88H91.19V55.16h20.38a5.91,5.91,0,0,1,4.64,1.72,6.68,6.68,0,0,1,1.55,4.61ZM101.56,64.3V78h4.89a1.19,1.19,0,0,0,1.3-1.37V65.31c0-.67-.31-1-.94-1Zm6.33,23.11a1.41,1.41,0,0,0-.43-1.19,1.91,1.91,0,0,0-1.15-.32h-4.75V98.21h5.25a1.13,1.13,0,0,0,.87-.25,1.29,1.29,0,0,0,.21-.83Z"/><path d="M130.72,107.36q-4.55,0-6.34-1.88c-1.2-1.24-1.8-3.31-1.8-6.19V55.16h10.66v41.9a1.64,1.64,0,0,0,.18.86c.12.2.39.29.83.29h3.67c.43,0,.7-.09.83-.29a1.64,1.64,0,0,0,.18-.86V55.16h10.65V99.29c0,2.88-.6,4.95-1.8,6.19s-3.31,1.88-6.33,1.88Z"/><path d="M173.49,107.36h-11V94.11l-10-38.95h10.8l4.68,24.62,4.75-24.62h10.8l-10,39Z"/><path d="M216,55.16l2.6,9.72h-7v42.48H200.92V64.88h-7l2.74-9.72Z"/><path d="M221.44,55.16h10.44v52.2H221.44Z"/><path d="M244.33,107.36q-4.53,0-6.33-1.88c-1.2-1.24-1.8-3.31-1.8-6.19V61.56a5.87,5.87,0,0,1,6.12-6.4h13.75l1.8,9.72h-10c-.62,0-.94.33-.94,1V96.63c0,.67.32,1,.94,1h10L256,107.36Z"/><path d="M273.71,77.55,279,55.16h10.8l-6.27,24,6.19,28.16H278.32l-4.11-21.53h-2.09v21.53H261.47V55.16h10.65V77.55Z"/><path d="M292.71,55.16H313l1.8,9.72H303.44V77.26h8.64v9h-8.64V97.63h10.95l-1.8,9.73H292.71Z"/><path d="M339,55.16l2.59,9.72h-7v42.48H324V64.88h-7l2.73-9.72Z"/><path d="M346.93,107.36l-1.87-9.73h11.23c.82,0,1.22-.35,1.22-1.07V87.05c0-.72-.14-1.15-.43-1.29a3.59,3.59,0,0,0-1.51-.22h-5.4a13,13,0,0,1-2.2-.18,4.17,4.17,0,0,1-1.87-.83,4.22,4.22,0,0,1-1.29-1.8,8.23,8.23,0,0,1-.47-3.09V61.92A7,7,0,0,1,346,57q1.7-1.83,5.36-1.83h14.4l1.8,9.72h-11.8c-.87,0-1.3.38-1.3,1.15v9.5a1.24,1.24,0,0,0,.4,1.08,2,2,0,0,0,1.19.29h6.55a5.62,5.62,0,0,1,3.85,1.19c.89.79,1.33,2.17,1.33,4.14V99.44q0,4.32-1.76,6.12t-6.23,1.8Z"/></g></svg>