<svg id="Layer_1" data-name="Layer 1" xmlns="http://www.w3.org/2000/svg" viewBox="0 0 305.47 81.41"><defs><style>.cls-1{isolation:isolate;}.cls-2{fill:#f5a4c7;}</style></defs><title>Artboard 1</title><g id="Date_and_Time" data-name="Date and Time"><g class="cls-1"><g class="cls-1"><path class="cls-2" d="M.9,19H9.36l.75,4.05H5.37v5.16H9V32H5.37v8.79H.9Z"/><path class="cls-2" d="M22.65,31.9a2,2,0,0,1-.5,1.32,1.77,1.77,0,0,1-1.45.6L23,40.75h-4.5l-2.1-6.93h-.57v6.93H11.46V19h8.25a2.89,2.89,0,0,1,2.23.76,2.93,2.93,0,0,1,.71,2.06Zm-6.84-9.09v7.5h2.13q.42,0,.42-.45v-6.6q0-.45-.42-.45Z"/><path class="cls-2" d="M24.51,19h4.35V40.75H24.51Z"/><path class="cls-2" d="M38.64,30.49V40.75H34.41V19H39l2.37,9.18L43.74,19h4.62V40.75H44.13V30.49l-2.76,8.7Z"/><path class="cls-2" d="M54.33,38.05l-.39,2.7H49.56L53.49,19h4.65l3.93,21.75H57.69l-.39-2.7Zm.48-3.45h2l-1-7.71Z"/><path class="cls-2" d="M69.33,40.75H64.74V35.23L60.57,19h4.5l2,10.26L69,19h4.5L69.33,35.23Z"/><path class="cls-2" d="M88.44,27.22a2.58,2.58,0,0,1-.29,1.32,3.38,3.38,0,0,1-1,1L83,32.8a.58.58,0,0,0-.21.51V36.7h5.25l-.78,4H78.45V32.92a4.61,4.61,0,0,1,.3-1.77,2.7,2.7,0,0,1,1.11-1.23L84,26.77a.81.81,0,0,0,.25-.24.54.54,0,0,0,0-.24V23.44q0-.39-.42-.39H78.54L79.29,19h6.6a2.54,2.54,0,0,1,1.81.69,2.59,2.59,0,0,1,.74,2Z"/><path class="cls-2" d="M91.2,40.75l-.75-4h4.86q.36,0,.36-.33V31.48a.27.27,0,0,0-.3-.3h-4l-1.14-1.29V19h8.61l.75,4H94.5v4.62h3.27a2.26,2.26,0,0,1,1.63.61,2,2,0,0,1,.65,1.49v7.71A3.46,3.46,0,0,1,99.3,40a3.68,3.68,0,0,1-2.61.74Z"/><path class="cls-2" d="M109.92,19,111,23.05h-2.91v17.7h-4.44V23.05h-2.91L101.88,19Z"/><path class="cls-2" d="M123.45,40.75H119v-8.7h-2.37v8.7H112.2V19h4.44v9.3H119V19h4.44Z"/><path class="cls-2" d="M138.39,18.79,131.82,40.9H128.7l6.54-22.11Z"/><path class="cls-2" d="M144.72,40.75l-.78-4h4.68q.51,0,.51-.45v-4q0-.45-.18-.54a1.54,1.54,0,0,0-.63-.09h-2.25a5.43,5.43,0,0,1-.92-.08,1.71,1.71,0,0,1-.78-.34,1.77,1.77,0,0,1-.54-.75,3.51,3.51,0,0,1-.19-1.29V21.82a2.92,2.92,0,0,1,.7-2.06,2.92,2.92,0,0,1,2.24-.76h6l.75,4.05h-4.92q-.54,0-.54.48v4a.52.52,0,0,0,.16.45.86.86,0,0,0,.5.12h2.73a2.32,2.32,0,0,1,1.6.49,2.24,2.24,0,0,1,.56,1.73v7.17a3.58,3.58,0,0,1-.74,2.55,3.56,3.56,0,0,1-2.59.75Z"/><path class="cls-2" d="M159.18,38.05l-.39,2.7h-4.38L158.34,19H163l3.93,21.75h-4.38l-.39-2.7Zm.48-3.45h2l-1-7.71Z"/><path class="cls-2" d="M174.9,19,176,23.05h-2.91v17.7h-4.44V23.05h-2.91L166.86,19Z"/><path class="cls-2" d="M185.16,30.49V40.75h-4.23V19h4.59l2.37,9.18L190.26,19h4.62V40.75h-4.23V30.49l-2.76,8.7Z"/><path class="cls-2" d="M200.85,38.05l-.39,2.7h-4.38L200,19h4.65l3.93,21.75h-4.38l-.39-2.7Zm.48-3.45h2l-1-7.71Z"/><path class="cls-2" d="M215.85,40.75h-4.59V35.23L207.09,19h4.5l1.95,10.26,2-10.26H220l-4.17,16.23Z"/><path class="cls-2" d="M235,27.22a2.58,2.58,0,0,1-.29,1.32,3.38,3.38,0,0,1-1,1l-4.11,3.27a.58.58,0,0,0-.21.51V36.7h5.25l-.78,4H225V32.92a4.61,4.61,0,0,1,.3-1.77,2.7,2.7,0,0,1,1.11-1.23l4.11-3.15a.81.81,0,0,0,.25-.24.54.54,0,0,0,0-.24V23.44q0-.39-.42-.39h-5.31l.75-4.05h6.6a2.54,2.54,0,0,1,1.81.69,2.59,2.59,0,0,1,.74,2Z"/><path class="cls-2" d="M240.15,40.75a3.59,3.59,0,0,1-2.64-.78,3.65,3.65,0,0,1-.75-2.58V21.64a2.65,2.65,0,0,1,.7-1.91,2.49,2.49,0,0,1,1.88-.73h6.72l.75,4.05H241.5q-.36,0-.36.42v3.66h4.35a2.38,2.38,0,0,1,1.68.55,2.3,2.3,0,0,1,.6,1.76v8A3.65,3.65,0,0,1,247,40a3.59,3.59,0,0,1-2.64.78Zm1-4.17q0,.36.33.36h1.77q.33,0,.33-.36V30.64q0-.3-.27-.3h-2.16Z"/><path class="cls-2" d="M257.25,19l1.08,4.05h-2.91v17.7H251V23.05h-2.91L249.21,19Z"/><path class="cls-2" d="M270.78,40.75h-4.44v-8.7H264v8.7h-4.44V19H264v9.3h2.37V19h4.44Z"/></g><g class="cls-1"><path class="cls-2" d="M4.11,63l-.26,1.8H.93l2.62-14.5h3.1l2.62,14.5H6.35L6.09,63Zm.32-2.3H5.77l-.66-5.14Z"/><path class="cls-2" d="M14.59,50.25l.72,2.7H13.37v11.8h-3V53H8.47l.76-2.7Z"/><path class="cls-2" d="M21.39,63l-.26,1.8H18.21l2.62-14.5h3.1l2.62,14.5H23.63L23.37,63Zm.32-2.3h1.34l-.66-5.14Z"/><path class="cls-2" d="M30.57,64.75l-.52-2.7h3.12c.23,0,.34-.1.34-.3V59.11q0-.3-.12-.36a1,1,0,0,0-.42-.06h-1.5a4,4,0,0,1-.61,0,1.22,1.22,0,0,1-.52-.23,1.27,1.27,0,0,1-.36-.5,2.29,2.29,0,0,1-.13-.86V52.13a1.72,1.72,0,0,1,2-1.88h4l.5,2.7H33c-.24,0-.36.1-.36.32v2.64a.38.38,0,0,0,.11.3.57.57,0,0,0,.33.08h1.82a1.56,1.56,0,0,1,1.07.33,1.47,1.47,0,0,1,.37,1.15v4.78a2.38,2.38,0,0,1-.49,1.7,2.4,2.4,0,0,1-1.73.5Z"/><path class="cls-2" d="M37.57,50.25h5.64l.5,2.7H40.55v3.44H43v2.5h-2.4v3.16h3l-.5,2.7H37.57Z"/><path class="cls-2" d="M47,64.75a2.42,2.42,0,0,1-1.76-.52,2.45,2.45,0,0,1-.5-1.72V52a1.64,1.64,0,0,1,1.7-1.78h3.82l.5,2.7H48c-.17,0-.26.09-.26.28v8.54c0,.18.09.28.26.28h2.78l-.52,2.7Z"/><path class="cls-2" d="M59.19,58.85a1.36,1.36,0,0,1-.33.88,1.2,1.2,0,0,1-1,.4l1.52,4.62h-3L55,60.13h-.38v4.62h-2.9V50.25h5.5a1.72,1.72,0,0,1,2,1.88Zm-4.56-6.06v5h1.42c.19,0,.28-.1.28-.3v-4.4c0-.2-.09-.3-.28-.3Z"/><path class="cls-2" d="M60.43,50.25h5.64l.5,2.7H63.41v3.44h2.4v2.5h-2.4v3.16h3l-.5,2.7H60.43Z"/><path class="cls-2" d="M73.29,50.25,74,53H72.07v11.8h-3V53H67.17l.76-2.7Z"/><path class="cls-2" d="M77.31,50.25h3v11.8h2.92l-.5,2.7h-5.4Z"/><path class="cls-2" d="M91.63,62.69a2.9,2.9,0,0,1-.1.79,1.76,1.76,0,0,1-.34.65,1.83,1.83,0,0,1-.64.45,2.64,2.64,0,0,1-1,.17H86.19a2.64,2.64,0,0,1-1-.17,1.83,1.83,0,0,1-.64-.45,1.76,1.76,0,0,1-.34-.65,2.9,2.9,0,0,1-.1-.79V52.13a1.72,1.72,0,0,1,2-1.88h3.6a1.72,1.72,0,0,1,2,1.88Zm-4.34-9.9c-.17,0-.26.09-.26.28v8.84a.46.46,0,0,0,0,.23.3.3,0,0,0,.23.07h1.1a.3.3,0,0,0,.23-.07.46.46,0,0,0,0-.23V53.07c0-.19-.09-.28-.26-.28Z"/><path class="cls-2" d="M95.09,64.75a2.42,2.42,0,0,1-1.76-.52,2.45,2.45,0,0,1-.5-1.72V52a1.64,1.64,0,0,1,1.7-1.78h3.82l.5,2.7H96.07c-.17,0-.26.09-.26.28v8.54c0,.18.09.28.26.28h2.78l-.52,2.7Z"/><path class="cls-2" d="M102.63,63l-.26,1.8H99.45l2.62-14.5h3.1l2.62,14.5h-2.92l-.26-1.8Zm.32-2.3h1.34l-.66-5.14Z"/><path class="cls-2" d="M113.11,50.25l.72,2.7h-1.94v11.8h-3V53H107l.76-2.7Z"/><path class="cls-2" d="M114.63,50.25h2.9v14.5h-2.9Z"/><path class="cls-2" d="M126.25,62.69a3.35,3.35,0,0,1-.1.79,1.76,1.76,0,0,1-.34.65,1.83,1.83,0,0,1-.64.45,2.64,2.64,0,0,1-1,.17h-3.36a2.64,2.64,0,0,1-1-.17,1.83,1.83,0,0,1-.64-.45,1.76,1.76,0,0,1-.34-.65,2.9,2.9,0,0,1-.1-.79V52.13a1.9,1.9,0,0,1,.47-1.37,1.93,1.93,0,0,1,1.49-.51h3.6a1.72,1.72,0,0,1,2,1.88Zm-4.34-9.9c-.18,0-.26.09-.26.28v8.84a.46.46,0,0,0,0,.23.3.3,0,0,0,.23.07H123a.3.3,0,0,0,.23-.07.46.46,0,0,0,0-.23V53.07c0-.19-.09-.28-.26-.28Z"/><path class="cls-2" d="M127.45,50.25h2.76l1.48,5.82V50.25h3v14.5h-3l-1.56-6.06v6.06h-2.68Z"/><path class="cls-2" d="M138.37,50.25h2.76l1.48,5.82V50.25h3v14.5h-3l-1.56-6.06v6.06h-2.68Z"/><path class="cls-2" d="M146.79,50.25h5.64l.5,2.7h-3.16v3.44h2.4v2.5h-2.4v3.16h3l-.5,2.7h-5.52Z"/><path class="cls-2" d="M156.59,63l-.26,1.8h-2.92L156,50.25h3.1l2.62,14.5h-2.92l-.26-1.8Zm.32-2.3h1.34l-.66-5.14Z"/><path class="cls-2" d="M170,58.85a1.36,1.36,0,0,1-.33.88,1.21,1.21,0,0,1-1,.4l1.52,4.62h-3l-1.4-4.62h-.38v4.62h-2.9V50.25h5.5a1.72,1.72,0,0,1,2,1.88Zm-4.56-6.06v5h1.42c.18,0,.28-.1.28-.3v-4.4c0-.2-.1-.3-.28-.3Z"/><path class="cls-2" d="M174.57,50.25h3.1v11.8h1v2.7h-4.9v-2.7h.94V53h-1.2Z"/><path class="cls-2" d="M181.85,64.75a1.89,1.89,0,0,1-2.26-2.24V52a1.72,1.72,0,0,1,.47-1.27,1.63,1.63,0,0,1,1.25-.49h4.48l.5,2.7h-3.54c-.16,0-.24.09-.24.28v2.44h2.9a1.58,1.58,0,0,1,1.12.37,1.53,1.53,0,0,1,.4,1.17v5.3a1.89,1.89,0,0,1-2.26,2.24Zm.66-2.78c0,.16.07.24.22.24h1.18c.14,0,.22-.08.22-.24V58c0-.14-.06-.2-.18-.2h-1.44Z"/><path class="cls-2" d="M193.25,50.25,194,53H192v11.8h-3V53h-1.94l.76-2.7Z"/><path class="cls-2" d="M202.27,64.75h-3V59h-1.58v5.8h-3V50.25h3v6.2h1.58v-6.2h3Z"/><path class="cls-2" d="M208.75,63l-.26,1.8h-2.92l2.62-14.5h3.1l2.62,14.5H211l-.26-1.8Zm.32-2.3h1.34l-.66-5.14Z"/><path class="cls-2" d="M214.71,50.25h2.76L219,56.07V50.25h3v14.5h-3l-1.56-6.06v6.06h-2.68Z"/><path class="cls-2" d="M230.53,62.51a1.89,1.89,0,0,1-2.26,2.24h-5.14V50.25h5.68a1.65,1.65,0,0,1,1.29.48,1.87,1.87,0,0,1,.43,1.28ZM226,52.79v9.42h1.36a.31.31,0,0,0,.23-.07.46.46,0,0,0,.05-.23V53.07c0-.19-.09-.28-.26-.28Z"/><path class="cls-2" d="M237.05,57.91v6.84h-2.82V50.25h3.06l1.58,6.12,1.58-6.12h3.08v14.5h-2.82V57.91l-1.84,5.8Z"/><path class="cls-2" d="M244.73,50.25h2.9v14.5h-2.9Z"/><path class="cls-2" d="M249.55,64.75l-.52-2.7h3.12c.22,0,.34-.1.34-.3V59.11q0-.3-.12-.36a1,1,0,0,0-.42-.06h-1.5a3.86,3.86,0,0,1-.61,0,1.17,1.17,0,0,1-.52-.23,1.1,1.1,0,0,1-.36-.5,2.29,2.29,0,0,1-.13-.86V52.13a1.9,1.9,0,0,1,.47-1.37,1.93,1.93,0,0,1,1.49-.51h4l.5,2.7H252c-.24,0-.36.1-.36.32v2.64a.35.35,0,0,0,.11.3.57.57,0,0,0,.33.08h1.82a1.57,1.57,0,0,1,1.07.33,1.51,1.51,0,0,1,.37,1.15v4.78a1.85,1.85,0,0,1-2.22,2.2Z"/><path class="cls-2" d="M257.13,64.75l-.52-2.7h3.12c.22,0,.34-.1.34-.3V59.11q0-.3-.12-.36a1,1,0,0,0-.42-.06H258a3.86,3.86,0,0,1-.61,0,1.17,1.17,0,0,1-.52-.23,1.1,1.1,0,0,1-.36-.5,2.29,2.29,0,0,1-.13-.86V52.13a1.9,1.9,0,0,1,.47-1.37,1.93,1.93,0,0,1,1.49-.51h4l.5,2.7h-3.28c-.24,0-.36.1-.36.32v2.64a.35.35,0,0,0,.11.3.57.57,0,0,0,.33.08h1.82a1.57,1.57,0,0,1,1.07.33,1.51,1.51,0,0,1,.37,1.15v4.78a1.85,1.85,0,0,1-2.22,2.2Z"/><path class="cls-2" d="M264.13,50.25H267v14.5h-2.9Z"/><path class="cls-2" d="M275.75,62.69a3.35,3.35,0,0,1-.1.79,1.76,1.76,0,0,1-.34.65,1.93,1.93,0,0,1-.64.45,2.64,2.64,0,0,1-1,.17h-3.36a2.6,2.6,0,0,1-1-.17,1.83,1.83,0,0,1-.64-.45,1.63,1.63,0,0,1-.34-.65,2.9,2.9,0,0,1-.1-.79V52.13a1.9,1.9,0,0,1,.47-1.37,1.93,1.93,0,0,1,1.49-.51h3.6a1.72,1.72,0,0,1,2,1.88Zm-4.34-9.9c-.18,0-.26.09-.26.28v8.84a.37.37,0,0,0,.05.23.3.3,0,0,0,.23.07h1.1a.31.31,0,0,0,.23-.07.46.46,0,0,0,.05-.23V53.07c0-.19-.09-.28-.26-.28Z"/><path class="cls-2" d="M277,50.25h2.76l1.48,5.82V50.25h3v14.5h-3l-1.56-6.06v6.06H277Z"/></g></g><g class="cls-1"><g class="cls-1"><path d="M3.74,17H12.2L13,21.05H8.21v5.16h3.6V30H8.21v8.79H3.74Z"/><path d="M25.49,29.9a2,2,0,0,1-.5,1.32,1.77,1.77,0,0,1-1.45.6l2.28,6.93h-4.5l-2.1-6.93h-.57v6.93H14.3V17h8.25a2.89,2.89,0,0,1,2.23.76,2.93,2.93,0,0,1,.71,2.06Zm-6.84-9.09v7.5h2.13q.42,0,.42-.45v-6.6q0-.45-.42-.45Z"/><path d="M27.35,17H31.7V38.75H27.35Z"/><path d="M41.48,28.49V38.75H37.25V17h4.59l2.37,9.18L46.58,17H51.2V38.75H47V28.49l-2.76,8.7Z"/><path d="M57.17,36.05l-.39,2.7H52.4L56.33,17H61l3.93,21.75H60.53l-.39-2.7Zm.48-3.45h2l-1-7.71Z"/><path d="M72.17,38.75H67.58V33.23L63.41,17h4.5l2,10.26,2-10.26h4.5L72.17,33.23Z"/><path d="M91.28,25.22A2.58,2.58,0,0,1,91,26.54a3.38,3.38,0,0,1-1,1L85.85,30.8a.58.58,0,0,0-.21.51V34.7h5.25l-.78,4H81.29V30.92a4.61,4.61,0,0,1,.3-1.77,2.7,2.7,0,0,1,1.11-1.23l4.11-3.15a.81.81,0,0,0,.25-.24.54.54,0,0,0,0-.24V21.44q0-.39-.42-.39H81.38L82.13,17h6.6a2.54,2.54,0,0,1,1.81.69,2.59,2.59,0,0,1,.74,2Z"/><path d="M94,38.75l-.75-4h4.86q.36,0,.36-.33V29.48a.27.27,0,0,0-.3-.3h-4l-1.14-1.29V17h8.61l.75,4h-5.1v4.62h3.27a2.26,2.26,0,0,1,1.63.61,2,2,0,0,1,.65,1.49v7.71a3.46,3.46,0,0,1-.75,2.53,3.68,3.68,0,0,1-2.61.74Z"/><path d="M112.76,17l1.08,4.05h-2.91v17.7h-4.44V21.05h-2.91L104.72,17Z"/><path d="M126.29,38.75h-4.44v-8.7h-2.37v8.7H115V17h4.44v9.3h2.37V17h4.44Z"/><path d="M141.23,16.79,134.66,38.9h-3.12l6.54-22.11Z"/><path d="M147.56,38.75l-.78-4h4.68q.51,0,.51-.45v-4q0-.45-.18-.54a1.54,1.54,0,0,0-.63-.09h-2.25a5.43,5.43,0,0,1-.92-.08,1.71,1.71,0,0,1-.78-.34,1.77,1.77,0,0,1-.54-.75,3.51,3.51,0,0,1-.19-1.29V19.82a2.92,2.92,0,0,1,.7-2.06,2.92,2.92,0,0,1,2.24-.76h6l.75,4.05h-4.92q-.54,0-.54.48v4a.52.52,0,0,0,.16.45.86.86,0,0,0,.5.12h2.73a2.32,2.32,0,0,1,1.6.49,2.24,2.24,0,0,1,.56,1.73v7.17a3.58,3.58,0,0,1-.74,2.55,3.56,3.56,0,0,1-2.59.75Z"/><path d="M162,36.05l-.39,2.7h-4.38L161.18,17h4.65l3.93,21.75h-4.38l-.39-2.7Zm.48-3.45h2l-1-7.71Z"/><path d="M177.74,17l1.08,4.05h-2.91v17.7h-4.44V21.05h-2.91L169.7,17Z"/><path d="M188,28.49V38.75h-4.23V17h4.59l2.37,9.18L193.1,17h4.62V38.75h-4.23V28.49l-2.76,8.7Z"/><path d="M203.69,36.05l-.39,2.7h-4.38L202.85,17h4.65l3.93,21.75h-4.38l-.39-2.7Zm.48-3.45h2l-1-7.71Z"/><path d="M218.69,38.75H214.1V33.23L209.93,17h4.5l1.95,10.26,2-10.26h4.5l-4.17,16.23Z"/><path d="M237.8,25.22a2.58,2.58,0,0,1-.29,1.32,3.38,3.38,0,0,1-1,1l-4.11,3.27a.58.58,0,0,0-.21.51V34.7h5.25l-.78,4h-8.82V30.92a4.61,4.61,0,0,1,.3-1.77,2.7,2.7,0,0,1,1.11-1.23l4.11-3.15a.81.81,0,0,0,.25-.24.54.54,0,0,0,0-.24V21.44q0-.39-.42-.39H227.9l.75-4.05h6.6a2.54,2.54,0,0,1,1.81.69,2.59,2.59,0,0,1,.74,2Z"/><path d="M243,38.75a3.59,3.59,0,0,1-2.64-.78,3.65,3.65,0,0,1-.75-2.58V19.64a2.65,2.65,0,0,1,.7-1.91,2.49,2.49,0,0,1,1.88-.73h6.72l.75,4.05h-5.31q-.36,0-.36.42v3.66h4.35a2.38,2.38,0,0,1,1.68.55,2.3,2.3,0,0,1,.6,1.76v8a3.65,3.65,0,0,1-.75,2.58,3.59,3.59,0,0,1-2.64.78Zm1-4.17q0,.36.33.36h1.77q.33,0,.33-.36V28.64q0-.3-.27-.3H244Z"/><path d="M260.09,17l1.08,4.05h-2.91v17.7h-4.44V21.05h-2.91L252.05,17Z"/><path d="M273.62,38.75h-4.44v-8.7h-2.37v8.7h-4.44V17h4.44v9.3h2.37V17h4.44Z"/></g><g class="cls-1"><path d="M7,61l-.26,1.8H3.77l2.62-14.5h3.1l2.62,14.5H9.19L8.93,61Zm.32-2.3H8.61L8,53.51Z"/><path d="M17.43,48.25l.72,2.7H16.21v11.8h-3V51H11.31l.76-2.7Z"/><path d="M24.23,61,24,62.75H21.05l2.62-14.5h3.1l2.62,14.5H26.47L26.21,61Zm.32-2.3h1.34l-.66-5.14Z"/><path d="M33.41,62.75l-.52-2.7H36c.23,0,.34-.1.34-.3V57.11q0-.3-.12-.36a1,1,0,0,0-.42-.06h-1.5a4,4,0,0,1-.61,0,1.22,1.22,0,0,1-.52-.23,1.27,1.27,0,0,1-.36-.5,2.29,2.29,0,0,1-.13-.86V50.13a1.72,1.72,0,0,1,2-1.88h4l.5,2.7H35.87c-.24,0-.36.1-.36.32v2.64a.38.38,0,0,0,.11.3.57.57,0,0,0,.33.08h1.82a1.56,1.56,0,0,1,1.07.33,1.47,1.47,0,0,1,.37,1.15v4.78a2.38,2.38,0,0,1-.49,1.7,2.4,2.4,0,0,1-1.73.5Z"/><path d="M40.41,48.25h5.64l.5,2.7H43.39v3.44h2.4v2.5h-2.4v3.16h3l-.5,2.7H40.41Z"/><path d="M49.81,62.75a2.42,2.42,0,0,1-1.76-.52,2.45,2.45,0,0,1-.5-1.72V50a1.64,1.64,0,0,1,1.7-1.78h3.82l.5,2.7H50.79c-.17,0-.26.09-.26.28v8.54c0,.18.09.28.26.28h2.78l-.52,2.7Z"/><path d="M62,56.85a1.36,1.36,0,0,1-.33.88,1.2,1.2,0,0,1-1,.4l1.52,4.62h-3l-1.4-4.62h-.38v4.62h-2.9V48.25h5.5a1.72,1.72,0,0,1,2,1.88Zm-4.56-6.06v5h1.42c.19,0,.28-.1.28-.3v-4.4c0-.2-.09-.3-.28-.3Z"/><path d="M63.27,48.25h5.64l.5,2.7H66.25v3.44h2.4v2.5h-2.4v3.16h3l-.5,2.7H63.27Z"/><path d="M76.13,48.25l.72,2.7H74.91v11.8H72V51H70l.76-2.7Z"/><path d="M80.15,48.25h3v11.8h2.92l-.5,2.7h-5.4Z"/><path d="M94.47,60.69a2.9,2.9,0,0,1-.1.79,1.76,1.76,0,0,1-.34.65,1.83,1.83,0,0,1-.64.45,2.64,2.64,0,0,1-1,.17H89a2.64,2.64,0,0,1-1-.17,1.83,1.83,0,0,1-.64-.45,1.76,1.76,0,0,1-.34-.65,2.9,2.9,0,0,1-.1-.79V50.13a1.9,1.9,0,0,1,.47-1.37,1.93,1.93,0,0,1,1.49-.51h3.6a1.72,1.72,0,0,1,2,1.88Zm-4.34-9.9c-.17,0-.26.09-.26.28v8.84a.46.46,0,0,0,0,.23.3.3,0,0,0,.23.07h1.1a.3.3,0,0,0,.23-.07.46.46,0,0,0,0-.23V51.07c0-.19-.09-.28-.26-.28Z"/><path d="M97.93,62.75a1.89,1.89,0,0,1-2.26-2.24V50a1.64,1.64,0,0,1,1.7-1.78h3.82l.5,2.7H98.91c-.18,0-.26.09-.26.28v8.54c0,.18.08.28.26.28h2.78l-.52,2.7Z"/><path d="M105.47,61l-.26,1.8h-2.92l2.62-14.5H108l2.62,14.5h-2.92l-.26-1.8Zm.32-2.3h1.34l-.66-5.14Z"/><path d="M116,48.25l.72,2.7h-1.94v11.8h-3V51h-1.94l.76-2.7Z"/><path d="M117.47,48.25h2.9v14.5h-2.9Z"/><path d="M129.09,60.69a3.35,3.35,0,0,1-.1.79,1.76,1.76,0,0,1-.34.65,1.93,1.93,0,0,1-.64.45,2.64,2.64,0,0,1-1,.17h-3.36a2.6,2.6,0,0,1-1-.17,1.83,1.83,0,0,1-.64-.45,1.63,1.63,0,0,1-.34-.65,2.9,2.9,0,0,1-.1-.79V50.13a1.9,1.9,0,0,1,.47-1.37,1.93,1.93,0,0,1,1.49-.51h3.6a1.72,1.72,0,0,1,2,1.88Zm-4.34-9.9c-.18,0-.26.09-.26.28v8.84a.37.37,0,0,0,.05.23.3.3,0,0,0,.23.07h1.1a.31.31,0,0,0,.23-.07.46.46,0,0,0,.05-.23V51.07c0-.19-.09-.28-.26-.28Z"/><path d="M130.29,48.25h2.76l1.48,5.82V48.25h3v14.5h-3L133,56.69v6.06h-2.68Z"/><path d="M141.21,48.25H144l1.48,5.82V48.25h3v14.5h-3l-1.56-6.06v6.06h-2.68Z"/><path d="M149.63,48.25h5.64l.5,2.7h-3.16v3.44H155v2.5h-2.4v3.16h3l-.5,2.7h-5.52Z"/><path d="M159.43,61l-.26,1.8h-2.92l2.62-14.5H162l2.62,14.5h-2.92l-.26-1.8Zm.32-2.3h1.34l-.66-5.14Z"/><path d="M172.85,56.85a1.36,1.36,0,0,1-.33.88,1.21,1.21,0,0,1-1,.4l1.52,4.62h-3l-1.4-4.62h-.38v4.62h-2.9V48.25h5.5a1.72,1.72,0,0,1,2,1.88Zm-4.56-6.06v5h1.42c.18,0,.28-.1.28-.3v-4.4c0-.2-.1-.3-.28-.3Z"/><path d="M177.41,48.25h3.1v11.8h1v2.7h-4.9v-2.7h.94V51h-1.2Z"/><path d="M184.69,62.75a1.89,1.89,0,0,1-2.26-2.24V50a1.72,1.72,0,0,1,.47-1.27,1.63,1.63,0,0,1,1.25-.49h4.48l.5,2.7h-3.54c-.16,0-.24.09-.24.28v2.44h2.9a1.58,1.58,0,0,1,1.12.37,1.53,1.53,0,0,1,.4,1.17v5.3a1.89,1.89,0,0,1-2.26,2.24Zm.66-2.78c0,.16.07.24.22.24h1.18c.14,0,.22-.08.22-.24V56c0-.14-.06-.2-.18-.2h-1.44Z"/><path d="M196.09,48.25l.72,2.7h-1.94v11.8h-3V51H190l.76-2.7Z"/><path d="M205.11,62.75h-3V57h-1.58v5.8h-3V48.25h3v6.2h1.58v-6.2h3Z"/><path d="M211.59,61l-.26,1.8h-2.92L211,48.25h3.1l2.62,14.5h-2.92l-.26-1.8Zm.32-2.3h1.34l-.66-5.14Z"/><path d="M217.55,48.25h2.76l1.48,5.82V48.25h3v14.5h-3l-1.56-6.06v6.06h-2.68Z"/><path d="M233.37,60.51a1.89,1.89,0,0,1-2.26,2.24H226V48.25h5.68a1.65,1.65,0,0,1,1.29.48,1.87,1.87,0,0,1,.43,1.28Zm-4.52-9.72v9.42h1.36a.31.31,0,0,0,.23-.07.46.46,0,0,0,.05-.23V51.07c0-.19-.09-.28-.26-.28Z"/><path d="M239.89,55.91v6.84h-2.82V48.25h3.06l1.58,6.12,1.58-6.12h3.08v14.5h-2.82V55.91l-1.84,5.8Z"/><path d="M247.57,48.25h2.9v14.5h-2.9Z"/><path d="M252.39,62.75l-.52-2.7H255c.22,0,.34-.1.34-.3V57.11q0-.3-.12-.36a1,1,0,0,0-.42-.06h-1.5a3.86,3.86,0,0,1-.61,0,1.17,1.17,0,0,1-.52-.23,1.1,1.1,0,0,1-.36-.5,2.29,2.29,0,0,1-.13-.86V50.13a1.9,1.9,0,0,1,.47-1.37,1.93,1.93,0,0,1,1.49-.51h4l.5,2.7h-3.28c-.24,0-.36.1-.36.32v2.64a.35.35,0,0,0,.11.3.57.57,0,0,0,.33.08h1.82a1.57,1.57,0,0,1,1.07.33,1.51,1.51,0,0,1,.37,1.15v4.78a1.85,1.85,0,0,1-2.22,2.2Z"/><path d="M260,62.75l-.52-2.7h3.12c.22,0,.34-.1.34-.3V57.11q0-.3-.12-.36a1,1,0,0,0-.42-.06h-1.5a3.86,3.86,0,0,1-.61,0,1.17,1.17,0,0,1-.52-.23,1.1,1.1,0,0,1-.36-.5,2.29,2.29,0,0,1-.13-.86V50.13a1.9,1.9,0,0,1,.47-1.37,1.93,1.93,0,0,1,1.49-.51h4l.5,2.7h-3.28c-.24,0-.36.1-.36.32v2.64a.35.35,0,0,0,.11.3.57.57,0,0,0,.33.08h1.82a1.57,1.57,0,0,1,1.07.33,1.51,1.51,0,0,1,.37,1.15v4.78a1.85,1.85,0,0,1-2.22,2.2Z"/><path d="M267,48.25h2.9v14.5H267Z"/><path d="M278.59,60.69a3.35,3.35,0,0,1-.1.79,1.76,1.76,0,0,1-.34.65,1.93,1.93,0,0,1-.64.45,2.64,2.64,0,0,1-1,.17h-3.36a2.6,2.6,0,0,1-1-.17,1.83,1.83,0,0,1-.64-.45,1.63,1.63,0,0,1-.34-.65,2.9,2.9,0,0,1-.1-.79V50.13a1.9,1.9,0,0,1,.47-1.37,1.93,1.93,0,0,1,1.49-.51h3.6a1.72,1.72,0,0,1,2,1.88Zm-4.34-9.9c-.18,0-.26.09-.26.28v8.84a.37.37,0,0,0,.05.23.3.3,0,0,0,.23.07h1.1a.31.31,0,0,0,.23-.07.46.46,0,0,0,0-.23V51.07c0-.19-.09-.28-.26-.28Z"/><path d="M279.79,48.25h2.75L284,54.07V48.25h3v14.5h-3l-1.57-6.06v6.06h-2.67Z"/></g></g><path d="M3.18,75H302.84c3.22,0,3.23-5,0-5H3.18C0,70,0,75,3.18,75Z"/><path d="M3.39,81.41H303.06c3.22,0,3.22-5,0-5H3.39c-3.22,0-3.22,5,0,5Z"/><path d="M6.64,5H301.31c3.21,0,3.22-5,0-5H6.64c-3.22,0-3.22,5,0,5Z"/><path d="M6.64,11.41H301.31c3.21,0,3.22-5,0-5H6.64c-3.22,0-3.22,5,0,5Z"/></g></svg>