<?xml version="1.0" encoding="iso-8859-1"?>
<!-- Generator: Adobe Illustrator 22.1.0, SVG Export Plug-In . SVG Version: 6.00 Build 0)  -->
<svg version="1.1" xmlns="http://www.w3.org/2000/svg" xmlns:xlink="http://www.w3.org/1999/xlink" x="0px" y="0px"
	 viewBox="0 0 138.657 286.588" style="enable-background:new 0 0 138.657 286.588;" xml:space="preserve">
<g id="Left_Hand">
	<g>
		<g id="Left">
			<path style="fill:#010101;" d="M76.822,33.202c-1.579-0.34-1.753,0.72-1.858,1.846c0.792-0.17,0.876,0.36,0.929,0.923
				C76.981,35.822,76.676,34.289,76.822,33.202z"/>
			<path style="fill:#010101;" d="M67.53,53.505c-0.354-1.757-1.181,0.589-0.929,1.846C66.954,57.107,67.782,54.761,67.53,53.505z"
				/>
			<path style="fill:#010101;" d="M65.671,55.351c-2.709-1.357-2.709,4.125,0,2.769V55.351z"/>
			<path style="fill:#010101;" d="M43.371,71.962c-0.353-1.757-1.181,0.589-0.929,1.846C42.795,75.564,43.624,73.218,43.371,71.962z
				"/>
			<path style="fill:#010101;" d="M65.671,89.496c-0.603-2.602-1.078,2.125-0.929,2.769C65.172,94.118,66.488,93.009,65.671,89.496z
				"/>
			<path style="fill:#010101;" d="M73.105,102.416c-0.904,0.025-0.719,1.129-0.929,1.846c-0.602,0.939-2.136,0.954-1.858,2.769
				C73.579,106.622,74.258,105.085,73.105,102.416z"/>
			<path style="fill:#010101;" d="M52.663,105.185c-3.357-0.875-1.296,3.634-1.858,5.537
				C54.162,111.596,52.101,107.087,52.663,105.185z"/>
			<path style="fill:#010101;" d="M13.637,110.722c-3.348-0.884-1.647,3.983-0.929,4.614c-0.407,1.828,0.368,8.498,0.929,3.691
				V110.722z"/>
			<path style="fill:#010101;" d="M71.246,130.102c-1.944-0.934-1.278,1.495-1.858,1.846c-1.203,0.726-3.168,0.066-4.646,0.923
				c1.688,1.913,8.468,1.08,8.363-1.846C72.025,131.175,71.452,130.82,71.246,130.102z"/>
			<path style="fill:#010101;" d="M55.45,132.87c0.014,0.932,1.153,0.672,1.858,0.923c2.303,0.817,6.376,2.757,5.575,0
				C59.892,133.996,58.952,132.16,55.45,132.87z"/>
			<path style="fill:#010101;" d="M56.379,136.561c-0.015-1.409-6.885-2.024-5.575,0.923
				C52.993,137.505,53.54,135.894,56.379,136.561z"/>
			<path style="fill:#010101;" d="M118.635,137.484c-2.952,0.774,1.649,1.217,2.788,0.923c2.622,0.094,3.946,3.476,6.504,0.923
				c0.178-1.716-2.941-0.154-3.717-0.923c-0.062-0.063,0.067-0.911,0-0.923C122.506,137.189,120.614,137.699,118.635,137.484z"/>
			<path style="fill:#010101;" d="M49.875,139.33c-1.528-2.631-5.041,0.442-6.504,0.923C44.666,142.651,48.18,139.579,49.875,139.33
				z"/>
			<path style="fill:#010101;" d="M88.901,142.098c-1.584-3.149-2.576,1.133-1.858,1.846
				C87.432,144.329,88.146,141.636,88.901,142.098z"/>
			<path style="fill:#010101;" d="M35.008,148.559c-0.39-2.055-4.93-0.723-5.575,0C30.371,151.156,33.379,148.303,35.008,148.559z"
				/>
			<path style="fill:#010101;" d="M26.645,152.25c-1.5-0.259-1.599,0.871-2.788,0.923C23.489,154.963,28.09,154.52,26.645,152.25z"
				/>
			<path style="fill:#010101;" d="M21.07,158.71c-1.5-0.259-1.599,0.871-2.788,0.923C17.914,161.423,22.515,160.98,21.07,158.71z"/>
			<path style="fill:#010101;" d="M14.566,163.324c-1.008,0.229-0.63,1.835-1.858,1.846
				C13.107,167.722,15.63,165.216,14.566,163.324z"/>
			<path style="fill:#010101;" d="M61.955,169.784c-0.377-2.298-3.602-0.055-2.788,1.846
				C60.387,171.303,60.629,170.005,61.955,169.784z"/>
			<path style="fill:#010101;" d="M37.796,168.861c-1.247,0.605-1.729,1.972-1.858,3.691
				C37.572,172.328,38.056,170.964,37.796,168.861z"/>
			<path style="fill:#010101;" d="M69.388,172.553c-2.05-3.149-2.104,3.362-2.788,4.614c-2.616-0.933,0.256-3.92,0-5.537
				c-1.634,0.221-2.117,1.587-1.858,3.691c0.056,1.144-1.424,1.229-1.858,1.846c-0.233,0.332,0.304,1.597,0,1.846
				c-1.083,0.881-0.261,1.369-0.929,2.769c-0.167,0.352-1.763,0.656-1.858,0.923c-0.285,0.804,0.337,1.986,0,2.769
				c-0.162,0.375-0.781,0.038-0.929,0.923c0.046-0.269,1.044,0.355,0.929,0.923c-0.021,0.115-0.872,0.187-0.929,0.923
				c-0.344,4.387-0.897,11.235,0,16.611c0.293,1.752-0.269,2.963,1.858,2.769c0.264-4.539-1.009-9.01,0-12.92
				c0.219-0.849,0.983-0.755,1.858-0.923c-0.496-3.57,1.659-4.504,0.929-8.306c0.545-0.378,1.171,1.634,0.929,1.846
				c2.211-1.942,3.051-9.683,3.717-13.843C68.289,172.69,68.821,172.603,69.388,172.553z"/>
			<path style="fill:#010101;" d="M28.504,179.935"/>
			<path style="fill:#010101;" d="M56.379,199.315c-3.909,2.576-2.584,10.352-2.788,16.611c2.933-0.068,1.012-2.752,1.858-5.537
				c0.306-1.002,0.649-3.763,0-6.46C55.069,201.704,57.147,201.923,56.379,199.315z"/>
			<path style="fill:#010101;" d="M57.309,222.387c-3.374,1.513,1.136,2.262,1.858,2.769c1.5,1.052,1.699,2.965,3.717,1.846
				C62.97,223.532,58.229,224.857,57.309,222.387z"/>
			<path style="fill:#010101;" d="M42.442,243.612c0.463,3.846,4.201,4.441,7.434,5.537c1.92,1.411,5.445,4.282,8.363,1.846
				c-0.842-3.266-3.414-1.06-5.575-1.846c-1.1-0.401-1.714-1.271-2.788-1.846C47.757,246.165,45.892,244.422,42.442,243.612z"/>
			<path style="fill:#010101;" d="M31.291,268.529c0.959,2.538,4.836,3.482,7.434,4.614c2.519,1.096,5.752,4.01,8.363,1.846
				c-0.536-1.693-3.82-1.658-5.575-2.769c-1.122-0.712-2.159-0.297-3.717-0.923C35.693,270.451,33.784,268.103,31.291,268.529z"/>
			<path style="fill:#010101;" d="M60.096,9.208c0.094-1.735,2.667-5.601,3.717-6.46c0.192-0.157,2.841-0.926,2.788-0.923
				c1.004-0.053,0.501-0.734,0.929-0.923c6.156-2.717,9.826,1.25,12.079,4.614c0.947,1.412,1.374,2.968,1.858,3.691
				c2.17,3.231,0.308,10.589,0.929,15.688c2.131-1.933,3.077-6.33,5.575-6.46c1.031-0.054,0.464-0.69,0.929-0.923
				c1.64-0.819,2.837-1.097,4.646-0.923c3.519,0.34,6.045,4.408,7.433,5.537c0.272,0.22-0.161,1.511,0,1.846
				c0.056,0.115,0.822-0.089,0.929,0c0.252,0.205-0.127,1.519,0,1.846c0.544,1.4,1.431,3.081,1.858,4.614
				c1.81,6.479,2.612,18.019,3.717,23.071c0.187,0.855-0.062,1.894,0,2.769c0.474,6.605,0.148,12.452,0.929,17.534
				c0.009,0.057,0.866-0.053,0.929,0c0.19,0.154-0.033,1.57,0,1.846c0.182,1.513,0.023,2.033,0.929,2.769
				c1.499,1.218-0.631,4.27,0.929,5.537c0.229,0.186-0.088,1.535,0,1.846c0.794,2.794,1.601,5.944,1.858,8.306
				c0.596,5.43-1.222,10.238,0.929,11.997c1.072-1.963,0.9-3.538,1.858-5.537c0.53-1.102,1.266-1.034,1.858-1.846
				c0.291-0.398-0.207-1.39,0-1.846c0.119-0.261,1.629-0.64,1.858-0.923c0.599-0.737,0.397-2.088,0.929-2.769
				c0.518-0.659,2.054-1.394,2.788-1.846c1.757-1.08,3.433-2.356,6.504-1.846c3.285,0.545,4.78,3.427,5.575,4.614
				c3.312,4.934-0.321,15.116,0,22.148c0.217,4.76,2.341,9.822,2.788,15.688c0.624,8.154,0,18.832,0,28.608
				c0.002,10.332,1.144,20.932,0,28.608c-0.493,3.309-3.612,8.171-3.717,10.151c-0.05,0.959-0.781,0.543-0.929,0.923
				c-0.919,2.361-0.468,2.783-0.929,4.614c-0.18,0.72-0.833,0.673-0.929,0.923c-1.336,3.495-2.303,6.471-3.717,8.306
				c-1.345,1.748-1.935,3.185-2.788,4.614c-0.141,0.238-0.649,0.486-0.929,0.923c-1.106,1.725-1.847,2.472-2.788,3.691
				c-1.342,1.745-1.99,3.149-2.788,4.614c-1.514,2.783-2.918,5.133-4.646,7.383c-0.485,0.633-1.304,1.112-1.858,1.846
				c-0.713,0.945-1.211,1.804-1.858,2.769c-0.568,0.845-1.353,1.148-1.858,1.846c-0.817,1.13-0.164,2.252-0.929,3.691
				c-0.323,0.605-1.43,0.988-1.858,1.846c-1.095,2.186-1.091,5.141-0.929,7.383c0.457,6.356,1.471,16.283,0,21.225
				c-0.402,1.352-0.217,2.559-0.929,3.691c-0.471,0.749-6.147,4.548-7.434,4.614c-0.912,0.047-0.61,0.82-0.929,0.923
				c-1.028,0.332-2.627-0.057-3.717,0c-0.722,0.038-0.858,0.91-0.929,0.923c-7.38,1.182-17.104,0-26.017,0
				c-9.532-0.002-19.362,0.622-26.017,0c-2.205-0.207-5.931-1.705-6.504-1.846c-0.561-0.138-1.278,0.042-1.858,0
				c-2.886-0.206-3.565-0.654-4.646-0.923c-0.546-0.135-1.343,0.218-1.858,0c-0.436-0.185-1.346-1.558-1.858-1.846
				c-1.043-0.591-1.957-0.293-2.788-0.923c-0.627-0.478-0.701-1.865-1.858-1.846c0.611-10.652-0.419-18.746-1.858-25.84
				c-1.098-5.416-1.841-11.564-4.646-13.843c-0.285-0.233,0.19-1.508,0-1.846c-0.292-0.523-1.581-1.217-1.858-1.846
				c-0.094-0.213,0.013-0.687,0-0.923c-0.048-0.914-0.82-0.598-0.929-0.923c-0.842-2.511-0.445-2.689-0.929-4.614
				c-0.156-0.62-0.889-0.796-0.929-0.923c-1.338-4.372-1.737-9.064-2.788-13.843c-0.817-3.714-2.381-7.434-2.788-11.074
				c-1.306-11.694-0.368-29.529,0.929-38.76c1.069-7.61,2.039-19.284,2.788-24.917c0.368-2.768,0.673-3.591,0.929-4.614
				c0.299-1.187,0.725-1.956,0.929-2.769c0.722-2.868-0.75-5.691-0.929-8.306c-0.703-10.27,0.383-21.946,0.929-29.531
				c0.323-4.474,0.636-8.852,0.929-11.074c0.161-1.202-0.215-2.5,0-3.691c0.424-2.339,1.621-4.306,1.858-6.46
				c0.319-2.874-0.558-5.733,0-8.306c0.026-0.12,0.766-0.272,0.929-0.923c0.332-1.319,0.35-1.865,0.929-2.769
				c1.149-1.79,1.136-3.861,1.858-5.537c0.755-1.748,1.947-4.464,2.788-5.537c0.566-0.722,2.043-1.268,2.788-1.846
				c2.402-1.863,3.321-3.244,6.504-2.769c2.576,0.384,4.33,2.051,5.575,5.537c1.64,1.728,1.059,4.805,0.929,7.383
				c-0.153,3.076-1.609,8.246-1.858,9.228c-0.14,0.561,0.049,1.266,0,1.846c-0.424,5.029-0.785,9.265,1.858,11.997
				c1.476-1.216,0.449-3.447,0.929-5.537c0.442-1.915,1.611-3.319,1.858-5.537c0.689-6.183,0.11-14.049,0.929-18.457
				c0.11-0.588-0.145-1.267,0-1.846c0.157-0.621,0.892-0.797,0.929-0.923c1.047-3.415,1.241-6.048,1.858-9.228
				c0.694-3.57,1.492-6.759,1.858-8.306c0.978-4.128-0.16-7.35,0.929-10.151c0.156-0.401,1.596-1.359,1.858-1.846
				c0.59-1.086,0.225-1.942,0.929-2.769c3.842-4.509,10.018-4.434,15.796-1.846C58.39,11.848,60.05,10.091,60.096,9.208z
				 M23.858,254.686c-1.354,0.98,0.636,3.401,2.788,5.537c0.885,0.878,2.152,2.3,2.788,2.769c0.331,0.245,1.607-0.306,1.858,0
				c1.151,1.398,1.71,1.498,3.717,2.769c1.434,0.905,5.006,2.233,8.363,2.769c-0.695,1.728-4.355,0.674-6.504,0
				c-2.415-0.758-5.201-3.005-7.434-4.614c-0.633-0.456-1.265-1.415-1.858-1.846c-0.704-0.513-1.835-1.795-2.788-1.846
				c-0.846-0.045-1.647-1.091-1.858-1.846c-2.816,0.995,1.485,3.787,1.858,4.614c0.179,0.395-0.29,1.543,0,1.846
				c0.784,0.817,2.731,0.27,3.717,0.923c0.792,0.522,1.287,1.972,1.858,2.769c-2.183,0.817-2.637-2.075-3.717-2.769
				c-1.14-0.734-3.274-0.018-3.717-1.846c-3.071,1.382,1.931,2.255,0.929,4.614c1.614-0.712,2.247,0.673,2.788,0.923
				c0.71,0.327,1.906,0.434,2.788,0.923c0.639,0.353,1.298,1.5,1.858,1.846c0.848,0.523,1.71,0.384,2.788,0.923
				c0.61,0.303,1.336,1.566,1.858,1.846c2.01,1.074,4.994,0.63,7.433,2.769c-0.184,0.878-2.46,1.26-3.717,0.923
				c-1.032-0.279-1.226-1.594-1.858-1.846c-1.329-0.535-2.41-0.258-3.717-0.923c-0.625-0.319-1.319-1.539-1.858-1.846
				c-0.612-0.348-1.214-0.515-1.858-0.923c-0.439-0.279-0.689-0.783-0.929-0.923c-0.764-0.448-1.866-0.377-2.788-0.923
				c-1.531-0.908-2.662-2.978-4.646-2.769c0.995,0.305,0.314,2.067,0.929,2.769c0.723,0.821,1.853,0.256,2.788,0.923
				c0.822,0.586,0.734,1.329,1.858,1.846c0.336,0.153,1.639-0.267,1.858,0c0.106,0.129-0.136,0.842,0,0.923
				c0.495,0.297,1.43,1.664,1.858,1.846c0.516,0.218,1.312-0.135,1.858,0c1.06,0.263,3.431,1.908,5.575,2.769
				c-0.938,2.598-3.946-0.254-5.575,0c-3.263-1.988-5.475-5.022-10.221-5.537c0.265,1.18,0.654,3.558,1.858,4.614
				c0.312,0.272,1.602-0.312,1.858,0c0.091,0.106-0.114,0.867,0,0.923c0.337,0.159,1.637-0.27,1.858,0
				c0.323,0.391,1.827,1.13,4.646,1.846c6.034,1.532,17.153,0.921,28.805,0.923c14.977,0,29.465,1.634,37.168-4.614
				c0.51-3.407,2.657-9.899,0-11.997c-1.673-1.322-0.672-7.303-0.929-11.997c-0.213-4.312-2.765,1.988-5.575,0.923
				c-0.279-3.151,4.044-2.474,5.575-3.691c0.315-0.249-0.289-1.559,0-1.846c0.544-0.539,3.564,0.211,2.788-2.769
				c-1.289,0.102-1.877,0.4-2.788,0.923c-0.639,0.367-1.442,1.664-1.858,1.846c-1.877,0.822-5.024-0.091-6.504,1.846
				c0.002-0.923,0-1.848,0-2.769c0.792-0.171,0.876,0.361,0.929,0.923c2.377,0.04,1.134-0.687,0.929-1.846
				c3.336,0.544,4.496-1.072,6.504-1.846c0.832-1.916-6.33-0.251-2.788-1.846c-1.919-2.142-4.752,2.61-7.434,2.769
				c-1.472-0.288-3.196,0.38-4.646,0c-1.196-0.314-1.47-1.721-2.788-1.846c-1.725-0.163-2.388,0.544-4.646,0.923
				c-2.374-0.102-3.252-1.693-4.646-2.769c-2.626-0.762-2.408,1.301-4.646,0.923c-2.078-1.32-3.83-2.963-5.575-4.614
				c1.195-2.581,1.922,2.906,4.646,1.846c-0.175-2.595-3.032-2.525-3.717-4.614c-0.308-1.98,2.263,0.481,2.788,0.923
				c0.819,0.688,1.976,1.143,1.858,2.769c1.082-0.149,1.654,0.203,1.858,0.923c5.142-2.587,6.891,3.536,13.009,2.769
				c-0.761-2.936-6.136-1.288-5.575-5.537c-2.517,0.283-4.56-0.481-6.504-1.846c-1.172-0.823-2.514-2.662-3.717-3.691
				c-1.218-1.044-4.057-0.279-3.717-3.691c0.484-2.421,1.202,0.84,2.788,0.923c0.238,0.013,3.193,1.913,3.717,2.769h6.504
				c-0.223,1.624-1.598,2.103-3.717,1.846c1.445,1.458,4.448,1.464,6.504,1.846c2.403,0.447,4.547,1.424,7.434,0.923
				c-0.401,2.063-4.58,0.373-6.504,0.923c0.373,3.363,4.374,3.08,7.434,2.769c-0.033,0.004,0.29-0.889,0.929-0.923
				c2.338-0.123,3.761-0.736,5.575-1.846c7.447,0.903,9.005-0.704,14.867-5.537c2.346-1.936,5.649-4.253,7.433-6.46
				c0.592-0.732,0.464-2.024,0.929-2.769c0.398-0.635,1.477-1.274,1.858-1.846c0.615-0.921,0.221-2.014,0.929-2.769
				c0.316-0.335,1.639-0.573,1.858-0.923c0.594-0.942,0.419-1.896,0.929-2.769c0.926-1.591,2.409-3.928,3.717-6.46
				c0.396-0.762,0.414-1.821,0.929-2.769c0.295-0.544,1.644-1.381,1.858-1.846c0.302-0.651,0.09-3.932,0.929-4.614
				c0.844-0.685,1.441-1.667,1.858-2.769c0.125-0.327-0.252-1.641,0-1.846c0.759-0.616,0.642-0.705,0.929-1.846
				c-0.008,0.034,0.85-2.705,0.929-2.769c1.181-0.959,0.5-1.878,0.929-3.691c1.362-5.748,1.668-21.358,0.929-29.531
				c-0.13-1.433-0.873-1.621-0.929-2.769c-0.279-5.84-0.567-11.912,0-17.534c0.164-1.612,0.991-1.982,0.929-3.691
				c-0.072-1.999-0.728-2.327-0.929-3.691c-0.429-2.925-0.007-4.349-0.929-7.383c-0.85-2.795-0.736-11.403-0.929-16.611
				c-0.163-4.408,1.161-8.778-1.858-11.997c-3.437-0.614-6.375,2.901-8.363,5.537c-0.423,0.561-1.598,1.397-1.858,1.846
				c-0.197,0.338,0.29,1.611,0,1.846c-0.545,0.442-0.953,1.959-1.858,4.614c0.018-0.051-0.837,3.617-0.929,3.691
				c-1.095,0.889-0.688,1.882-0.929,3.691c-0.267,2.016-1.591,5.882-0.929,10.151c-0.274,1.923-2.513-1.37-2.788,1.846
				c-0.918,3.681,2.776,2.779,1.858,6.46c1.771,0.393,1.682,2.636,4.646,1.846c-2.982,2.901-7.385-0.616-6.504-4.614
				c-1.531,0.41-1.531,6.972,0,7.383c-0.23,1.001-1.847,0.626-1.858,1.846c-1.092,4.469-3.78,9.007-2.788,16.611
				c0.476,3.636,3.271,6.621,2.788,10.151c2.536-0.673,1.871,1.833,3.717,1.846v3.691c1.081-0.15,1.653,0.205,1.858,0.923
				c-0.025,0.732-1.138,0.923-1.858,0.923c-2.097,0-1.273-1.766-2.788-1.846c-1.483-0.078-1.613-0.613-2.788-0.923
				c0.288-2.158,1.819-3.812,0-5.537c-1.001-0.499-0.599,1.786-0.929,1.846c-1.788,0.328-3.943-3.94-3.717-6.46
				c-2.812,2.259,0.706,6.006,0,9.228c-2.722-1.297-2.856-5.161-2.788-9.228c-1.594,0.672-2.606,1.961-3.717,3.691
				c-0.614,0.959-0.26,5.202-2.788,6.46c-0.295,2.139,0.149,3.544,0.929,4.614c-3.349,0.25-6.425,0.231-5.575-3.691
				c-3.428,1.422,2.08,6.375-0.929,7.383c-3.533,0.74-1.181-4.364-1.858-6.46c0.176-0.748,0.934-0.919,0.929-1.846
				c0.211-1.329,2.773-0.323,2.788-1.846c0.492-0.743,0.97-1.498,0.929-2.769h-7.434c0.748-2.335,3.825-2.355,5.575-3.691
				c1.66-0.259,1.908,0.871,0.929,0.923c1.171,2.783,5.261-3.1,6.504-4.614c0.996-1.214,2.275-2.082,1.858-5.537
				c0.909-0.943,1.838-1.866,2.788-2.769c0.639-2.481-1.919-1.785-2.788-2.769c0.792-1.368,2.341-1.983,4.646-1.846
				c0.931-1.229,1.532-2.786,2.788-3.691c-0.935-3.668-5.599-0.885-8.363-0.922c0.509-2.879,5.39-1.416,7.434-2.769
				c0.222-2.775,1.587-6.231,0.929-9.228c-0.554-2.525-1.781-2.855-2.788-4.614c0.604-0.939,2.138-0.954,1.858-2.769
				c-1.983,0.431-1.768-1.319-1.858-2.769c-2.468-0.01-5.308,0.348-6.504-0.923c-2.91-1.187-0.479-1.908-1.858-4.614
				c-3.979,0.569-3.788-3.005-7.434-2.769c-0.868-0.676-1.409-1.679-1.858-2.769c-1.901-0.723-2.514,1.07-3.717,0.923
				c-1.114-0.137-0.963-2.912-3.717-1.846c0.379-2.699,3.181-2.995,4.646-4.614c-0.08-1.31-0.153-2.614,0.929-2.769
				c-0.317-8.474,0.809-16.165-0.929-23.071c-0.178-0.712-1.646-4.647-1.858-6.46c-0.428-3.63,0.045-6.88-0.929-10.151
				c-0.34-1.15-0.843-1.812-0.929-2.769c-0.18-2.039,0.867-2.342,0.929-3.691c0.07-1.495-0.718-1.588-0.929-2.769
				c0.052,0.281,1.042-0.366,0.929-0.923c-0.021-0.113-0.87-0.193-0.929-0.923c-0.226-2.722,0.206-6.038,0-9.228
				c-0.097-1.487-0.785-1.571-0.929-2.769c-0.912-7.553,1.108-16.599,0-23.071c-0.484-2.823-2.732-4.583-2.788-8.306
				c-1.75,0.757-2.798-2.96-6.504-1.846c-0.843,0.253-0.522,0.745-0.929,0.923c-0.343,0.15-2.401,0.578-2.788,0.923
				c-0.475,0.424-0.594,2.232-0.929,2.769c-0.269,0.432-1.726,1.487-1.858,1.846c-0.466,1.275,0.146,3.253,0,4.614
				c-0.189,1.783-0.881,3.391-0.929,4.614c-0.079,2.045,0.745,2.31,0.929,3.691c0.372,2.767,0.454,7.846,0,11.997
				c-0.153,1.409-0.873,1.635-0.929,2.769c-0.445,9.361,1.826,20.113,0.929,26.763c-0.393,2.917-2.553,5.4-2.788,9.228
				c-0.176,2.906,0.974,9.194,1.858,12.92c0.965,4.061,0.753,13.895,1.858,18.457c2.032-0.136,1.995-2.326,1.858-4.614
				c1.379,0.784,1.999,2.323,1.858,4.614c0.041,1.578-0.69,2.39-1.858,2.769c-1.009,0.228-0.63,1.835-1.858,1.846
				c-4.207,1.412,0.492-6.026-3.717-4.614v3.691c-0.23,1.001-1.847,0.626-1.858,1.846c-0.95-0.543-1.624-2.3-1.858-3.691
				c0.021,0.128,1.033-1.191,0.929-1.846c-0.01-0.066-0.891-0.21-0.929-0.923c-0.068-1.31,0.762-2.617,0.929-4.614
				c0.191-2.287-0.256-4.812,0-7.383c0.302-3.008,0.586-3.213,0-5.537c-0.361-1.432,0.196-3.146,0-4.614
				c-0.381-2.864-1.867-5.637-1.858-8.306c0.008-2.094,1.451-4.227,1.858-6.46c0.756-4.14,0.947-9.195,0.929-13.843
				c-0.007-2.006-1.269-3.576-0.929-7.383c0.392-4.352,2.529-18.116,0.929-23.994c-0.065-0.244-0.884-0.072-0.929-0.923
				c-0.072-1.387-1.973-2.877-2.788-4.614h-6.504c-7.118,7.158-5.582,19.328-7.433,29.531c-0.107,0.599-0.656,1.169-0.929,1.846
				c-0.132,0.329,0.256,1.637,0,1.846c-0.076,0.062-0.91-0.077-0.929,0c-0.447,1.732-0.583,4.513-0.929,6.46
				c-0.318,1.791-0.822,4.02-0.929,5.537c-0.141,2.02,0.898,2.363,0.929,3.691c0.04,1.659-1,1.94-0.929,3.691
				c0.067,1.637,1.051,3.116,0.929,4.614c-0.137,1.698-1.503,3.076-1.858,4.614c-0.94,4.081,0.307,8.541,0,12.92
				c-0.138,1.983-1.771,3.824-0.929,7.383c0.175,0.736,0.954,0.928,0.929,1.846c-0.022,0.898-0.988,2.006-0.929,3.691
				c0.059,1.672,0.729,3.779,0.929,5.537c0.144,1.261-2.214,3.652,0.929,3.691c3.536,0.687,0.997-3.423,0.929-4.614
				c-0.097-1.72,0.098-3.965,0-5.537c-0.121-1.95-0.846-3.658-0.929-5.537c0.006,0.086,1.072-0.215,0.929-0.923
				c-0.032-0.16-0.91-0.121-0.929-0.923c-0.029-1.311-0.19-2.613,0.929-2.769c1.308,0.955,0.488,4.273,0.929,9.228
				c0.167,1.856,0.846,2.457,0.929,3.691c0.112,1.657-1.07,1.94-0.929,3.691c-0.024-0.306,0.855,0.625,0.929,0.923
				c0.146,0.579-0.111,1.258,0,1.846c3.37-0.653,1.282-6.727,1.858-10.151c1.811,1.585,2.003,4.778,1.858,8.306
				c3.304,1.435,0.561-3.135,2.788-2.769c4.061,3.606-1.293,4.48-1.858,8.306c-2.66-0.183-5.071-0.115-4.646,2.769
				c-5.871-1.525-5.741,2.911-10.221,2.769c-0.368,0.507,0.461,2.366,0,2.769c-0.25,0.218-1.708-0.269-1.858,0
				c-0.889,1.594-0.227,4.951-2.788,5.537c-2.457-0.329-0.839-4.703-2.788-5.537c0.807-0.615,0.544-2.7,1.858-2.769
				c1.572-0.082,1.077-1.77,2.788-2.769c0.218-4.257,0.327-8.233,0.929-11.997c-0.002,0.011,2.869-10.073,0.929-11.997
				c-1.208-1.201,0.251-0.147,0-3.691c-0.297-4.229-1.363-8.528-1.858-12.92c-1.755,0.102-0.644,3.051-2.788,2.769
				c-1.26-4.022,2.215-3.34,2.788-5.537c-2.106-10.529,6.423-22.29-1.858-27.685c-4.4-0.559-6.289,5.074-8.363,8.306
				c-0.623,0.971-0.873,3.223-1.858,6.46c-0.443,1.454-1.615,3.369-1.858,4.614c-0.974,4.989-0.312,10.731-0.929,15.688
				c-0.244,1.967-1.455,3.455-1.858,5.537c-0.269,1.402,0.232,3.761,0,5.537c-0.02,0.156-2.613,6.937-0.929,8.306
				c0.071,0.056,1.57,1.325,0.929,1.846c-1.064,0.865-0.079,0.459,0,1.846c0.452,7.914-0.61,14.915,1.858,19.38
				c1.635-0.222,2.119-1.588,1.858-3.691c1.024-0.854,1.748,4.725,0.929,5.537c-0.199,0.197-1.762-0.233-1.858,0
				c-0.408,0.993,0.538,2.772,0,3.691c-0.905,1.547-2.173,1.68-2.788,2.769c0.363,2.889-0.072,6.048-0.929,8.305
				c-0.124,0.327,0.252,1.641,0,1.846c-1.094,0.889-0.688,1.882-0.929,3.691c-0.455,3.43-1.279,11.525-1.858,16.611
				c-0.219,1.944-0.47,5.279-0.929,9.228c-0.425,3.659-1.424,12.064-0.929,18.457c0.262,3.374,2.212,11.35,2.788,15.688
				c0.406,3.047,1.129,5.787,1.858,9.228c0.501,2.359,0.409,4.762,0.929,6.46c0.09,0.288,0.883,0.036,0.929,0.923
				c0.022,0.424,0.661,1.961,0.929,2.769c0.363,1.089,1.787,3.252,1.858,4.614c0.063,1.199,1.463,1.148,1.858,1.846
				c0.623,1.094,0.16,2.689,0.929,3.691c1.214,1.577,3.287,2.639,4.646,3.691c1.605,1.24,2.551,2.791,4.646,2.769
				c-0.409-2.211-2.211-2.693-3.717-4.614c-1.237-1.581-1.651-2.901-2.788-4.614c-0.515-0.779-1.336-0.809-1.858-1.846
				c-0.545-1.083-0.459-1.804-0.929-2.769c-0.407-0.835-3.145-1.897-1.858-5.537c1.646,0.768,1.221,3.273,1.858,4.614
				c0.207,0.434,1.688,0.566,1.858,0.923c0.335,0.701-0.425,2.128,0,2.769c0.569,0.856,2.69,0.914,2.788,2.769
				c0.065,1.227,2.661,1.597,3.717,2.769c1.23,1.364,1.929,2.81,2.788,4.614c1.838,0.639,3.074,1.736,4.646,2.769
				c0.562,0.368,1.342,1.56,1.858,1.846c0.762,0.42,1.91-0.252,1.858,0.923c-0.442,2.008-1.485-0.865-1.858-0.923
				c-1.445-0.227-1.729,1.19-2.788,0.923c-2.303-0.582-4.54-2.71-7.433-2.769c0.384,2.317,3.218,2.042,4.646,2.769
				c4.022,2.042,9.559,5.4,13.009,9.228c-1.306-0.694-3.103-0.277-4.646-0.923c-0.448-0.189-0.566-1.674-0.929-1.846
				c-0.753-0.354-2.046,0.375-2.788,0c-0.471-0.24,0.108-0.867-0.929-0.923c-1.53-0.079-3.668-1.743-4.646-3.691
				c-2.359,1.812,2.061,4.133,3.717,5.537c2.022,1.712,5.007,2.417,5.575,4.614c4.134-0.106,7.26,0.788,6.504,5.537
				c-3.689,0.088-5.066-3.292-7.433-5.537c-0.321-0.305-1.544,0.31-1.858,0c-0.295-0.293,0.315-1.577,0-1.846
				c-0.315-0.269-1.602,0.31-1.858,0c-1.77-2.148-4.78-4.604-7.434-7.383c-0.669-0.054-1.332,1.945-0.929,2.769
				c0.452,0.921,2.229,0.234,2.788,0.923c0.583,0.715,0.311,1.967,0.929,2.769c0.419,0.543,2.645,0.043,1.858,1.846
				c4.35,0.909,7.25,3.258,9.292,6.46c-1.831-1.082-3.873-1.663-5.575-2.769c-2.813-1.828-4.512-4.028-7.434-6.46
				C25.084,256.005,24.177,255.54,23.858,254.686z M89.83,94.11c1.992,1.056,0.591,3.036,0.929,4.614
				c0.135,0.625,0.647,1.144,0.929,1.846c0.134,0.329-0.255,1.637,0,1.846c1.085,0.88,2.686,4.764,2.788,8.306
				c0.904,0.025,0.72,1.129,0.929,1.846c2.005,1.884,5.853,1.933,3.717,5.537c2.965,0.79,2.875-1.453,4.646-1.846
				c1.243,0.92,1.825,2.494,3.717,2.769c0.213,1.635-0.937,4.622,1.858,3.691c-0.232-9.916,0.703-19.43-0.929-27.685
				c-0.846-4.279-0.878-13.431-2.788-18.457c-0.124-0.326,0.252-1.642,0-1.846c-1.181-0.96-0.498-1.879-0.929-3.691
				c-0.183-0.774-0.82-0.912-0.929-1.846c-0.368-3.14,0.281-9.322,0-13.843c-0.323-5.212-1.276-13.625-2.788-20.303
				c-1.673-7.394-4.481-14.622-8.363-14.766c-2.224-0.083-3.592,1.129-4.646,2.769c-3.248,5.062-3.573,25.925-2.788,35.068
				c0.353,4.097,1.541,5.191,0.929,10.151c-0.2,1.614-0.907,1.977-0.929,3.691c-0.02,1.631,0.744,2.866,0.929,4.614
				c0.32,2.979,0.251,5.448,0.929,8.306c0.437,1.834-0.091,1.755,0.929,2.769c0.094,0.092-0.012,0.783,0,0.923
				c0.581,6.515-2.076,13.697,2.788,17.534c1.184-0.209,1.218-2.755,0-2.769c-0.076-1.462,0.446-3.52-0.929-3.691V94.11z"/>
			<path style="fill:#CF9E76;" d="M25.716,256.532c2.921,2.432,4.621,4.632,7.434,6.46c1.702,1.106,3.744,1.687,5.575,2.769
				c-2.041-3.202-4.942-5.551-9.292-6.46c0.787-1.802-1.439-1.303-1.858-1.846c-0.618-0.802-0.347-2.053-0.929-2.769
				c-0.558-0.688-2.336-0.002-2.788-0.923c-0.402-0.823,0.26-2.823,0.929-2.769c2.654,2.779,5.663,5.234,7.434,7.383
				c0.256,0.31,1.543-0.27,1.858,0c0.315,0.27-0.295,1.552,0,1.846c0.314,0.31,1.538-0.305,1.858,0
				c2.368,2.245,3.745,5.625,7.433,5.537c0.755-4.749-2.37-5.643-6.504-5.537c-0.568-2.197-3.553-2.902-5.575-4.614
				c-1.656-1.405-6.076-3.726-3.717-5.537c0.978,1.948,3.116,3.612,4.646,3.691c1.037,0.055,0.458,0.683,0.929,0.923
				c0.741,0.375,2.035-0.354,2.788,0c0.363,0.172,0.481,1.657,0.929,1.846c1.543,0.646,3.34,0.229,4.646,0.923
				c-3.449-3.829-8.986-7.186-13.009-9.228c-1.428-0.726-4.262-0.451-4.646-2.769c2.893,0.058,5.131,2.186,7.433,2.769
				c1.058,0.267,1.343-1.15,2.788-0.923c0.374,0.058,1.416,2.931,1.858,0.923c0.052-1.175-1.096-0.503-1.858-0.923
				c-0.517-0.286-1.296-1.477-1.858-1.846c-1.572-1.033-2.808-2.13-4.646-2.769c-0.859-1.804-1.557-3.25-2.788-4.614
				c-1.056-1.171-3.652-1.541-3.717-2.769c-0.098-1.855-2.219-1.912-2.788-2.769c-0.425-0.64,0.335-2.067,0-2.769
				c-0.17-0.357-1.651-0.489-1.858-0.923c-0.637-1.341-0.213-3.846-1.858-4.614c-1.287,3.64,1.451,4.702,1.858,5.537
				c0.47,0.964,0.384,1.685,0.929,2.769c0.522,1.036,1.344,1.067,1.858,1.846c1.136,1.713,1.551,3.033,2.788,4.614
				c1.505,1.921,3.308,2.403,3.717,4.614c-2.095,0.022-3.041-1.528-4.646-2.769c-1.359-1.052-3.431-2.114-4.646-3.691
				c-0.769-1.002-0.307-2.598-0.929-3.691c-0.396-0.698-1.795-0.647-1.858-1.846c-0.072-1.362-1.495-3.525-1.858-4.614
				c-0.269-0.807-0.907-2.345-0.929-2.769c-0.046-0.887-0.839-0.635-0.929-0.923c-0.52-1.698-0.428-4.101-0.929-6.46
				c-0.729-3.441-1.452-6.181-1.858-9.228c-0.575-4.338-2.526-12.314-2.788-15.688c-0.494-6.393,0.505-14.798,0.929-18.457
				c0.459-3.95,0.71-7.285,0.929-9.228c0.579-5.086,1.403-13.181,1.858-16.611c0.242-1.81-0.164-2.803,0.929-3.691
				c0.252-0.206-0.124-1.519,0-1.846c0.858-2.256,1.292-5.415,0.929-8.305c0.614-1.089,1.883-1.222,2.788-2.769
				c0.538-0.919-0.408-2.698,0-3.691c0.097-0.233,1.66,0.197,1.858,0c0.819-0.812,0.095-6.391-0.929-5.537
				c0.26,2.103-0.223,3.469-1.858,3.691c-2.468-4.465-1.407-11.465-1.858-19.38c-0.079-1.387-1.064-0.981,0-1.846
				c0.641-0.52-0.859-1.789-0.929-1.846c-1.684-1.369,0.91-8.15,0.929-8.306c0.232-1.776-0.269-4.135,0-5.537
				c0.403-2.082,1.614-3.571,1.858-5.537c0.617-4.958-0.045-10.7,0.929-15.688c0.243-1.245,1.415-3.16,1.858-4.614
				c0.986-3.237,1.235-5.489,1.858-6.46c2.074-3.232,3.963-8.865,8.363-8.306c8.282,5.396-0.247,17.157,1.858,27.685
				c-0.572,2.197-4.048,1.515-2.788,5.537c2.144,0.282,1.032-2.666,2.788-2.769c0.495,4.392,1.561,8.69,1.858,12.92
				c0.251,3.545-1.208,2.491,0,3.691c1.94,1.924-0.931,12.008-0.929,11.997c-0.602,3.764-0.711,7.74-0.929,11.997
				c-1.711,0.999-1.215,2.686-2.788,2.769c-1.315,0.068-1.052,2.154-1.858,2.769c1.949,0.834,0.331,5.209,2.788,5.537
				c2.561-0.586,1.898-3.943,2.788-5.537c0.151-0.269,1.608,0.218,1.858,0c0.461-0.402-0.368-2.262,0-2.769
				c4.48,0.142,4.35-4.293,10.221-2.769c-0.425-2.884,1.986-2.951,4.646-2.769c0.565-3.825,5.919-4.7,1.858-8.306
				c-2.226-0.366,0.517,4.204-2.788,2.769c0.145-3.528-0.047-6.72-1.858-8.306c-0.576,3.425,1.512,9.498-1.858,10.151
				c-0.111-0.588,0.146-1.267,0-1.846c-0.074-0.298-0.953-1.229-0.929-0.923c-0.141-1.752,1.042-2.035,0.929-3.691
				c-0.083-1.235-0.762-1.836-0.929-3.691c-0.441-4.956,0.379-8.273-0.929-9.228c-1.12,0.156-0.958,1.457-0.929,2.769
				c0.02,0.802,0.898,0.763,0.929,0.923c0.143,0.708-0.924,1.009-0.929,0.923c0.083,1.879,0.808,3.587,0.929,5.537
				c0.098,1.572-0.097,3.817,0,5.537c0.068,1.191,2.607,5.301-0.929,4.614c-3.143-0.04-0.785-2.431-0.929-3.691
				c-0.2-1.758-0.87-3.865-0.929-5.537c-0.059-1.685,0.907-2.793,0.929-3.691c0.025-0.917-0.755-1.109-0.929-1.846
				c-0.842-3.559,0.792-5.4,0.929-7.383c0.307-4.379-0.94-8.839,0-12.92c0.355-1.538,1.722-2.916,1.858-4.614
				c0.122-1.499-0.862-2.977-0.929-4.614c-0.071-1.752,0.969-2.032,0.929-3.691c-0.032-1.328-1.07-1.671-0.929-3.691
				c0.107-1.517,0.611-3.746,0.929-5.537c0.347-1.947,0.482-4.728,0.929-6.46c0.02-0.077,0.853,0.062,0.929,0
				c0.256-0.209-0.132-1.517,0-1.846c0.273-0.676,0.822-1.247,0.929-1.846c1.852-10.203,0.316-22.374,7.433-29.531h6.504
				c0.815,1.738,2.716,3.227,2.788,4.614c0.046,0.851,0.864,0.679,0.929,0.923c1.6,5.879-0.537,19.642-0.929,23.994
				c-0.34,3.807,0.923,5.377,0.929,7.383c0.018,4.647-0.173,9.703-0.929,13.843c-0.407,2.233-1.85,4.366-1.858,6.46
				c-0.008,2.669,1.477,5.442,1.858,8.306c0.196,1.468-0.361,3.182,0,4.614c0.586,2.324,0.302,2.529,0,5.537
				c-0.256,2.571,0.191,5.096,0,7.383c-0.167,1.997-0.997,3.305-0.929,4.614c0.038,0.712,0.919,0.857,0.929,0.923
				c0.104,0.654-0.908,1.974-0.929,1.846c0.234,1.392,0.909,3.149,1.858,3.691c0.011-1.22,1.629-0.844,1.858-1.846v-3.691
				c4.209-1.412-0.491,6.026,3.717,4.614c1.228-0.011,0.849-1.618,1.858-1.846c1.169-0.378,1.9-1.19,1.858-2.769
				c0.139-2.291-0.48-3.83-1.858-4.614c0.137,2.289,0.174,4.479-1.858,4.614c-1.106-4.562-0.893-14.396-1.858-18.457
				c-0.885-3.726-2.034-10.014-1.858-12.92c0.234-3.829,2.395-6.311,2.788-9.228c0.897-6.649-1.374-17.401-0.929-26.763
				c0.056-1.133,0.776-1.359,0.929-2.769c0.454-4.151,0.372-9.23,0-11.997c-0.184-1.382-1.008-1.646-0.929-3.691
				c0.048-1.223,0.741-2.831,0.929-4.614c0.146-1.361-0.466-3.339,0-4.614c0.133-0.359,1.589-1.414,1.858-1.846
				c0.335-0.536,0.454-2.345,0.929-2.769c0.387-0.345,2.446-0.773,2.788-0.923c0.407-0.178,0.086-0.67,0.929-0.923
				c3.707-1.114,4.755,2.602,6.504,1.846c0.056,3.723,2.303,5.483,2.788,8.306c1.108,6.472-0.912,15.519,0,23.071
				c0.144,1.198,0.833,1.282,0.929,2.769c0.206,3.19-0.226,6.506,0,9.228c0.059,0.73,0.908,0.81,0.929,0.923
				c0.112,0.556-0.877,1.204-0.929,0.923c0.211,1.18,0.999,1.274,0.929,2.769c-0.062,1.349-1.109,1.652-0.929,3.691
				c0.086,0.956,0.589,1.619,0.929,2.769c0.974,3.271,0.501,6.522,0.929,10.151c0.213,1.813,1.68,5.748,1.858,6.46
				c1.739,6.907,0.612,14.598,0.929,23.071c-1.083,0.155-1.009,1.459-0.929,2.769c-1.465,1.62-4.267,1.915-4.646,4.614
				c2.754-1.066,2.603,1.709,3.717,1.846c1.202,0.147,1.816-1.645,3.717-0.923c0.45,1.09,0.991,2.092,1.858,2.769
				c3.645-0.236,3.455,3.338,7.434,2.769c1.379,2.706-1.052,3.427,1.858,4.614c1.197,1.271,4.036,0.913,6.504,0.923
				c0.09,1.45-0.125,3.2,1.858,2.769c0.28,1.814-1.254,1.83-1.858,2.769c1.006,1.759,2.234,2.089,2.788,4.614
				c0.658,2.997-0.707,6.453-0.929,9.228c-2.043,1.353-6.924-0.111-7.434,2.769c2.763,0.037,7.428-2.746,8.363,0.922
				c-1.255,0.906-1.857,2.462-2.788,3.691c-2.305-0.138-3.854,0.478-4.646,1.846c0.869,0.984,3.427,0.288,2.788,2.769
				c-0.95,0.903-1.879,1.825-2.788,2.769c0.416,3.455-0.862,4.324-1.858,5.537c-1.243,1.514-5.334,7.398-6.504,4.614
				c0.978-0.052,0.731-1.182-0.929-0.923c-1.75,1.336-4.827,1.357-5.575,3.691h7.434c0.041,1.271-0.438,2.026-0.929,2.769
				c-0.015,1.523-2.577,0.517-2.788,1.846c0.005,0.927-0.754,1.097-0.929,1.846c0.677,2.096-1.674,7.2,1.858,6.46
				c3.009-1.008-2.499-5.961,0.929-7.383c-0.85,3.922,2.226,3.941,5.575,3.691c-0.781-1.071-1.225-2.475-0.929-4.614
				c2.527-1.258,2.173-5.501,2.788-6.46c1.11-1.73,2.123-3.02,3.717-3.691c-0.069,4.068,0.066,7.932,2.788,9.228
				c0.706-3.223-2.812-6.969,0-9.228c-0.226,2.52,1.929,6.788,3.717,6.46c0.33-0.06-0.072-2.345,0.929-1.846
				c1.819,1.725,0.288,3.379,0,5.537c1.174,0.31,1.305,0.845,2.788,0.923c1.515,0.079,0.69,1.846,2.788,1.846
				c0.72,0,1.833-0.191,1.858-0.923c-0.205-0.718-0.778-1.072-1.858-0.923v-3.691c-1.845-0.013-1.181-2.518-3.717-1.846
				c0.483-3.531-2.312-6.515-2.788-10.151c-0.992-7.602,1.696-12.14,2.788-16.611c0.011-1.22,1.629-0.844,1.858-1.846
				c-1.531-0.411-1.531-6.973,0-7.383c-0.881,3.998,3.523,7.515,6.504,4.614c-2.964,0.79-2.875-1.453-4.646-1.846
				c0.918-3.681-2.776-2.779-1.858-6.46c0.274-3.215,2.513,0.078,2.788-1.846c-0.662-4.269,0.663-8.135,0.929-10.151
				c0.242-1.81-0.165-2.803,0.929-3.691c0.092-0.075,0.947-3.742,0.929-3.691c0.905-2.655,1.313-4.172,1.858-4.614
				c0.29-0.234-0.197-1.508,0-1.846c0.26-0.449,1.436-1.285,1.858-1.846c1.988-2.636,4.926-6.151,8.363-5.537
				c3.019,3.219,1.696,7.589,1.858,11.997c0.193,5.209,0.079,13.816,0.929,16.611c0.923,3.033,0.5,4.457,0.929,7.383
				c0.201,1.364,0.858,1.693,0.929,3.691c0.061,1.709-0.765,2.079-0.929,3.691c-0.567,5.621-0.279,11.693,0,17.534
				c0.056,1.148,0.799,1.335,0.929,2.769c0.739,8.173,0.433,23.783-0.929,29.531c-0.429,1.813,0.252,2.733-0.929,3.691
				c-0.079,0.064-0.938,2.803-0.929,2.769c-0.287,1.141-0.17,1.229-0.929,1.846c-0.252,0.205,0.125,1.519,0,1.846
				c-0.417,1.102-1.015,2.084-1.858,2.769c-0.839,0.682-0.627,3.964-0.929,4.614c-0.215,0.465-1.564,1.301-1.858,1.846
				c-0.515,0.948-0.533,2.006-0.929,2.769c-1.307,2.532-2.79,4.869-3.717,6.46c-0.51,0.873-0.335,1.826-0.929,2.769
				c-0.219,0.35-1.542,0.588-1.858,0.923c-0.708,0.755-0.314,1.848-0.929,2.769c-0.381,0.571-1.461,1.211-1.858,1.846
				c-0.466,0.745-0.337,2.037-0.929,2.769c-1.785,2.207-5.087,4.524-7.433,6.46c-5.862,4.833-7.42,6.441-14.867,5.537
				c-1.814,1.11-3.237,1.723-5.575,1.846c-0.639,0.034-0.963,0.927-0.929,0.923c-3.06,0.312-7.061,0.594-7.434-2.769
				c1.924-0.55,6.103,1.14,6.504-0.923c-2.886,0.501-5.031-0.476-7.434-0.923c-2.056-0.382-5.058-0.388-6.504-1.846
				c2.119,0.257,3.493-0.221,3.717-1.846h-6.504c-0.525-0.855-3.48-2.756-3.717-2.769c-1.585-0.083-2.303-3.343-2.788-0.923
				c-0.34,3.413,2.499,2.648,3.717,3.691c1.202,1.029,2.545,2.868,3.717,3.691c1.945,1.365,3.987,2.129,6.504,1.846
				c-0.561,4.249,4.814,2.602,5.575,5.537c-6.118,0.768-7.867-5.355-13.009-2.769c-0.205-0.72-0.778-1.072-1.858-0.923
				c0.118-1.626-1.04-2.08-1.858-2.769c-0.524-0.442-3.096-2.903-2.788-0.923c0.685,2.089,3.542,2.019,3.717,4.614
				c-2.724,1.06-3.451-4.427-4.646-1.846c1.745,1.651,3.497,3.295,5.575,4.614c2.239,0.378,2.021-1.685,4.646-0.923
				c1.394,1.076,2.272,2.666,4.646,2.769c2.258-0.378,2.921-1.086,4.646-0.923c1.318,0.125,1.592,1.532,2.788,1.846
				c1.45,0.38,3.174-0.288,4.646,0c2.682-0.159,5.515-4.91,7.434-2.769c-3.542,1.595,3.619-0.07,2.788,1.846
				c-2.008,0.773-3.169,2.39-6.504,1.846c0.204,1.159,1.448,1.885-0.929,1.846c-0.053-0.562-0.138-1.094-0.929-0.923
				c0,0.921,0.002,1.846,0,2.769c1.48-1.937,4.627-1.023,6.504-1.846c0.416-0.182,1.219-1.478,1.858-1.846
				c0.911-0.523,1.499-0.821,2.788-0.923c0.777,2.98-2.244,2.23-2.788,2.769c-0.289,0.287,0.315,1.597,0,1.846
				c-1.531,1.217-5.854,0.541-5.575,3.691c2.81,1.065,5.362-5.234,5.575-0.923c0.257,4.694-0.743,10.676,0.929,11.997
				c2.657,2.098,0.51,8.59,0,11.997c-7.702,6.249-22.191,4.614-37.168,4.614c-11.652-0.002-22.771,0.609-28.805-0.923
				c-2.819-0.715-4.323-1.454-4.646-1.846c-0.221-0.27-1.521,0.159-1.858,0c-0.114-0.055,0.091-0.817,0-0.923
				c-0.256-0.312-1.546,0.272-1.858,0c-1.204-1.056-1.594-3.434-1.858-4.614c4.746,0.515,6.958,3.549,10.221,5.537
				c1.629-0.254,4.637,2.598,5.575,0c-2.144-0.86-4.515-2.506-5.575-2.769c-0.546-0.135-1.343,0.218-1.858,0
				c-0.428-0.182-1.363-1.549-1.858-1.846c-0.136-0.081,0.106-0.794,0-0.923c-0.219-0.267-1.522,0.153-1.858,0
				c-1.124-0.517-1.036-1.26-1.858-1.846c-0.935-0.667-2.065-0.102-2.788-0.923c-0.615-0.701,0.066-2.464-0.929-2.769
				c1.984-0.209,3.115,1.86,4.646,2.769c0.922,0.546,2.024,0.474,2.788,0.923c0.241,0.14,0.491,0.644,0.929,0.923
				c0.645,0.408,1.246,0.575,1.858,0.923c0.539,0.306,1.233,1.526,1.858,1.846c1.306,0.664,2.388,0.388,3.717,0.923
				c0.633,0.252,0.826,1.567,1.858,1.846c1.256,0.337,3.533-0.045,3.717-0.923c-2.439-2.138-5.424-1.694-7.433-2.769
				c-0.522-0.28-1.248-1.543-1.858-1.846c-1.078-0.539-1.939-0.4-2.788-0.923c-0.56-0.346-1.219-1.492-1.858-1.846
				c-0.882-0.489-2.078-0.596-2.788-0.923c-0.541-0.25-1.174-1.634-2.788-0.923c1.002-2.359-4-3.232-0.929-4.614
				c0.443,1.828,2.577,1.112,3.717,1.846c1.08,0.694,1.534,3.585,3.717,2.769c-0.571-0.796-1.067-2.246-1.858-2.769
				c-0.986-0.652-2.933-0.106-3.717-0.923c-0.29-0.303,0.179-1.451,0-1.846c-0.374-0.827-4.675-3.619-1.858-4.614
				c0.212,0.755,1.013,1.8,1.858,1.846c0.952,0.051,2.083,1.333,2.788,1.846c0.594,0.431,1.226,1.39,1.858,1.846
				c2.233,1.609,5.019,3.857,7.434,4.614c2.149,0.674,5.809,1.728,6.504,0c-3.357-0.535-6.929-1.863-8.363-2.769
				c-2.007-1.271-2.565-1.37-3.717-2.769c-0.252-0.306-1.528,0.245-1.858,0c-0.636-0.469-1.903-1.891-2.788-2.769
				c-2.151-2.136-4.141-4.557-2.788-5.537C24.177,255.54,25.084,256.005,25.716,256.532z M76.822,33.202
				c-1.579-0.34-1.753,0.72-1.858,1.846c0.792-0.17,0.876,0.36,0.929,0.923C76.981,35.822,76.676,34.289,76.822,33.202z
				 M67.53,53.505c-0.354-1.757-1.181,0.589-0.929,1.846C66.954,57.107,67.782,54.761,67.53,53.505z M65.671,55.351
				c-2.709-1.357-2.709,4.125,0,2.769V55.351z M43.371,71.962c-0.353-1.757-1.181,0.589-0.929,1.846
				C42.795,75.564,43.624,73.218,43.371,71.962z M65.671,89.496c-0.603-2.602-1.078,2.125-0.929,2.769
				C65.172,94.118,66.488,93.009,65.671,89.496z M73.105,102.416c-0.904,0.025-0.719,1.129-0.929,1.846
				c-0.602,0.939-2.136,0.954-1.858,2.769C73.579,106.622,74.258,105.085,73.105,102.416z M52.663,105.185
				c-3.357-0.875-1.296,3.634-1.858,5.537C54.162,111.596,52.101,107.087,52.663,105.185z M13.637,110.722
				c-3.348-0.884-1.647,3.983-0.929,4.614c-0.407,1.828,0.368,8.498,0.929,3.691V110.722z M71.246,130.102
				c-1.944-0.934-1.278,1.495-1.858,1.846c-1.203,0.726-3.168,0.066-4.646,0.923c1.688,1.913,8.468,1.08,8.363-1.846
				C72.025,131.175,71.452,130.82,71.246,130.102z M55.45,132.87c0.014,0.932,1.153,0.672,1.858,0.923
				c2.303,0.817,6.376,2.757,5.575,0C59.892,133.996,58.952,132.16,55.45,132.87z M56.379,136.561
				c-0.015-1.409-6.885-2.024-5.575,0.923C52.993,137.505,53.54,135.894,56.379,136.561z M118.635,137.484
				c-2.952,0.774,1.649,1.217,2.788,0.923c2.622,0.094,3.946,3.476,6.504,0.923c0.178-1.716-2.941-0.154-3.717-0.923
				c-0.062-0.063,0.067-0.911,0-0.923C122.506,137.189,120.614,137.699,118.635,137.484z M49.875,139.33
				c-1.528-2.631-5.041,0.442-6.504,0.923C44.666,142.651,48.18,139.579,49.875,139.33z M88.901,142.098
				c-1.584-3.149-2.576,1.133-1.858,1.846C87.432,144.329,88.146,141.636,88.901,142.098z M74.034,144.867
				c-1.835,1.587-2.815,3.996-4.646,5.537c-0.317,0.267-1.602-0.312-1.858,0c-0.737,0.895-0.885,1.152-1.858,1.846
				c-0.992,0.707-2,2.318-2.788,2.769c-0.679,0.391-2.134-0.429-2.788,0c-0.861,0.564-0.92,2.672-2.788,2.769
				c-1.255,0.065-2.377,1.869-3.717,2.769c-2.465-0.979-5.285-0.692-5.575,2.769h-5.575c0.94,4.317-3.727,3.066-2.788,7.383
				c1.594-1.186,3.654-1.908,3.717-4.614c2.591,1.058,2.736-1.191,3.717-1.846c0.886-0.592,2.442-0.702,2.788-1.846
				c0.749,0.486,1.509,0.963,2.788,0.923c2.589-3.582,8.939-3.428,10.221-8.306c1.598,0.503,4.504-1.481,6.504-2.769
				c0.517-0.331-0.143-0.866,0.929-0.923c0.275-0.015,1.618-1.596,1.858-1.846C72.819,148.813,74.29,147.592,74.034,144.867z
				 M81.467,147.636c1.43-0.487,0.059-0.963-0.929-0.923c-1.867,2.956-5.098,1.341-7.433,2.769c-0.287,0.174,0.238,1.583,0,1.846
				c-0.482,0.532-1.22,0.519-1.858,0.923c-1.686,1.067-3.179,2.914-4.646,5.537c-0.271,0.485-0.873-0.123-0.929,0.923
				c-0.007,0.144-2.065,3.526-1.858,3.691c0.822,0.652,1.06,1.558-1.858,1.846c0.611,2.763,1.988-0.883,3.717,0
				c-0.261-2.412,0.339-3.97,2.788-3.691c0.965-3.349,2.758-5.874,4.646-8.306h3.717C75.672,148.221,80.035,149.992,81.467,147.636z
				 M35.008,148.559c-0.39-2.055-4.93-0.723-5.575,0C30.371,151.156,33.379,148.303,35.008,148.559z M26.645,152.25
				c-1.5-0.259-1.599,0.871-2.788,0.923C23.489,154.963,28.09,154.52,26.645,152.25z M21.07,158.71
				c-1.5-0.259-1.599,0.871-2.788,0.923C17.914,161.423,22.515,160.98,21.07,158.71z M75.892,166.093
				c2.678,2.385-3.413,5.282-2.788,9.228c3.058-1.577,3.399-5.855,5.575-8.306c2.072,0.135-1.206,2.326,0,4.614
				c0.792,0.171,0.876-0.361,0.929-0.923c-0.436-2.893,2.337-2.601,3.717-3.691c-0.978-1.481-6.184-0.982-1.858-2.769
				c-1.384-3.041-2.622,1.57-3.717,1.846c-1.38,0.036-1.343-5.481-1.858-0.923c-0.025,0.898-1.138,0.715-1.858,0.923
				c-0.597,0.788-0.192,3.094-0.929,3.691c-0.126,0.102-0.852-0.133-0.929,0c-0.196,0.338,0.29,1.609,0,1.846
				c-0.175,0.142-1.799,0.782-1.858,0.923c-1.253,2.988-0.147,6.975-2.788,9.228c0.991,0.861,0.29,3.403,2.788,2.769
				c0.52-3.351,0.174-6.537,0.929-9.228c0.077-0.276,0.617-2.355,0.929-2.769c0.263-0.348,1.688-0.596,1.858-0.923
				C75.002,169.765,74.218,167.515,75.892,166.093z M14.566,163.324c-1.008,0.229-0.63,1.835-1.858,1.846
				C13.107,167.722,15.63,165.216,14.566,163.324z M71.246,167.015c-0.868,0.675-1.408,1.677-1.858,2.769
				C69.787,172.102,71.39,168.247,71.246,167.015z M61.955,169.784c-0.377-2.298-3.602-0.055-2.788,1.846
				C60.387,171.303,60.629,170.005,61.955,169.784z M37.796,168.861c-1.247,0.605-1.729,1.972-1.858,3.691
				C37.572,172.328,38.056,170.964,37.796,168.861z M69.388,172.553c-2.05-3.149-2.104,3.362-2.788,4.614
				c-2.616-0.933,0.256-3.92,0-5.537c-1.634,0.221-2.117,1.587-1.858,3.691c0.056,1.144-1.424,1.229-1.858,1.846
				c-0.233,0.332,0.304,1.597,0,1.846c-1.083,0.881-0.261,1.369-0.929,2.769c-0.167,0.352-1.763,0.656-1.858,0.923
				c-0.285,0.804,0.337,1.986,0,2.769c-0.162,0.375-0.781,0.038-0.929,0.923c0.046-0.269,1.044,0.355,0.929,0.923
				c-0.021,0.115-0.872,0.187-0.929,0.923c-0.344,4.387-0.897,11.235,0,16.611c0.293,1.752-0.269,2.963,1.858,2.769
				c0.264-4.539-1.009-9.01,0-12.92c0.219-0.849,0.983-0.755,1.858-0.923c-0.496-3.57,1.659-4.504,0.929-8.306
				c0.545-0.378,1.171,1.634,0.929,1.846c2.211-1.942,3.051-9.683,3.717-13.843C68.289,172.69,68.821,172.603,69.388,172.553z
				 M60.096,175.321c-0.927-2.087-3.854,0.798-4.646,1.846c-0.247,0.327,0.308,1.596,0,1.846c-1.249,1.016-1.096,4.748-2.788,7.383
				c-0.667,1.04-0.907,4.519-1.858,7.383c-0.431,1.297-1.702,2.909-1.858,3.691c-0.393,1.984,1.086,2.457,0.929,3.691
				c-0.332,2.638-2.67,4.787-1.858,10.151c0.211,1.379,0.835,1.647,0.929,2.769c0.207,2.462-0.363,5.613,0,7.383
				c0.03,0.143,0.888,0.15,0.929,0.923c0.079,1.474,0.618,1.601,0.929,2.769c2.723-1.942-0.597-4.061-0.929-6.46
				c-0.429-3.101,1.671-7.003-0.929-9.228c0.996-2.395,0.591-6.18,2.788-7.383c-0.677-3.672-0.677-3.711,0-7.383
				c0.953-0.458,0.368-1.87,0.929-2.769c0.518-0.826,1.629-0.762,1.858-1.846c-0.076-1.462,0.447-3.519-0.929-3.691
				c0.882-1.894,1.153-4.393,3.717-4.614C56.867,178.266,57.704,176.018,60.096,175.321z M28.504,179.935 M56.379,199.315
				c-3.909,2.576-2.584,10.352-2.788,16.611c2.933-0.068,1.012-2.752,1.858-5.537c0.306-1.002,0.649-3.763,0-6.46
				C55.069,201.704,57.147,201.923,56.379,199.315z M57.309,222.386c-3.374,1.513,1.136,2.262,1.858,2.769
				c1.5,1.052,1.699,2.965,3.717,1.846C62.97,223.531,58.229,224.856,57.309,222.386z M56.379,236.229
				c0.274-2.195,2.514,1.025,2.788,1.846c1.857,0.59,0.045-2.717-0.929-2.769c-1.647-0.087-1.234-3.634-3.717-3.691
				c0.445-2.903-1.323-3.608-1.858-5.537c-2.12,0.21-0.639,3.663,0,4.614c0.754,1.125-0.099,2.168,0.929,4.614
				c0.183,0.436,1.701,0.575,1.858,0.923c1.083,2.385,2.839,8.942,7.434,8.306c-0.754-0.649-1.606-1.739-2.788-2.769
				c-0.814-0.712-1.588-1.513-2.788-1.846C57.427,238.266,56.171,237.972,56.379,236.229z M22.929,228.846
				c-0.67,0.21-0.529,2.447,0,3.691c0.185,0.434,1.701,0.575,1.858,0.923c0.71,1.559-0.199,2.636,0.929,4.614
				c0.219,0.384,1.712,0.597,1.858,0.923c0.592,1.303,0.398,2.41,1.858,3.691c0.312,0.274,1.602-0.312,1.858,0
				c0.135,0.163,0.806,1.797,0.929,1.846c2.027,0.786,3.96-2.974,4.646,0.923c2.668-3.011-2.908-5.685-4.646-7.383
				c0.974-2.135-1.919-2.251-2.788-3.691c-0.726-1.208,0.301-5.334-2.788-4.614c1.239,4.614,5.174,6.552,6.504,11.074
				c-4.744-1.134-5.014-6.71-9.292-8.306C24.251,230.609,23.221,230.093,22.929,228.846z M57.309,229.769
				c-1.66-0.274-0.058,3.58,1.858,2.769v1.846C62.071,232.893,57.26,231.46,57.309,229.769z M42.442,243.612
				c0.463,3.846,4.201,4.441,7.434,5.537c1.92,1.411,5.445,4.282,8.363,1.846c-0.842-3.266-3.414-1.06-5.575-1.846
				c-1.1-0.401-1.714-1.271-2.788-1.846C47.757,246.165,45.892,244.422,42.442,243.612z M31.291,268.529
				c0.959,2.538,4.836,3.482,7.434,4.614c2.519,1.096,5.752,4.01,8.363,1.846c-0.536-1.693-3.82-1.658-5.575-2.769
				c-1.122-0.712-2.159-0.297-3.717-0.923C35.693,270.451,33.784,268.103,31.291,268.529z"/>
			<path style="fill:#010101;" d="M74.034,144.867c-1.835,1.587-2.815,3.996-4.646,5.537c-0.317,0.267-1.602-0.312-1.858,0
				c-0.737,0.895-0.885,1.152-1.858,1.846c-0.992,0.707-2,2.318-2.788,2.769c-0.679,0.391-2.134-0.429-2.788,0
				c-0.861,0.564-0.92,2.672-2.788,2.769c-1.255,0.065-2.377,1.869-3.717,2.769c-2.465-0.979-5.285-0.692-5.575,2.769h-5.575
				c0.94,4.317-3.727,3.066-2.788,7.383c1.594-1.186,3.654-1.908,3.717-4.614c2.591,1.058,2.736-1.191,3.717-1.846
				c0.886-0.592,2.442-0.702,2.788-1.846c0.749,0.486,1.509,0.963,2.788,0.923c2.589-3.582,8.939-3.428,10.221-8.306
				c1.598,0.503,4.504-1.481,6.504-2.769c0.517-0.331-0.143-0.866,0.929-0.923c0.275-0.015,1.618-1.596,1.858-1.846
				C72.819,148.813,74.29,147.592,74.034,144.867z"/>
			<path style="fill:#010101;" d="M81.467,147.636c1.43-0.487,0.059-0.963-0.929-0.923c-1.867,2.956-5.098,1.341-7.433,2.769
				c-0.287,0.174,0.238,1.583,0,1.846c-0.482,0.532-1.22,0.519-1.858,0.923c-1.686,1.067-3.179,2.914-4.646,5.537
				c-0.271,0.485-0.873-0.123-0.929,0.923c-0.007,0.144-2.065,3.526-1.858,3.691c0.822,0.652,1.06,1.558-1.858,1.846
				c0.611,2.763,1.988-0.883,3.717,0c-0.261-2.412,0.339-3.97,2.788-3.691c0.965-3.349,2.758-5.874,4.646-8.306h3.717
				C75.672,148.221,80.035,149.992,81.467,147.636z"/>
			<path style="fill:#010101;" d="M75.892,166.093c2.678,2.385-3.413,5.282-2.788,9.228c3.058-1.577,3.399-5.855,5.575-8.306
				c2.072,0.135-1.206,2.326,0,4.614c0.792,0.171,0.876-0.361,0.929-0.923c-0.436-2.893,2.337-2.601,3.717-3.691
				c-0.978-1.481-6.184-0.982-1.858-2.769c-1.384-3.041-2.622,1.57-3.717,1.846c-1.38,0.036-1.343-5.481-1.858-0.923
				c-0.025,0.898-1.138,0.715-1.858,0.923c-0.597,0.788-0.192,3.094-0.929,3.691c-0.126,0.102-0.852-0.133-0.929,0
				c-0.196,0.338,0.29,1.609,0,1.846c-0.175,0.142-1.799,0.782-1.858,0.923c-1.253,2.988-0.147,6.975-2.788,9.228
				c0.991,0.861,0.29,3.403,2.788,2.769c0.52-3.351,0.174-6.537,0.929-9.228c0.077-0.276,0.617-2.355,0.929-2.769
				c0.263-0.348,1.688-0.596,1.858-0.923C75.002,169.765,74.218,167.515,75.892,166.093z"/>
			<path style="fill:#010101;" d="M71.246,167.015c-0.868,0.675-1.408,1.677-1.858,2.769
				C69.787,172.102,71.39,168.247,71.246,167.015z"/>
			<path style="fill:#010101;" d="M60.096,175.321c-0.927-2.087-3.854,0.798-4.646,1.846c-0.247,0.327,0.308,1.596,0,1.846
				c-1.249,1.016-1.096,4.748-2.788,7.383c-0.667,1.04-0.907,4.519-1.858,7.383c-0.431,1.297-1.702,2.909-1.858,3.691
				c-0.393,1.984,1.086,2.457,0.929,3.691c-0.332,2.638-2.67,4.787-1.858,10.151c0.211,1.379,0.835,1.647,0.929,2.769
				c0.207,2.462-0.363,5.613,0,7.383c0.03,0.143,0.888,0.15,0.929,0.923c0.079,1.474,0.618,1.601,0.929,2.769
				c2.723-1.942-0.597-4.061-0.929-6.46c-0.429-3.101,1.671-7.003-0.929-9.228c0.996-2.395,0.591-6.18,2.788-7.383
				c-0.677-3.672-0.677-3.711,0-7.383c0.953-0.458,0.368-1.87,0.929-2.769c0.518-0.826,1.629-0.762,1.858-1.846
				c-0.076-1.462,0.447-3.519-0.929-3.691c0.882-1.894,1.153-4.393,3.717-4.614C56.867,178.266,57.704,176.018,60.096,175.321z"/>
			<path style="fill:#010101;" d="M56.379,236.229c0.274-2.195,2.514,1.025,2.788,1.846c1.857,0.59,0.045-2.717-0.929-2.769
				c-1.647-0.087-1.234-3.634-3.717-3.691c0.445-2.903-1.323-3.608-1.858-5.537c-2.12,0.21-0.639,3.663,0,4.614
				c0.754,1.125-0.099,2.168,0.929,4.614c0.183,0.436,1.701,0.575,1.858,0.923c1.083,2.385,2.839,8.942,7.434,8.306
				c-0.754-0.649-1.606-1.739-2.788-2.769c-0.814-0.712-1.588-1.513-2.788-1.846C57.427,238.266,56.171,237.972,56.379,236.229z"/>
			<path style="fill:#010101;" d="M22.929,228.846c-0.67,0.21-0.529,2.447,0,3.691c0.185,0.434,1.701,0.575,1.858,0.923
				c0.71,1.559-0.199,2.636,0.929,4.614c0.219,0.384,1.712,0.597,1.858,0.923c0.592,1.303,0.398,2.41,1.858,3.691
				c0.312,0.274,1.602-0.312,1.858,0c0.135,0.163,0.806,1.797,0.929,1.846c2.027,0.786,3.96-2.974,4.646,0.923
				c2.668-3.011-2.908-5.685-4.646-7.383c0.974-2.135-1.919-2.251-2.788-3.691c-0.726-1.208,0.301-5.334-2.788-4.614
				c1.239,4.614,5.174,6.552,6.504,11.074c-4.744-1.134-5.014-6.71-9.292-8.306C24.251,230.609,23.221,230.093,22.929,228.846z"/>
			<path style="fill:#010101;" d="M57.309,229.769c-1.66-0.274-0.058,3.58,1.858,2.769v1.846
				C62.071,232.893,57.26,231.46,57.309,229.769z"/>
			<path style="fill:#CF9E76;" d="M89.83,94.11c1.992,1.056,0.591,3.036,0.929,4.614c0.135,0.625,0.647,1.144,0.929,1.846
				c0.134,0.329-0.255,1.637,0,1.846c1.085,0.88,2.686,4.764,2.788,8.306c0.904,0.025,0.72,1.129,0.929,1.846
				c2.005,1.884,5.853,1.933,3.717,5.537c2.965,0.79,2.875-1.453,4.646-1.846c1.243,0.92,1.825,2.494,3.717,2.769
				c0.213,1.635-0.937,4.622,1.858,3.691c-0.232-9.916,0.703-19.43-0.929-27.685c-0.846-4.279-0.878-13.431-2.788-18.457
				c-0.124-0.326,0.252-1.642,0-1.846c-1.181-0.96-0.498-1.879-0.929-3.691c-0.183-0.774-0.82-0.912-0.929-1.846
				c-0.368-3.14,0.281-9.322,0-13.843c-0.323-5.212-1.276-13.625-2.788-20.303c-1.673-7.394-4.481-14.622-8.363-14.766
				c-2.224-0.083-3.592,1.129-4.646,2.769c-3.248,5.062-3.573,25.925-2.788,35.068c0.353,4.097,1.541,5.191,0.929,10.151
				c-0.2,1.614-0.907,1.977-0.929,3.691c-0.02,1.631,0.744,2.866,0.929,4.614c0.32,2.979,0.251,5.448,0.929,8.306
				c0.437,1.834-0.091,1.755,0.929,2.769c0.094,0.092-0.012,0.783,0,0.923c0.581,6.515-2.076,13.697,2.788,17.534
				c1.184-0.209,1.218-2.755,0-2.769c-0.076-1.462,0.446-3.52-0.929-3.691C89.83,99.648,89.83,94.11,89.83,94.11z"/>
		</g>
		<g id="Left_Eye">
			<g>
				<path style="fill:#FFFFFF;" d="M132.677,172.911l-0.086,0.038l-20.53-12.868c-7.404-4.641-15.534-8.023-24.057-10.009l0,0
					c-11.833-2.757-24.148-2.757-35.981-0.001l-0.003,0.001c-8.524,1.985-16.656,5.368-24.06,10.009L7.432,172.949l-0.082-0.038
					l0.069,0.047l-0.069,0.043l0.082-0.034l0.013,0.009l20.519,12.858c7.402,4.639,15.531,8.02,24.053,10.005l0.007,0.002
					c11.833,2.756,24.148,2.756,35.981-0.001l0.004-0.001c8.521-1.985,16.649-5.366,24.05-10.004l20.52-12.859l0.013-0.009
					l0.086,0.034l-0.073-0.043L132.677,172.911z"/>
				<g>
					<path d="M131.415,170.752c-0.029,0.013-0.057,0.026-0.086,0.038c0.841,0,1.682,0,2.524,0
						c-12.834-8.044-25.487-17.323-40.12-21.771c-24.085-7.32-48.793-2.53-69.793,10.633c-5.923,3.713-11.847,7.426-17.77,11.138
						c0.841,0,1.682,0,2.524,0c-0.027-0.013-0.055-0.026-0.082-0.038c-2.906-1.366-5.204,2.488-2.524,4.317
						c0.023,0.016,0.046,0.031,0.069,0.047c0-1.439,0-2.878,0-4.317c-0.023,0.014-0.046,0.029-0.069,0.043
						c-2.287,1.42-0.792,5.706,1.926,4.569c-1.431,0.599-2.402-0.975-0.809,0.363c1.179,0.99,2.75,1.724,4.052,2.539
						c3.332,2.088,6.665,4.176,9.997,6.265c7.958,4.987,15.973,9.559,25.034,12.313c24.264,7.374,48.957,2.428,70.083-10.811
						c3.626-2.272,7.252-4.544,10.878-6.817c1.617-1.014,3.364-1.945,4.906-3.074c2.169-1.588,1.594-0.088-0.143-0.778
						c2.68,1.065,4.31-3.176,1.926-4.569c-0.024-0.014-0.049-0.029-0.073-0.043c0,1.439,0,2.878,0,4.317
						c0.024-0.016,0.049-0.031,0.073-0.047C136.637,173.336,134.133,169.006,131.415,170.752c-0.024,0.016-0.049,0.031-0.073,0.047
						c-1.56,1.002-1.673,3.34,0,4.317c0.024,0.014,0.049,0.029,0.073,0.043c0.642-1.523,1.284-3.046,1.926-4.569
						c-1.504-0.598-3.337,1.048-4.488,1.77c-3.151,1.975-6.302,3.949-9.453,5.924c-7.636,4.785-15.108,9.675-23.679,12.699
						c-14.611,5.154-30.611,5.817-45.583,1.803c-9.776-2.621-18.254-7.445-26.732-12.757c-3.671-2.301-7.342-4.601-11.013-6.902
						c-1.235-0.774-3.986-3.256-5.707-2.536c0.642,1.523,1.284,3.046,1.926,4.569c0.023-0.014,0.046-0.029,0.069-0.043
						c1.669-1.036,1.552-3.258,0-4.317c-0.023-0.016-0.046-0.031-0.069-0.047c-0.841,1.439-1.682,2.878-2.524,4.317
						c1.961,0.922,3.47-0.504,5.069-1.506c3.152-1.976,6.305-3.952,9.457-5.928c7.639-4.788,15.113-9.681,23.689-12.706
						c14.609-5.154,30.609-5.818,45.579-1.804c9.779,2.622,18.259,7.449,26.739,12.764c3.673,2.302,7.346,4.605,11.019,6.907
						c1.841,1.154,4.02,3.291,6.298,2.273C136.871,173.759,134.331,169.449,131.415,170.752z"/>
				</g>
			</g>
			<g>
				<ellipse cx="70.013" cy="172.956" rx="23.891" ry="23.728"/>
				<g>
					<path d="M91.404,172.956c-0.338,11.63-9.557,21.228-21.391,21.228c-11.628,0-21.33-9.59-21.391-21.228
						c-0.061-11.642,9.85-21.228,21.391-21.228C81.848,151.728,91.066,161.325,91.404,172.956c0.093,3.211,5.094,3.224,5,0
						c-0.317-10.907-6.732-20.59-17.048-24.514c-10.432-3.968-22.674-0.725-29.753,7.906c-15.295,18.648,1.692,46.667,25.219,42.391
						c12.557-2.282,21.216-13.244,21.581-25.783C96.498,169.737,91.497,169.74,91.404,172.956z"/>
				</g>
			</g>
			<g id="_x24_12">
				<path style="fill:#FFFFFF;" d="M56.719,171.26l-2.724-2.298c-0.375-0.315-0.588-0.644-0.638-0.987
					c-0.05-0.344-0.075-0.744-0.075-1.203v-1.932c0-0.501,0.144-0.905,0.432-1.213c0.288-0.308,0.714-0.461,1.275-0.461h0.843
					v-1.868h1.405v1.868h1.621l0.606,2.662h-3.567v1.117l2.94,2.597c0.288,0.244,0.479,0.505,0.573,0.784
					c0.094,0.279,0.141,0.604,0.141,0.977v2.211c0,0.96-0.548,1.439-1.643,1.439h-0.67v1.889h-1.405v-1.889h-1.686l-0.757-2.384
					h3.33V171.26z"/>
				<path style="fill:#FFFFFF;" d="M63.864,161.3h5.027v19.002h1.589v4.348h-7.945v-4.348h1.524v-14.654h-1.946L63.864,161.3z"/>
				<path style="fill:#FFFFFF;" d="M84.942,170.125c0,0.601-0.103,1.074-0.308,1.417c-0.206,0.343-0.579,0.698-1.119,1.063
					l-4.443,3.51c-0.151,0.108-0.227,0.29-0.227,0.548v3.639h5.675l-0.843,4.348h-9.534v-8.406c0-0.751,0.107-1.385,0.324-1.9
					c0.216-0.516,0.616-0.956,1.2-1.321l4.443-3.382c0.151-0.108,0.243-0.193,0.275-0.257c0.033-0.065,0.049-0.151,0.049-0.258
					v-3.059c0-0.278-0.152-0.418-0.454-0.418h-5.74l0.811-4.348h7.134c0.778,0,1.432,0.247,1.962,0.741
					c0.53,0.495,0.795,1.203,0.795,2.125V170.125z"/>
			</g>
		</g>
	</g>
</g>
<g id="Layer_1">
</g>
</svg>
