<svg id="Layer_1" data-name="Layer 1" xmlns="http://www.w3.org/2000/svg" viewBox="0 0 138.66 286.59"><defs><style>.cls-1{fill:#010101;}.cls-2{fill:#cf9e76;}.cls-3{fill:#fff;}</style></defs><title>left-hand</title><g id="Left_Hand" data-name="Left Hand"><g id="Left"><path class="cls-1" d="M76.82,33.2c-1.58-.34-1.75.72-1.86,1.85.8-.17.88.36.93.92C77,35.82,76.68,34.29,76.82,33.2Z"/><path class="cls-1" d="M67.53,53.51c-.35-1.76-1.18.58-.93,1.84C67,57.11,67.78,54.76,67.53,53.51Z"/><path class="cls-1" d="M65.67,55.35C63,54,63,59.48,65.67,58.12Z"/><path class="cls-1" d="M43.37,72c-.35-1.75-1.18.59-.93,1.85C42.79,75.56,43.62,73.22,43.37,72Z"/><path class="cls-1" d="M65.67,89.5c-.6-2.61-1.08,2.12-.93,2.76C65.17,94.12,66.49,93,65.67,89.5Z"/><path class="cls-1" d="M73.11,102.42c-.91,0-.72,1.12-.93,1.84-.61.94-2.14,1-1.86,2.77C73.58,106.62,74.26,105.08,73.11,102.42Z"/><path class="cls-1" d="M52.66,105.18c-3.35-.87-1.29,3.64-1.86,5.54C54.16,111.6,52.1,107.09,52.66,105.18Z"/><path class="cls-1" d="M13.64,110.72c-3.35-.88-1.65,4-.93,4.62-.41,1.82.37,8.49.93,3.69Z"/><path class="cls-1" d="M71.25,130.1c-2-.93-1.28,1.5-1.86,1.85-1.21.72-3.17.06-4.65.92,1.69,1.91,8.47,1.08,8.37-1.84C72,131.18,71.45,130.82,71.25,130.1Z"/><path class="cls-1" d="M55.45,132.87c0,.93,1.15.67,1.86.92,2.3.82,6.37,2.76,5.57,0C59.89,134,59,132.16,55.45,132.87Z"/><path class="cls-1" d="M56.38,136.56c0-1.41-6.89-2-5.58.92C53,137.51,53.54,135.89,56.38,136.56Z"/><path class="cls-1" d="M118.64,137.48c-3,.78,1.64,1.22,2.78.93,2.63.09,4,3.47,6.51.92.17-1.72-2.94-.15-3.72-.92-.06-.07.07-.91,0-.93C122.51,137.19,120.61,137.7,118.64,137.48Z"/><path class="cls-1" d="M49.88,139.33c-1.53-2.63-5.05.44-6.51.92C44.67,142.65,48.18,139.58,49.88,139.33Z"/><path class="cls-1" d="M88.9,142.1c-1.58-3.15-2.57,1.13-1.86,1.84C87.43,144.33,88.15,141.64,88.9,142.1Z"/><path class="cls-1" d="M35,148.56c-.39-2.06-4.93-.72-5.58,0C30.37,151.16,33.38,148.3,35,148.56Z"/><path class="cls-1" d="M26.65,152.25c-1.5-.26-1.6.87-2.79.92C23.49,155,28.09,154.52,26.65,152.25Z"/><path class="cls-1" d="M21.07,158.71c-1.5-.26-1.6.87-2.79.92C17.91,161.42,22.51,161,21.07,158.71Z"/><path class="cls-1" d="M14.57,163.32c-1,.23-.63,1.84-1.86,1.85C13.11,167.72,15.63,165.22,14.57,163.32Z"/><path class="cls-1" d="M62,169.78c-.38-2.29-3.61-.05-2.79,1.85C60.39,171.3,60.63,170,62,169.78Z"/><path class="cls-1" d="M37.8,168.86c-1.25.61-1.73,2-1.86,3.69C37.57,172.33,38.06,171,37.8,168.86Z"/><path class="cls-1" d="M69.39,172.55c-2-3.15-2.11,3.36-2.79,4.62-2.62-.94.26-3.92,0-5.54-1.63.22-2.12,1.59-1.86,3.69.06,1.14-1.42,1.23-1.86,1.85-.23.33.31,1.59,0,1.84-1.08.88-.26,1.37-.93,2.77-.16.35-1.76.66-1.85.92-.29.81.33,2,0,2.77-.17.38-.78,0-.93.93,0-.27,1,.35.93.92,0,.11-.88.19-.93.92-.35,4.39-.9,11.24,0,16.61.29,1.76-.27,3,1.86,2.77.26-4.54-1-9,0-12.92.21-.85,1-.75,1.85-.92-.49-3.57,1.66-4.5.93-8.31.55-.37,1.17,1.64.93,1.85,2.21-1.94,3.05-9.68,3.72-13.84C68.29,172.69,68.82,172.6,69.39,172.55Z"/><path class="cls-1" d="M56.38,199.32c-3.91,2.57-2.58,10.35-2.79,16.61,2.93-.07,1-2.76,1.86-5.54a14.12,14.12,0,0,0,0-6.46C55.07,201.7,57.15,201.92,56.38,199.32Z"/><path class="cls-1" d="M57.31,222.39c-3.38,1.51,1.13,2.26,1.86,2.77,1.5,1.05,1.7,3,3.71,1.84C63,223.53,58.23,224.86,57.31,222.39Z"/><path class="cls-1" d="M42.44,243.61c.47,3.85,4.2,4.44,7.44,5.54,1.92,1.41,5.44,4.28,8.36,1.84-.84-3.26-3.42-1.06-5.58-1.84-1.1-.4-1.71-1.27-2.78-1.85C47.76,246.16,45.89,244.42,42.44,243.61Z"/><path class="cls-1" d="M31.29,268.53c1,2.54,4.84,3.48,7.43,4.61s5.76,4,8.37,1.85c-.54-1.69-3.82-1.66-5.58-2.77-1.12-.71-2.16-.3-3.71-.92C35.69,270.45,33.78,268.1,31.29,268.53Z"/><path class="cls-1" d="M60.1,9.21c.09-1.74,2.66-5.6,3.71-6.46.19-.16,2.84-.93,2.79-.92,1-.06.5-.74.93-.93,6.16-2.71,9.83,1.25,12.08,4.62,1,1.41,1.37,3,1.86,3.69,2.17,3.23.31,10.59.93,15.69C84.53,23,85.47,18.57,88,18.44c1-.06.46-.69.93-.93a7.65,7.65,0,0,1,4.65-.92c3.52.34,6,4.41,7.43,5.54.27.22-.16,1.51,0,1.84.06.12.82-.09.93,0s-.13,1.52,0,1.85c.54,1.4,1.43,3.08,1.86,4.61,1.81,6.48,2.61,18,3.71,23.07a19.7,19.7,0,0,1,0,2.77c.48,6.61.15,12.45.93,17.54,0,0,.87-.06.93,0s0,1.57,0,1.84c.18,1.52,0,2,.93,2.77,1.5,1.22-.63,4.27.93,5.54.23.18-.09,1.53,0,1.84a57.35,57.35,0,0,1,1.86,8.31c.59,5.43-1.22,10.24.93,12,1.07-2,.9-3.54,1.85-5.54.53-1.1,1.27-1,1.86-1.85.29-.39-.2-1.39,0-1.84.12-.26,1.63-.64,1.86-.92.6-.74.4-2.09.93-2.77a12.65,12.65,0,0,1,2.79-1.85c1.75-1.08,3.43-2.36,6.5-1.85,3.29.55,4.78,3.43,5.58,4.62,3.31,4.93-.32,15.11,0,22.15.21,4.76,2.34,9.82,2.78,15.68.63,8.16,0,18.84,0,28.61,0,10.33,1.15,20.93,0,28.61-.49,3.31-3.61,8.17-3.71,10.15-.05,1-.78.54-.93.92-.92,2.37-.47,2.79-.93,4.62-.18.72-.83.67-.93.92-1.34,3.5-2.3,6.47-3.72,8.31a37.82,37.82,0,0,0-2.78,4.61c-.15.24-.65.49-.93.92a41.53,41.53,0,0,1-2.79,3.7,30,30,0,0,0-2.79,4.61A54.16,54.16,0,0,1,114,235.3c-.48.63-1.3,1.11-1.85,1.85-.72.94-1.21,1.8-1.86,2.77s-1.35,1.14-1.86,1.84c-.82,1.13-.16,2.25-.93,3.69-.32.61-1.43,1-1.86,1.85-1.09,2.19-1.09,5.14-.93,7.38.46,6.36,1.48,16.29,0,21.23-.4,1.35-.21,2.56-.93,3.69-.47.75-6.14,4.55-7.43,4.61-.91.05-.61.82-.93.93-1,.33-2.62-.06-3.72,0-.72,0-.85.91-.92.92-7.38,1.18-17.11,0-26,0-9.53,0-19.36.62-26,0-2.2-.21-5.93-1.71-6.5-1.85a11.55,11.55,0,0,0-1.86,0,16.54,16.54,0,0,1-4.65-.92c-.54-.14-1.34.22-1.85,0s-1.35-1.56-1.86-1.85c-1.05-.59-2-.29-2.79-.92-.63-.48-.7-1.86-1.86-1.85a96.79,96.79,0,0,0-1.86-25.84c-1.09-5.41-1.84-11.56-4.64-13.84-.29-.23.19-1.51,0-1.84-.29-.53-1.58-1.22-1.86-1.85a3.54,3.54,0,0,1,0-.92c-.05-.92-.82-.6-.93-.93-.84-2.51-.44-2.69-.93-4.61-.15-.62-.89-.8-.93-.92-1.34-4.38-1.73-9.07-2.79-13.85C2.6,210.36,1,206.64.63,203c-1.31-11.69-.37-29.53.93-38.76,1.06-7.61,2-19.28,2.78-24.92a29.84,29.84,0,0,1,.93-4.61c.3-1.19.73-2,.93-2.77.72-2.87-.75-5.69-.93-8.31-.7-10.27.39-21.94.93-29.53.32-4.47.64-8.85.93-11.07.16-1.2-.21-2.5,0-3.69C7.55,77,8.75,75,9,72.88c.32-2.88-.56-5.74,0-8.31,0-.12.76-.27.93-.92a7.7,7.7,0,0,1,.93-2.77C12,59.09,12,57,12.7,55.34a33.77,33.77,0,0,1,2.79-5.53c.57-.73,2-1.27,2.79-1.85,2.4-1.86,3.32-3.24,6.5-2.77,2.58.38,4.33,2.05,5.58,5.54,1.64,1.73,1.06,4.8.93,7.38a56.2,56.2,0,0,1-1.86,9.23,12.56,12.56,0,0,0,0,1.84c-.42,5-.78,9.27,1.86,12,1.47-1.21.45-3.45.93-5.54.44-1.91,1.61-3.31,1.86-5.53.68-6.19.11-14,.93-18.46.11-.59-.15-1.27,0-1.85s.89-.79.92-.92a76.6,76.6,0,0,0,1.86-9.23c.7-3.57,1.49-6.76,1.86-8.3,1-4.13-.16-7.35.93-10.15.16-.4,1.6-1.36,1.86-1.85.59-1.09.22-1.94.93-2.77,3.84-4.51,10-4.43,15.79-1.84C58.39,11.85,60.05,10.09,60.1,9.21ZM23.86,254.69c-1.36,1,.63,3.4,2.79,5.53.88.88,2.15,2.3,2.78,2.77.33.25,1.61-.3,1.86,0,1.15,1.4,1.71,1.5,3.72,2.77a26.59,26.59,0,0,0,8.36,2.77c-.69,1.73-4.35.67-6.5,0-2.42-.76-5.2-3-7.44-4.61-.63-.46-1.26-1.42-1.85-1.85s-1.84-1.8-2.79-1.85-1.65-1.09-1.86-1.84c-2.82,1,1.48,3.78,1.86,4.61.18.4-.29,1.55,0,1.85.78.81,2.73.27,3.71.92.8.52,1.29,2,1.86,2.77-2.18.82-2.63-2.07-3.71-2.77s-3.28,0-3.72-1.84c-3.07,1.38,1.93,2.25.93,4.61,1.61-.71,2.24.67,2.79.92a29.22,29.22,0,0,1,2.78.93c.64.35,1.3,1.5,1.86,1.84.85.52,1.71.39,2.79.92.61.31,1.34,1.57,1.86,1.85,2,1.07,5,.63,7.43,2.77-.18.88-2.46,1.26-3.72.92-1-.28-1.22-1.59-1.85-1.84-1.33-.54-2.41-.26-3.72-.93-.63-.32-1.32-1.54-1.86-1.84s-1.21-.52-1.86-.93c-.44-.27-.69-.78-.93-.92-.76-.45-1.86-.38-2.78-.92-1.54-.91-2.67-3-4.65-2.77,1,.3.31,2.07.93,2.77s1.85.25,2.79.92.73,1.33,1.85,1.85c.34.15,1.64-.27,1.86,0s-.13.84,0,.92c.5.3,1.43,1.66,1.86,1.85s1.31-.14,1.86,0c1.06.26,3.43,1.9,5.57,2.77-.93,2.59-3.94-.26-5.57,0-3.26-2-5.48-5-10.22-5.54.26,1.18.65,3.56,1.86,4.61.31.27,1.6-.31,1.85,0,.09.11-.11.87,0,.93.34.15,1.64-.27,1.86,0s1.83,1.13,4.65,1.84c6,1.53,17.15.92,28.8.92,15,0,29.47,1.64,37.17-4.61.51-3.41,2.66-9.9,0-12-1.67-1.32-.67-7.3-.93-12-.21-4.32-2.76,2-5.57.92-.28-3.15,4-2.47,5.57-3.69.32-.25-.29-1.56,0-1.85.55-.54,3.57.21,2.79-2.77a5.64,5.64,0,0,0-2.79.93c-.64.36-1.44,1.66-1.86,1.84-1.87.82-5-.09-6.5,1.85v-2.77c.79-.17.88.36.93.92,2.38,0,1.13-.68.93-1.84,3.33.54,4.49-1.08,6.5-1.85.83-1.92-6.33-.25-2.79-1.85-1.92-2.14-4.75,2.61-7.43,2.77-1.47-.28-3.2.38-4.65,0-1.19-.31-1.47-1.72-2.78-1.84-1.73-.17-2.39.54-4.65.92-2.37-.1-3.25-1.69-4.65-2.77-2.62-.76-2.4,1.3-4.64.92A37.67,37.67,0,0,1,61,239c1.2-2.58,1.92,2.91,4.65,1.85-.18-2.6-3-2.53-3.72-4.62-.31-2,2.26.48,2.79.93.82.68,2,1.14,1.86,2.76,1.08-.14,1.65.21,1.86.93,5.14-2.59,6.89,3.53,13,2.77-.76-2.94-6.13-1.29-5.57-5.54a9,9,0,0,1-6.5-1.85c-1.18-.82-2.52-2.66-3.72-3.69s-4.06-.28-3.72-3.69c.49-2.42,1.2.84,2.79.92a14.45,14.45,0,0,1,3.72,2.77H75c-.22,1.63-1.6,2.11-3.72,1.85,1.45,1.46,4.45,1.46,6.51,1.85,2.4.44,4.54,1.42,7.43.92-.4,2.06-4.58.37-6.5.92.37,3.36,4.37,3.08,7.43,2.77,0,0,.29-.89.93-.92a10.73,10.73,0,0,0,5.58-1.85c7.44.9,9-.7,14.86-5.54,2.35-1.93,5.65-4.25,7.44-6.46.59-.73.46-2,.92-2.76s1.48-1.28,1.86-1.85c.62-.92.22-2,.93-2.77.32-.33,1.64-.57,1.86-.92.59-.94.42-1.9.93-2.77.92-1.59,2.41-3.93,3.72-6.46.39-.76.41-1.82.92-2.77.3-.54,1.65-1.38,1.86-1.85.3-.65.09-3.93.93-4.61a6.44,6.44,0,0,0,1.86-2.77c.12-.33-.25-1.64,0-1.85.76-.61.64-.7.93-1.84,0,0,.85-2.71.93-2.77,1.18-1,.5-1.88.93-3.69,1.36-5.75,1.66-21.36.93-29.53-.13-1.44-.88-1.62-.93-2.77a120.8,120.8,0,0,1,0-17.54c.16-1.61,1-2,.93-3.69-.08-2-.73-2.32-.93-3.69-.43-2.92,0-4.35-.93-7.38-.85-2.8-.74-11.4-.93-16.61-.16-4.41,1.16-8.78-1.86-12-3.44-.61-6.37,2.9-8.36,5.54-.43.56-1.6,1.4-1.86,1.84s.29,1.62,0,1.85c-.55.44-1,2-1.86,4.61,0,0-.84,3.62-.93,3.7-1.09.88-.69,1.88-.93,3.69-.26,2-1.59,5.88-.93,10.15-.27,1.92-2.51-1.37-2.78,1.84-.92,3.68,2.77,2.78,1.85,6.46,1.78.4,1.69,2.64,4.65,1.85-3,2.9-7.38-.62-6.5-4.61-1.53.41-1.53,7,0,7.38-.23,1-1.85.62-1.86,1.84-1.09,4.47-3.78,9-2.79,16.62.48,3.63,3.27,6.62,2.79,10.15,2.53-.68,1.87,1.83,3.72,1.84v3.69c1.08-.15,1.65.21,1.85.93,0,.73-1.13.92-1.85.92-2.1,0-1.28-1.77-2.79-1.85s-1.62-.61-2.79-.92c.29-2.16,1.82-3.81,0-5.54-1-.5-.6,1.79-.93,1.85-1.79.33-3.94-3.94-3.72-6.46-2.81,2.26.71,6,0,9.23-2.72-1.3-2.85-5.16-2.78-9.23-1.6.67-2.61,2-3.72,3.69-.62,1-.26,5.2-2.79,6.46a6,6,0,0,0,.93,4.61c-3.35.25-6.43.24-5.58-3.69C86.4,173.06,91.9,178,88.9,179c-3.54.74-1.19-4.37-1.86-6.46.17-.75.93-.92.93-1.85.21-1.33,2.77-.32,2.78-1.85a4.25,4.25,0,0,0,.93-2.76H84.25c.75-2.34,3.82-2.36,5.57-3.7,1.66-.25,1.91.88.93.93,1.17,2.78,5.26-3.1,6.51-4.62,1-1.21,2.27-2.08,1.86-5.53.9-1,1.83-1.87,2.78-2.77.64-2.48-1.92-1.79-2.78-2.77.79-1.37,2.34-2,4.64-1.85.93-1.23,1.53-2.78,2.79-3.69-.94-3.67-5.6-.88-8.36-.92.51-2.88,5.39-1.42,7.43-2.77.22-2.77,1.59-6.23.93-9.23-.55-2.52-1.78-2.85-2.79-4.61.61-.94,2.14-1,1.86-2.77-2,.43-1.77-1.32-1.86-2.77-2.47,0-5.31.35-6.5-.92-2.91-1.19-.48-1.91-1.86-4.62-4,.57-3.79-3-7.43-2.77A6.44,6.44,0,0,1,86.11,108c-1.9-.73-2.52,1.07-3.72.92s-1-2.91-3.72-1.85c.38-2.7,3.18-3,4.65-4.61-.08-1.31-.15-2.62.93-2.77-.32-8.47.81-16.17-.93-23.07a54,54,0,0,1-1.86-6.46c-.43-3.63.05-6.88-.93-10.15a16.08,16.08,0,0,1-.93-2.77c-.18-2,.87-2.34.93-3.69s-.72-1.59-.93-2.77c.06.28,1.05-.37.93-.92,0-.12-.87-.2-.93-.93-.22-2.72.21-6,0-9.23-.09-1.48-.78-1.57-.93-2.76-.91-7.56,1.11-16.6,0-23.08-.48-2.82-2.73-4.58-2.78-8.3-1.75.76-2.8-3-6.51-1.85-.84.26-.52.75-.93.93a16.14,16.14,0,0,0-2.78.92c-.48.42-.6,2.23-.93,2.77S63,9.77,62.88,10.13c-.47,1.28.14,3.26,0,4.62-.19,1.78-.88,3.39-.93,4.61-.08,2.05.74,2.31.93,3.69a58.26,58.26,0,0,1,0,12c-.15,1.41-.87,1.63-.93,2.77-.45,9.36,1.83,20.11.93,26.76-.39,2.92-2.55,5.4-2.79,9.23-.18,2.91,1,9.19,1.86,12.92,1,4.06.75,13.89,1.86,18.46,2-.14,2-2.33,1.85-4.62q2.07,1.19,1.86,4.62A2.53,2.53,0,0,1,65.66,108c-1,.22-.63,1.83-1.85,1.84-4.21,1.41.49-6-3.72-4.61v3.69c-.23,1-1.85.62-1.86,1.84-.95-.54-1.62-2.3-1.86-3.69a3,3,0,0,0,.93-1.84c0-.07-.89-.21-.93-.93-.06-1.31.77-2.61.93-4.61.19-2.29-.25-4.81,0-7.38.3-3,.59-3.22,0-5.54-.36-1.43.2-3.15,0-4.61-.38-2.87-1.86-5.64-1.86-8.31,0-2.09,1.46-4.23,1.86-6.46a79,79,0,0,0,.93-13.84c0-2-1.27-3.58-.93-7.39.39-4.35,2.53-18.11.93-24-.06-.24-.88-.07-.93-.92-.07-1.39-2-2.88-2.79-4.62H48c-7.12,7.16-5.58,19.33-7.43,29.53A13.34,13.34,0,0,1,39.65,48c-.13.33.25,1.64,0,1.85-.08.06-.91-.08-.93,0-.45,1.73-.58,4.51-.93,6.46-.32,1.79-.82,4-.93,5.53-.14,2,.9,2.37.93,3.69,0,1.66-1,1.94-.93,3.7s1,3.11.93,4.61c-.14,1.7-1.5,3.08-1.86,4.61-.94,4.08.31,8.54,0,12.92-.14,2-1.77,3.83-.93,7.39.18.73,1,.92.93,1.84s-1,2-.93,3.69.73,3.78.93,5.54c.15,1.26-2.21,3.65.93,3.69,3.54.69,1-3.42.93-4.61-.1-1.72.1-4,0-5.54-.12-2-.85-3.66-.93-5.54,0,.09,1.07-.21.93-.92,0-.16-.91-.12-.93-.92,0-1.31-.19-2.62.93-2.77,1.31,1,.49,4.27.93,9.23.17,1.85.85,2.45.93,3.69.11,1.65-1.07,1.94-.93,3.69,0-.31.85.62.93.92.14.58-.11,1.26,0,1.85,3.37-.66,1.28-6.73,1.86-10.15,1.81,1.58,2,4.77,1.85,8.3,3.31,1.44.57-3.13,2.79-2.77,4.06,3.61-1.29,4.48-1.86,8.31-2.66-.18-5.07-.12-4.64,2.77-5.87-1.53-5.74,2.91-10.22,2.77-.37.5.46,2.36,0,2.77-.25.21-1.71-.27-1.86,0-.89,1.59-.23,5-2.79,5.53-2.46-.33-.84-4.7-2.79-5.53.81-.62.55-2.7,1.86-2.77,1.57-.08,1.08-1.77,2.79-2.77a115.86,115.86,0,0,1,.93-12S30.44,97,28.5,95c-1.21-1.2.25-.14,0-3.69-.3-4.23-1.37-8.52-1.86-12.92-1.76.11-.64,3-2.79,2.77-1.26-4,2.22-3.34,2.79-5.53C24.53,65.13,33.06,53.37,24.78,48c-4.4-.56-6.29,5.07-8.36,8.31-.62,1-.87,3.22-1.86,6.46-.44,1.45-1.61,3.37-1.86,4.61-1,5-.31,10.73-.93,15.69-.24,2-1.45,3.45-1.85,5.54-.27,1.4.23,3.76,0,5.53,0,.16-2.62,6.94-.93,8.31.07,0,1.57,1.32.93,1.84-1.07.87-.08.46,0,1.85.45,7.91-.61,14.92,1.85,19.38,1.64-.22,2.12-1.59,1.86-3.69,1-.85,1.75,4.72.93,5.54-.2.19-1.76-.24-1.86,0-.41,1,.54,2.77,0,3.69-.9,1.54-2.17,1.68-2.79,2.77A18.34,18.34,0,0,1,9,142.1c-.13.33.25,1.64,0,1.85-1.1.89-.69,1.88-.93,3.69-.46,3.43-1.28,11.52-1.86,16.61-.22,1.94-.47,5.28-.93,9.23-.43,3.66-1.42,12.06-.93,18.45.26,3.38,2.21,11.35,2.79,15.69.4,3,1.13,5.79,1.86,9.23.5,2.36.41,4.76.93,6.46.09.29.88,0,.92.92a29,29,0,0,0,.93,2.77c.37,1.09,1.79,3.25,1.86,4.62.06,1.2,1.46,1.14,1.86,1.84.62,1.1.16,2.69.93,3.69,1.21,1.58,3.29,2.64,4.64,3.69,1.61,1.24,2.56,2.8,4.65,2.77C25.3,241.4,23.5,240.92,22,239c-1.23-1.58-1.65-2.9-2.78-4.61-.52-.78-1.34-.81-1.86-1.85s-.46-1.8-.93-2.77-3.15-1.9-1.86-5.54c1.65.77,1.22,3.28,1.86,4.62.21.43,1.69.56,1.86.92.33.7-.43,2.13,0,2.77.57.86,2.69.91,2.78,2.77.07,1.23,2.67,1.6,3.72,2.77a17.87,17.87,0,0,1,2.79,4.61,21,21,0,0,1,4.65,2.77c.56.37,1.34,1.56,1.85,1.85.77.42,1.91-.26,1.86.92-.44,2-1.48-.87-1.86-.92-1.44-.23-1.73,1.19-2.78.92-2.31-.58-4.54-2.71-7.44-2.77.39,2.32,3.22,2,4.65,2.77,4,2,9.56,5.4,13,9.23-1.31-.7-3.11-.28-4.65-.93-.45-.18-.56-1.67-.93-1.84-.75-.36-2,.37-2.79,0-.47-.24.11-.87-.92-.92-1.53-.08-3.67-1.75-4.65-3.7-2.36,1.82,2.06,4.14,3.72,5.54,2,1.71,5,2.42,5.57,4.62,4.14-.11,7.26.78,6.51,5.53-3.69.09-5.07-3.29-7.44-5.53-.32-.31-1.54.31-1.86,0s.32-1.58,0-1.85-1.6.31-1.85,0c-1.77-2.15-4.78-4.6-7.44-7.38-.67-.06-1.33,1.94-.93,2.77s2.23.23,2.79.92.31,2,.93,2.77c.42.54,2.65,0,1.86,1.84a13.92,13.92,0,0,1,9.29,6.46c-1.83-1.08-3.87-1.66-5.57-2.77-2.82-1.82-4.52-4-7.44-6.46C25.08,256,24.18,255.54,23.86,254.69Zm66-160.58c2,1.06.59,3,.93,4.61a13.92,13.92,0,0,0,.93,1.85c.13.33-.26,1.64,0,1.85,1.08.88,2.68,4.76,2.79,8.3.9,0,.72,1.13.93,1.85,2,1.88,5.85,1.93,3.71,5.54,3,.79,2.88-1.46,4.65-1.85,1.24.92,1.82,2.49,3.72,2.77.21,1.63-.94,4.62,1.85,3.69-.23-9.92.71-19.43-.93-27.69-.84-4.27-.87-13.43-2.78-18.45-.13-.33.25-1.64,0-1.85-1.18-1-.5-1.88-.93-3.69-.19-.77-.82-.91-.93-1.85-.37-3.14.28-9.32,0-13.84A142.68,142.68,0,0,0,101,35.05c-1.67-7.4-4.48-14.62-8.36-14.77C90.39,20.2,89,21.41,88,23.05,84.72,28.11,84.4,49,85.18,58.12c.36,4.1,1.54,5.19.93,10.15-.2,1.61-.9,2-.93,3.69s.75,2.87.93,4.61c.32,3,.25,5.45.93,8.31.44,1.83-.09,1.76.93,2.77.09.09,0,.78,0,.92.58,6.52-2.08,13.7,2.79,17.54,1.18-.21,1.22-2.76,0-2.77-.08-1.46.44-3.52-.93-3.69V94.11Z"/><path class="cls-2" d="M25.72,256.53c2.92,2.43,4.62,4.63,7.43,6.46,1.7,1.11,3.74,1.69,5.58,2.77a14,14,0,0,0-9.3-6.46c.79-1.8-1.44-1.3-1.85-1.84-.62-.81-.35-2.06-.93-2.77s-2.34,0-2.79-.93.26-2.82.93-2.77c2.65,2.78,5.66,5.24,7.43,7.39.26.31,1.54-.27,1.86,0s-.3,1.55,0,1.84,1.54-.3,1.86,0c2.37,2.25,3.74,5.63,7.43,5.54.76-4.75-2.37-5.64-6.5-5.54-.57-2.19-3.56-2.9-5.58-4.61-1.65-1.41-6.07-3.73-3.72-5.54,1,2,3.12,3.61,4.65,3.69,1,.06.46.69.93.93.74.37,2-.36,2.79,0,.36.17.48,1.65.93,1.84,1.54.65,3.34.23,4.64.93-3.45-3.83-9-7.19-13-9.23-1.42-.73-4.26-.45-4.64-2.77,2.89.06,5.13,2.18,7.43,2.77,1.06.26,1.34-1.15,2.79-.93.37.06,1.41,2.94,1.86.93.05-1.18-1.1-.51-1.86-.93-.52-.28-1.3-1.47-1.86-1.84a20.72,20.72,0,0,0-4.65-2.77,17.57,17.57,0,0,0-2.78-4.61c-1.06-1.18-3.66-1.55-3.72-2.77-.1-1.86-2.22-1.92-2.79-2.77-.42-.64.34-2.07,0-2.77-.17-.36-1.65-.49-1.86-.92-.63-1.35-.21-3.85-1.85-4.62-1.29,3.64,1.45,4.7,1.85,5.54s.39,1.68.93,2.77,1.35,1.06,1.86,1.84c1.14,1.72,1.55,3,2.79,4.62,1.5,1.92,3.31,2.4,3.72,4.61-2.1,0-3-1.53-4.65-2.77-1.36-1.05-3.43-2.11-4.65-3.69-.77-1-.3-2.6-.93-3.69-.39-.7-1.79-.65-1.85-1.85-.08-1.36-1.5-3.52-1.86-4.61a24.23,24.23,0,0,1-.93-2.77c0-.89-.84-.63-.93-.92-.52-1.7-.43-4.1-.93-6.46-.73-3.44-1.45-6.18-1.86-9.23-.57-4.34-2.52-12.31-2.78-15.69-.5-6.39.5-14.8.92-18.45.46-3.95.71-7.29.93-9.23.58-5.09,1.41-13.18,1.86-16.61.24-1.81-.16-2.81.93-3.69.25-.21-.12-1.52,0-1.85a18.38,18.38,0,0,0,.93-8.31c.61-1.08,1.88-1.22,2.79-2.76.54-.92-.41-2.7,0-3.7.09-.23,1.66.2,1.86,0,.81-.81.09-6.39-.93-5.53.26,2.1-.23,3.47-1.86,3.69C9.31,121,10.37,114,9.92,106.11c-.08-1.39-1.06-1,0-1.85.64-.52-.86-1.79-.93-1.84-1.68-1.37.91-8.15.93-8.31.23-1.78-.27-4.13,0-5.54.4-2.08,1.61-3.57,1.86-5.53.62-5,0-10.7.93-15.69.24-1.25,1.41-3.16,1.86-4.62,1-3.23,1.23-5.48,1.85-6.46,2.08-3.23,4-8.86,8.37-8.3,8.28,5.39-.25,17.16,1.85,27.68-.57,2.2-4,1.52-2.78,5.54,2.14.28,1-2.67,2.78-2.77.5,4.39,1.57,8.69,1.86,12.92.25,3.55-1.21,2.49,0,3.69,1.94,1.93-.93,12-.93,12a115.64,115.64,0,0,0-.93,12c-1.71,1-1.21,2.68-2.78,2.77-1.32.06-1.06,2.15-1.86,2.76,1.95.84.33,5.21,2.79,5.54,2.56-.58,1.89-3.94,2.78-5.54.16-.26,1.61.22,1.86,0,.46-.4-.37-2.26,0-2.76,4.48.14,4.35-4.3,10.22-2.77-.42-2.89,2-3,4.65-2.77.56-3.83,5.92-4.7,1.86-8.31-2.23-.36.51,4.21-2.79,2.77.14-3.53,0-6.72-1.86-8.31-.57,3.43,1.51,9.5-1.86,10.16-.11-.59.15-1.27,0-1.85-.07-.3-.95-1.23-.93-.92-.14-1.76,1.05-2,.93-3.69-.08-1.24-.76-1.84-.93-3.7-.44-5,.38-8.27-.93-9.22-1.12.15-.95,1.45-.92,2.77,0,.8.89.76.92.92.15.71-.92,1-.92.92.08,1.88.8,3.59.92,5.54.1,1.57-.09,3.82,0,5.54.07,1.19,2.61,5.3-.92,4.61-3.15,0-.79-2.43-.93-3.69-.2-1.76-.87-3.87-.93-5.54s.9-2.79.93-3.69-.76-1.11-.93-1.85c-.84-3.55.79-5.4.93-7.38.3-4.38-.94-8.84,0-12.92.35-1.54,1.72-2.91,1.85-4.61.13-1.5-.86-3-.92-4.62s1-2,.92-3.69c0-1.33-1.07-1.67-.92-3.69.1-1.52.61-3.74.92-5.54s.49-4.72.93-6.46c0-.07.86.07.93,0,.26-.2-.13-1.51,0-1.84a12.31,12.31,0,0,0,.93-1.85c1.85-10.2.32-22.37,7.43-29.53h6.51c.81,1.74,2.72,3.23,2.79,4.62,0,.85.86.67.93.92,1.6,5.88-.54,19.64-.93,24-.34,3.81.92,5.38.93,7.39a81.1,81.1,0,0,1-.93,13.84c-.41,2.23-1.85,4.36-1.86,6.46,0,2.67,1.48,5.44,1.86,8.3.19,1.47-.36,3.19,0,4.62.58,2.32.3,2.53,0,5.54-.26,2.57.19,5.09,0,7.38-.17,2-1,3.3-.93,4.61,0,.71.92.86.93.93a3,3,0,0,1-.93,1.84c.23,1.39.91,3.15,1.86,3.69,0-1.22,1.63-.84,1.85-1.84v-3.69c4.21-1.42-.49,6,3.72,4.61,1.23,0,.85-1.62,1.86-1.85a2.52,2.52,0,0,0,1.86-2.77q.21-3.44-1.86-4.61c.14,2.29.17,4.48-1.86,4.61-1.11-4.56-.89-14.39-1.86-18.45-.88-3.73-2-10-1.86-12.92.24-3.83,2.4-6.31,2.79-9.23.9-6.65-1.37-17.4-.93-26.76.06-1.14.78-1.36.93-2.77a57.56,57.56,0,0,0,0-12c-.18-1.38-1-1.65-.93-3.69,0-1.22.74-2.83.93-4.61.15-1.37-.46-3.34,0-4.62.14-.36,1.59-1.41,1.86-1.84s.45-2.35.93-2.77a16.6,16.6,0,0,1,2.79-.93c.4-.17.08-.67.93-.92,3.7-1.11,4.75,2.6,6.5,1.85.06,3.72,2.3,5.48,2.79,8.3,1.11,6.47-.91,15.52,0,23.07.14,1.2.83,1.29.93,2.77.2,3.19-.23,6.51,0,9.23.06.73.91.81.93.92.11.56-.88,1.21-.93.93.21,1.18,1,1.27.93,2.77-.06,1.34-1.11,1.65-.93,3.69A15.53,15.53,0,0,0,80.54,60c1,3.27.5,6.52.93,10.15a56.78,56.78,0,0,0,1.85,6.46c1.74,6.9.62,14.59.93,23.07-1.08.15-1,1.46-.93,2.77-1.46,1.62-4.26,1.91-4.64,4.61,2.75-1.07,2.6,1.71,3.72,1.85s1.81-1.65,3.71-.93A6.47,6.47,0,0,0,88,110.72c3.65-.23,3.46,3.34,7.43,2.77,1.38,2.71-1.05,3.43,1.86,4.62,1.2,1.27,4,.91,6.51.92.09,1.45-.13,3.2,1.85,2.77.28,1.81-1.25,1.83-1.85,2.77,1,1.76,2.23,2.09,2.78,4.61.66,3-.7,6.45-.92,9.23-2,1.35-6.93-.11-7.44,2.77,2.76,0,7.43-2.75,8.36.92-1.25.91-1.85,2.46-2.78,3.69q-3.47-.21-4.65,1.85c.87,1,3.43.28,2.79,2.77q-1.43,1.35-2.79,2.76c.42,3.46-.86,4.33-1.86,5.54-1.24,1.52-5.33,7.4-6.5,4.62,1-.06.73-1.19-.93-.93-1.75,1.34-4.83,1.36-5.58,3.69h7.44a4.34,4.34,0,0,1-.93,2.77c0,1.53-2.58.52-2.79,1.85,0,.93-.75,1.1-.93,1.84.68,2.1-1.67,7.2,1.86,6.46,3-1-2.5-6,.93-7.38-.85,3.92,2.23,3.94,5.57,3.69a6,6,0,0,1-.92-4.61c2.52-1.26,2.17-5.5,2.78-6.46,1.11-1.73,2.13-3,3.72-3.69-.07,4.06.07,7.93,2.79,9.23.7-3.23-2.81-7,0-9.23-.23,2.52,1.93,6.79,3.72,6.46.33-.06-.08-2.35.92-1.85,1.82,1.73.29,3.38,0,5.54,1.18.31,1.31.84,2.79.92s.69,1.85,2.79,1.85c.72,0,1.83-.19,1.86-.93-.21-.71-.78-1.07-1.86-.92v-3.69c-1.84,0-1.18-2.52-3.72-1.85.49-3.53-2.31-6.51-2.78-10.15-1-7.6,1.69-12.14,2.78-16.61,0-1.22,1.63-.84,1.86-1.84-1.53-.41-1.53-7,0-7.39-.88,4,3.52,7.52,6.51,4.62-3,.79-2.88-1.46-4.65-1.85.92-3.68-2.78-2.78-1.86-6.46.28-3.21,2.51.08,2.79-1.84-.66-4.27.66-8.14.93-10.16.24-1.81-.17-2.8.93-3.69.09-.07.94-3.74.93-3.69.9-2.65,1.31-4.17,1.85-4.61.29-.24-.19-1.51,0-1.85s1.44-1.28,1.86-1.84c2-2.64,4.93-6.15,8.37-5.54,3,3.22,1.69,7.59,1.85,12,.2,5.21.08,13.81.93,16.61.93,3,.5,4.45.93,7.38.2,1.36.86,1.69.93,3.69.06,1.71-.76,2.08-.93,3.69a120.8,120.8,0,0,0,0,17.54c.06,1.14.8,1.33.93,2.77.74,8.17.43,23.78-.93,29.53-.43,1.81.25,2.73-.93,3.69-.08.06-.94,2.8-.93,2.77-.28,1.14-.17,1.23-.93,1.84-.25.21.13,1.52,0,1.85a6.43,6.43,0,0,1-1.85,2.77c-.84.68-.63,4-.93,4.61-.22.47-1.57,1.3-1.86,1.85-.52.94-.53,2-.93,2.77-1.31,2.53-2.79,4.86-3.72,6.46-.51.87-.33,1.82-.93,2.76-.21.35-1.54.59-1.85.93-.71.75-.32,1.85-.93,2.77-.38.57-1.46,1.21-1.86,1.84s-.34,2-.93,2.77c-1.78,2.21-5.09,4.53-7.43,6.46-5.86,4.84-7.42,6.44-14.87,5.54a10.6,10.6,0,0,1-5.57,1.84c-.64,0-1,.93-.93.93-3.06.31-7.06.59-7.44-2.77,1.93-.55,6.11,1.14,6.51-.92-2.89.5-5-.48-7.44-.93-2-.38-5.06-.39-6.5-1.84,2.12.25,3.49-.22,3.72-1.85H68.46a14.29,14.29,0,0,0-3.72-2.77c-1.58-.08-2.3-3.34-2.78-.92-.34,3.41,2.5,2.65,3.71,3.69s2.55,2.87,3.72,3.69a9.07,9.07,0,0,0,6.5,1.85c-.56,4.25,4.82,2.6,5.58,5.53-6.12.77-7.87-5.35-13-2.77-.2-.72-.78-1.07-1.86-.92.12-1.62-1-2.08-1.86-2.77-.52-.44-3.09-2.9-2.78-.92.68,2.09,3.54,2,3.71,4.61C63,241.9,62.22,236.42,61,239a37.08,37.08,0,0,0,5.57,4.61c2.24.38,2-1.68,4.65-.92,1.39,1.07,2.27,2.66,4.64,2.77,2.26-.38,2.93-1.09,4.65-.93,1.32.13,1.59,1.54,2.79,1.85,1.45.38,3.17-.29,4.64,0,2.69-.16,5.52-4.91,7.44-2.77-3.54,1.6,3.62-.07,2.79,1.85-2,.77-3.17,2.39-6.51,1.84.21,1.16,1.45,1.89-.93,1.85-.05-.56-.13-1.09-.93-.92,0,.92,0,1.84,0,2.77,1.48-1.94,4.63-1,6.51-1.85.41-.18,1.22-1.48,1.86-1.85a5.63,5.63,0,0,1,2.78-.92c.78,3-2.24,2.23-2.78,2.77-.29.29.31,1.6,0,1.85-1.53,1.21-5.86.54-5.58,3.69,2.81,1.06,5.36-5.24,5.58-.93.25,4.7-.75,10.68.93,12,2.65,2.1.51,8.59,0,12-7.71,6.25-22.2,4.61-37.17,4.61-11.65,0-22.77.61-28.81-.92-2.82-.72-4.32-1.46-4.64-1.85s-1.52.16-1.86,0c-.12-.05.09-.81,0-.92-.26-.31-1.55.27-1.86,0-1.2-1.06-1.59-3.43-1.86-4.61,4.75.51,7,3.54,10.22,5.53,1.63-.25,4.64,2.6,5.58,0-2.15-.86-4.52-2.5-5.58-2.77-.54-.13-1.34.22-1.85,0s-1.37-1.55-1.86-1.84c-.14-.08.1-.8,0-.93s-1.52.16-1.86,0c-1.12-.51-1-1.26-1.86-1.84s-2.06-.1-2.79-.92.07-2.47-.93-2.77c2-.21,3.12,1.86,4.65,2.77.92.54,2,.47,2.79.92.24.14.49.64.93.92.64.41,1.24.58,1.86.92s1.23,1.53,1.85,1.85c1.31.66,2.39.39,3.72.92.63.26.83,1.57,1.86,1.85,1.25.34,3.53-.05,3.72-.92-2.44-2.14-5.43-1.7-7.44-2.77-.52-.28-1.25-1.55-1.86-1.85-1.07-.54-1.93-.4-2.78-.92-.56-.35-1.22-1.49-1.86-1.85a29.08,29.08,0,0,0-2.79-.92c-.54-.25-1.17-1.63-2.79-.92,1-2.36-4-3.24-.93-4.62.45,1.83,2.58,1.11,3.72,1.85s1.53,3.58,3.72,2.77c-.57-.8-1.07-2.25-1.86-2.77-1-.65-2.93-.11-3.72-.92-.29-.31.18-1.46,0-1.85-.37-.83-4.67-3.62-1.86-4.61.22.75,1,1.8,1.86,1.84s2.09,1.33,2.79,1.85,1.23,1.39,1.86,1.84c2.23,1.61,5,3.86,7.43,4.62,2.15.67,5.81,1.73,6.51,0A27,27,0,0,1,35,265.76c-2-1.27-2.56-1.37-3.71-2.77-.26-.31-1.53.24-1.86,0-.64-.47-1.9-1.89-2.79-2.77-2.15-2.14-4.14-4.56-2.79-5.54C24.18,255.54,25.08,256,25.72,256.53ZM76.82,33.2c-1.58-.34-1.75.72-1.86,1.85.8-.17.88.36.93.92C77,35.82,76.68,34.29,76.82,33.2ZM67.53,53.51c-.35-1.76-1.18.58-.93,1.84C67,57.11,67.78,54.76,67.53,53.51Zm-1.86,1.84C63,54,63,59.48,65.67,58.12ZM43.37,72c-.35-1.75-1.18.59-.93,1.85C42.79,75.56,43.62,73.22,43.37,72ZM65.67,89.5c-.6-2.61-1.08,2.12-.93,2.76C65.17,94.12,66.49,93,65.67,89.5Zm7.44,12.92c-.91,0-.72,1.12-.93,1.84-.61.94-2.14,1-1.86,2.77C73.58,106.62,74.26,105.08,73.11,102.42Zm-20.45,2.76c-3.35-.87-1.29,3.64-1.86,5.54C54.16,111.6,52.1,107.09,52.66,105.18Zm-39,5.54c-3.35-.88-1.65,4-.93,4.62-.41,1.82.37,8.49.93,3.69ZM71.25,130.1c-2-.93-1.28,1.5-1.86,1.85-1.21.72-3.17.06-4.65.92,1.69,1.91,8.47,1.08,8.37-1.84C72,131.18,71.45,130.82,71.25,130.1Zm-15.8,2.77c0,.93,1.15.67,1.86.92,2.3.82,6.37,2.76,5.57,0C59.89,134,59,132.16,55.45,132.87Zm.93,3.69c0-1.41-6.89-2-5.58.92C53,137.51,53.54,135.89,56.38,136.56Zm62.26.92c-3,.78,1.64,1.22,2.78.93,2.63.09,4,3.47,6.51.92.17-1.72-2.94-.15-3.72-.92-.06-.07.07-.91,0-.93C122.51,137.19,120.61,137.7,118.64,137.48Zm-68.76,1.85c-1.53-2.63-5.05.44-6.51.92C44.67,142.65,48.18,139.58,49.88,139.33Zm39,2.77c-1.58-3.15-2.57,1.13-1.86,1.84C87.43,144.33,88.15,141.64,88.9,142.1ZM74,144.87c-1.83,1.58-2.81,4-4.64,5.53-.32.27-1.6-.31-1.86,0a7.43,7.43,0,0,1-1.86,1.85c-1,.71-2,2.32-2.79,2.77s-2.13-.43-2.78,0c-.87.56-.92,2.67-2.79,2.77-1.26.06-2.38,1.87-3.72,2.77-2.46-1-5.28-.7-5.57,2.77H42.44c.94,4.31-3.73,3.06-2.79,7.38,1.6-1.19,3.66-1.91,3.72-4.62,2.59,1.06,2.74-1.19,3.72-1.84s2.44-.7,2.78-1.85a4.4,4.4,0,0,0,2.79.93c2.59-3.59,8.94-3.43,10.22-8.31,1.6.5,4.51-1.48,6.51-2.77.51-.33-.15-.86.93-.92.27,0,1.61-1.6,1.85-1.85A5.17,5.17,0,0,0,74,144.87Zm7.44,2.77c1.43-.49.06-1-.93-.93-1.87,3-5.1,1.34-7.43,2.77-.29.18.23,1.58,0,1.85-.49.53-1.22.52-1.86.92a14.93,14.93,0,0,0-4.65,5.54c-.27.48-.87-.13-.93.92,0,.14-2.06,3.53-1.86,3.69.83.65,1.06,1.56-1.85,1.85.61,2.76,2-.89,3.71,0-.26-2.41.34-4,2.79-3.69a24.36,24.36,0,0,1,4.65-8.31h3.71C75.67,148.22,80,150,81.47,147.64ZM35,148.56c-.39-2.06-4.93-.72-5.58,0C30.37,151.16,33.38,148.3,35,148.56Zm-8.36,3.69c-1.5-.26-1.6.87-2.79.92C23.49,155,28.09,154.52,26.65,152.25Zm-5.58,6.46c-1.5-.26-1.6.87-2.79.92C17.91,161.42,22.51,161,21.07,158.71Zm54.82,7.38c2.68,2.39-3.41,5.29-2.79,9.23,3.06-1.58,3.4-5.85,5.58-8.31,2.07.14-1.21,2.33,0,4.62.79.17.87-.36.93-.92-.44-2.9,2.33-2.61,3.71-3.7-1-1.48-6.18-1-1.85-2.76-1.39-3-2.63,1.57-3.72,1.84-1.38,0-1.34-5.48-1.86-.92,0,.9-1.14.71-1.86.92-.59.79-.19,3.1-.93,3.69-.12.1-.85-.13-.92,0-.2.34.29,1.61,0,1.85s-1.8.78-1.86.92c-1.26,3-.15,7-2.79,9.23,1,.86.29,3.4,2.79,2.77.52-3.35.17-6.54.93-9.23a14.78,14.78,0,0,1,.93-2.77c.26-.35,1.68-.59,1.85-.92C75,169.76,74.22,167.51,75.89,166.09Zm-61.32-2.77c-1,.23-.63,1.84-1.86,1.85C13.11,167.72,15.63,165.22,14.57,163.32ZM71.25,167a6.53,6.53,0,0,0-1.86,2.77C69.79,172.1,71.39,168.25,71.25,167ZM62,169.78c-.38-2.29-3.61-.05-2.79,1.85C60.39,171.3,60.63,170,62,169.78Zm-24.16-.92c-1.25.61-1.73,2-1.86,3.69C37.57,172.33,38.06,171,37.8,168.86Zm31.59,3.69c-2-3.15-2.11,3.36-2.79,4.62-2.62-.94.26-3.92,0-5.54-1.63.22-2.12,1.59-1.86,3.69.06,1.14-1.42,1.23-1.86,1.85-.23.33.31,1.59,0,1.84-1.08.88-.26,1.37-.93,2.77-.16.35-1.76.66-1.85.92-.29.81.33,2,0,2.77-.17.38-.78,0-.93.93,0-.27,1,.35.93.92,0,.11-.88.19-.93.92-.35,4.39-.9,11.24,0,16.61.29,1.76-.27,3,1.86,2.77.26-4.54-1-9,0-12.92.21-.85,1-.75,1.85-.92-.49-3.57,1.66-4.5.93-8.31.55-.37,1.17,1.64.93,1.85,2.21-1.94,3.05-9.68,3.72-13.84C68.29,172.69,68.82,172.6,69.39,172.55Zm-9.29,2.77c-.93-2.09-3.86.8-4.65,1.85-.25.32.31,1.59,0,1.84-1.25,1-1.1,4.75-2.79,7.39-.66,1-.9,4.51-1.86,7.38-.43,1.3-1.7,2.91-1.85,3.69-.4,2,1.08,2.46.93,3.69-.34,2.64-2.67,4.79-1.86,10.15.21,1.38.83,1.65.93,2.77.2,2.46-.37,5.61,0,7.38,0,.15.88.15.93.93.07,1.47.61,1.6.92,2.77,2.73-1.95-.59-4.07-.92-6.46-.43-3.11,1.67-7-.93-9.23,1-2.4.59-6.18,2.78-7.39-.67-3.67-.67-3.71,0-7.38,1-.46.37-1.87.93-2.77s1.63-.76,1.86-1.84c-.07-1.47.45-3.52-.93-3.69.88-1.9,1.16-4.4,3.72-4.62C56.87,178.27,57.7,176,60.1,175.32Zm-3.72,24c-3.91,2.57-2.58,10.35-2.79,16.61,2.93-.07,1-2.76,1.86-5.54a14.12,14.12,0,0,0,0-6.46C55.07,201.7,57.15,201.92,56.38,199.32Zm.93,23.07c-3.38,1.51,1.13,2.26,1.86,2.76,1.5,1.06,1.7,3,3.71,1.85C63,223.53,58.23,224.86,57.31,222.39Zm-.93,13.84c.27-2.2,2.51,1,2.79,1.84,1.85.59,0-2.71-.93-2.76-1.65-.09-1.24-3.64-3.72-3.69.45-2.91-1.32-3.61-1.86-5.54-2.12.21-.64,3.66,0,4.61.76,1.13-.1,2.17.93,4.62.18.43,1.7.57,1.86.92,1.08,2.38,2.84,8.94,7.43,8.31-.75-.65-1.6-1.74-2.78-2.77a7.08,7.08,0,0,0-2.79-1.85C57.43,238.27,56.17,238,56.38,236.23Zm-33.45-7.38c-.67.21-.53,2.44,0,3.69.18.43,1.7.57,1.86.92.71,1.56-.2,2.64.93,4.61.22.39,1.71.6,1.85.93.6,1.3.4,2.41,1.86,3.69.31.27,1.6-.31,1.86,0,.14.16.81,1.79.93,1.84,2,.79,4-3,4.65.93,2.66-3-2.91-5.69-4.65-7.39,1-2.13-1.92-2.25-2.79-3.69-.72-1.2.3-5.33-2.79-4.61,1.24,4.61,5.18,6.55,6.51,11.07-4.75-1.13-5-6.71-9.29-8.3C24.25,230.61,23.22,230.09,22.93,228.85Zm34.38.92c-1.66-.28-.06,3.58,1.86,2.77v1.84C62.07,232.89,57.26,231.46,57.31,229.77ZM42.44,243.61c.47,3.85,4.2,4.44,7.44,5.54,1.92,1.41,5.44,4.28,8.36,1.84-.84-3.26-3.42-1.06-5.58-1.84-1.1-.4-1.71-1.27-2.78-1.85C47.76,246.16,45.89,244.42,42.44,243.61ZM31.29,268.53c1,2.54,4.84,3.48,7.43,4.61s5.76,4,8.37,1.85c-.54-1.69-3.82-1.66-5.58-2.77-1.12-.71-2.16-.3-3.71-.92C35.69,270.45,33.78,268.1,31.29,268.53Z"/><path class="cls-1" d="M74,144.87c-1.83,1.58-2.81,4-4.64,5.53-.32.27-1.6-.31-1.86,0a7.43,7.43,0,0,1-1.86,1.85c-1,.71-2,2.32-2.79,2.77s-2.13-.43-2.78,0c-.87.56-.92,2.67-2.79,2.77-1.26.06-2.38,1.87-3.72,2.77-2.46-1-5.28-.7-5.57,2.77H42.44c.94,4.31-3.73,3.06-2.79,7.38,1.6-1.19,3.66-1.91,3.72-4.62,2.59,1.06,2.74-1.19,3.72-1.84s2.44-.7,2.78-1.85a4.4,4.4,0,0,0,2.79.93c2.59-3.59,8.94-3.43,10.22-8.31,1.6.5,4.51-1.48,6.51-2.77.51-.33-.15-.86.93-.92.27,0,1.61-1.6,1.85-1.85A5.17,5.17,0,0,0,74,144.87Z"/><path class="cls-1" d="M81.47,147.64c1.43-.49.06-1-.93-.93-1.87,3-5.1,1.34-7.43,2.77-.29.18.23,1.58,0,1.85-.49.53-1.22.52-1.86.92a14.93,14.93,0,0,0-4.65,5.54c-.27.48-.87-.13-.93.92,0,.14-2.06,3.53-1.86,3.69.83.65,1.06,1.56-1.85,1.85.61,2.76,2-.89,3.71,0-.26-2.41.34-4,2.79-3.69a24.36,24.36,0,0,1,4.65-8.31h3.71C75.67,148.22,80,150,81.47,147.64Z"/><path class="cls-1" d="M75.89,166.09c2.68,2.39-3.41,5.29-2.79,9.23,3.06-1.58,3.4-5.85,5.58-8.31,2.07.14-1.21,2.33,0,4.62.79.17.87-.36.93-.92-.44-2.9,2.33-2.61,3.71-3.7-1-1.48-6.18-1-1.85-2.76-1.39-3-2.63,1.57-3.72,1.84-1.38,0-1.34-5.48-1.86-.92,0,.9-1.14.71-1.86.92-.59.79-.19,3.1-.93,3.69-.12.1-.85-.13-.92,0-.2.34.29,1.61,0,1.85s-1.8.78-1.86.92c-1.26,3-.15,7-2.79,9.23,1,.86.29,3.4,2.79,2.77.52-3.35.17-6.54.93-9.23a14.78,14.78,0,0,1,.93-2.77c.26-.35,1.68-.59,1.85-.92C75,169.76,74.22,167.51,75.89,166.09Z"/><path class="cls-1" d="M71.25,167a6.53,6.53,0,0,0-1.86,2.77C69.79,172.1,71.39,168.25,71.25,167Z"/><path class="cls-1" d="M60.1,175.32c-.93-2.09-3.86.8-4.65,1.85-.25.32.31,1.59,0,1.84-1.25,1-1.1,4.75-2.79,7.39-.66,1-.9,4.51-1.86,7.38-.43,1.3-1.7,2.91-1.85,3.69-.4,2,1.08,2.46.93,3.69-.34,2.64-2.67,4.79-1.86,10.15.21,1.38.83,1.65.93,2.77.2,2.46-.37,5.61,0,7.38,0,.15.88.15.93.93.07,1.47.61,1.6.92,2.77,2.73-1.95-.59-4.07-.92-6.46-.43-3.11,1.67-7-.93-9.23,1-2.4.59-6.18,2.78-7.39-.67-3.67-.67-3.71,0-7.38,1-.46.37-1.87.93-2.77s1.63-.76,1.86-1.84c-.07-1.47.45-3.52-.93-3.69.88-1.9,1.16-4.4,3.72-4.62C56.87,178.27,57.7,176,60.1,175.32Z"/><path class="cls-1" d="M56.38,236.23c.27-2.2,2.51,1,2.79,1.84,1.85.59,0-2.71-.93-2.76-1.65-.09-1.24-3.64-3.72-3.69.45-2.91-1.32-3.61-1.86-5.54-2.12.21-.64,3.66,0,4.61.76,1.13-.1,2.17.93,4.62.18.43,1.7.57,1.86.92,1.08,2.38,2.84,8.94,7.43,8.31-.75-.65-1.6-1.74-2.78-2.77a7.08,7.08,0,0,0-2.79-1.85C57.43,238.27,56.17,238,56.38,236.23Z"/><path class="cls-1" d="M22.93,228.85c-.67.21-.53,2.44,0,3.69.18.43,1.7.57,1.86.92.71,1.56-.2,2.64.93,4.61.22.39,1.71.6,1.85.93.6,1.3.4,2.41,1.86,3.69.31.27,1.6-.31,1.86,0,.14.16.81,1.79.93,1.84,2,.79,4-3,4.65.93,2.66-3-2.91-5.69-4.65-7.39,1-2.13-1.92-2.25-2.79-3.69-.72-1.2.3-5.33-2.79-4.61,1.24,4.61,5.18,6.55,6.51,11.07-4.75-1.13-5-6.71-9.29-8.3C24.25,230.61,23.22,230.09,22.93,228.85Z"/><path class="cls-1" d="M57.31,229.77c-1.66-.28-.06,3.58,1.86,2.77v1.84C62.07,232.89,57.26,231.46,57.31,229.77Z"/><path class="cls-2" d="M89.83,94.11c2,1.06.59,3,.93,4.61a13.92,13.92,0,0,0,.93,1.85c.13.33-.26,1.64,0,1.85,1.08.88,2.68,4.76,2.79,8.3.9,0,.72,1.13.93,1.85,2,1.88,5.85,1.93,3.71,5.54,3,.79,2.88-1.46,4.65-1.85,1.24.92,1.82,2.49,3.72,2.77.21,1.63-.94,4.62,1.85,3.69-.23-9.92.71-19.43-.93-27.69-.84-4.27-.87-13.43-2.78-18.45-.13-.33.25-1.64,0-1.85-1.18-1-.5-1.88-.93-3.69-.19-.77-.82-.91-.93-1.85-.37-3.14.28-9.32,0-13.84A142.68,142.68,0,0,0,101,35.05c-1.67-7.4-4.48-14.62-8.36-14.77C90.39,20.2,89,21.41,88,23.05,84.72,28.11,84.4,49,85.18,58.12c.36,4.1,1.54,5.19.93,10.15-.2,1.61-.9,2-.93,3.69s.75,2.87.93,4.61c.32,3,.25,5.45.93,8.31.44,1.83-.09,1.76.93,2.77.09.09,0,.78,0,.92.58,6.52-2.08,13.7,2.79,17.54,1.18-.21,1.22-2.76,0-2.77-.08-1.46.44-3.52-.93-3.69Z"/></g><g id="Left_Eye" data-name="Left Eye"><path class="cls-3" d="M132.68,172.91l-.09,0-20.53-12.87a79.12,79.12,0,0,0-24.06-10h0a79.21,79.21,0,0,0-36,0h0a79.22,79.22,0,0,0-24.06,10L7.43,173l-.08,0,.07.05-.07,0,.08,0h0L28,185.83a79.22,79.22,0,0,0,24.06,10h0a79.21,79.21,0,0,0,36,0h0a79.39,79.39,0,0,0,24-10L132.58,173h0l.09,0-.08,0Z"/><path d="M131.41,170.75l-.08,0h2.52c-12.83-8-25.48-17.32-40.12-21.77-24.08-7.32-48.79-2.53-69.79,10.63L6.17,170.79H8.69l-.08,0a2.5,2.5,0,0,0-2.52,4.32l.07.05V170.8l-.07,0c-2.29,1.42-.79,5.71,1.92,4.57-1.43.6-2.4-1-.8.36a34.42,34.42,0,0,0,4.05,2.54l10,6.27c8,5,16,9.56,25,12.31,24.26,7.37,49,2.43,70.08-10.81l10.88-6.82c1.62-1,3.36-1.94,4.9-3.07,2.17-1.59,1.6-.09-.14-.78,2.68,1.07,4.31-3.17,1.93-4.57l-.08,0v4.32l.08-.05c2.7-1.73.19-6.06-2.53-4.32l-.07.05a2.53,2.53,0,0,0,0,4.32l.07,0,1.93-4.57c-1.5-.6-3.34,1-4.49,1.77l-9.45,5.92c-7.64,4.79-15.11,9.68-23.68,12.7a77.3,77.3,0,0,1-45.58,1.81c-9.78-2.63-18.26-7.45-26.73-12.76l-11-6.9c-1.23-.78-4-3.26-5.7-2.54l1.92,4.57.07,0a2.54,2.54,0,0,0,0-4.32l-.07-.05-2.52,4.32c2,.92,3.47-.5,5.07-1.51l9.45-5.92c7.64-4.79,15.12-9.68,23.69-12.71a77.3,77.3,0,0,1,45.58-1.8c9.78,2.62,18.26,7.45,26.74,12.76l11,6.91c1.84,1.15,4,3.29,6.3,2.27C136.87,173.76,134.33,169.45,131.41,170.75Z"/><ellipse cx="70.01" cy="172.96" rx="23.89" ry="23.73"/><path d="M91.4,173a21.39,21.39,0,0,1-42.78,0c-.06-11.65,9.85-21.23,21.39-21.23A21.56,21.56,0,0,1,91.4,173c.1,3.21,5.1,3.22,5,0a26.41,26.41,0,0,0-46.8-16.61C34.31,175,51.3,203,74.82,198.74,87.38,196.46,96,185.49,96.4,173,96.5,169.74,91.5,169.74,91.4,173Z"/><g id="_12" data-name="$12"><path class="cls-3" d="M56.72,171.26,54,169a1.59,1.59,0,0,1-.64-1,8.3,8.3,0,0,1-.08-1.2v-1.93a1.72,1.72,0,0,1,.43-1.21,1.67,1.67,0,0,1,1.28-.46h.84V161.3h1.41v1.87h1.62l.6,2.66H55.9v1.11l2.94,2.6a1.87,1.87,0,0,1,.57.79,3.1,3.1,0,0,1,.14,1v2.21c0,1-.55,1.44-1.64,1.44h-.67v1.89H55.83V175H54.15l-.76-2.38h3.33v-1.31Z"/><path class="cls-3" d="M63.86,161.3h5v19h1.59v4.35h-8V180.3h1.53V165.65h-2Z"/><path class="cls-3" d="M84.94,170.12a2.7,2.7,0,0,1-.31,1.42,3.5,3.5,0,0,1-1.12,1.07l-4.44,3.51a.6.6,0,0,0-.22.54v3.64h5.67l-.84,4.35H74.14v-8.41a4.86,4.86,0,0,1,.33-1.9,2.89,2.89,0,0,1,1.2-1.32l4.44-3.38a1,1,0,0,0,.28-.26.6.6,0,0,0,0-.25v-3.06q0-.42-.45-.42H74.24l.81-4.35h7.14a2.63,2.63,0,0,1,2.75,2.87Z"/></g></g></g></svg>