<?xml version="1.0" encoding="iso-8859-1"?>
<!-- Generator: Adobe Illustrator 22.1.0, SVG Export Plug-In . SVG Version: 6.00 Build 0)  -->
<svg version="1.1" xmlns="http://www.w3.org/2000/svg" xmlns:xlink="http://www.w3.org/1999/xlink" x="0px" y="0px"
	 viewBox="0 0 89.938 31.03" style="enable-background:new 0 0 89.938 31.03;" xml:space="preserve">
<g id="Presents">
	<g>
		<path d="M33.68,18.858c-0.016,0.55-0.181,1.077-0.495,1.581c-0.314,0.505-0.713,0.966-1.196,1.386
			c-0.483,0.42-1.016,0.775-1.599,1.066c-0.583,0.29-1.143,0.488-1.679,0.596c-0.552,0.092-1.02,0.107-1.403,0.045
			c-0.506,0.361-0.985,0.624-1.438,0.789c-0.453,0.164-0.801,0.23-1.046,0.2c-0.261,0-0.479-0.065-0.656-0.195
			s-0.314-0.313-0.414-0.552s-0.157-0.514-0.172-0.828c-0.016-0.314,0-0.648,0.046-1l-0.345,0.643
			c-1.196,2.209-2.082,3.983-2.657,5.325c-0.575,1.342-0.755,2.381-0.541,3.116c-0.383-0.184-0.667-0.502-0.851-0.954
			c-0.184-0.452-0.245-1.023-0.184-1.714c0.061-0.689,0.261-1.506,0.598-2.449c0.337-0.943,0.828-2.004,1.472-3.186l3.496-6.624
			c0.168-0.368,0.33-0.74,0.483-1.115c0.153-0.376,0.276-0.74,0.368-1.093c0.092-0.353,0.146-0.682,0.161-0.989
			s-0.031-0.567-0.138-0.782c0.49,0.169,0.839,0.556,1.046,1.162c0.207,0.606,0.256,1.299,0.149,2.082
			c0.245-0.291,0.518-0.59,0.816-0.897c0.299-0.307,0.61-0.583,0.932-0.828c0.322-0.245,0.644-0.433,0.966-0.563
			c0.322-0.13,0.629-0.172,0.92-0.126c0.598,0.016,1.035,0.195,1.311,0.541c0.276,0.345,0.429,0.801,0.46,1.369
			c0.03,0.567-0.054,1.207-0.253,1.92c-0.199,0.713-0.483,1.438-0.851,2.174c-0.368,0.735-0.802,1.453-1.3,2.15
			c-0.499,0.697-1.039,1.307-1.622,1.828c0.506-0.046,0.993-0.168,1.46-0.368c0.468-0.198,0.924-0.46,1.369-0.782
			c0.537-0.398,0.978-0.862,1.323-1.391c0.345-0.529,0.517-1.123,0.517-1.783c0-0.184-0.054-0.391-0.161-0.621
			c-0.107-0.229-0.299-0.406-0.575-0.529c0.214-0.015,0.421,0,0.621,0.047c0.199,0.046,0.379,0.122,0.541,0.229
			c0.161,0.107,0.288,0.252,0.379,0.436S33.68,18.583,33.68,18.858z M24.94,17.874c0.168-0.307,0.349-0.697,0.541-1.172
			c0.191-0.476,0.333-0.967,0.426-1.473c-0.077,0.215-0.161,0.414-0.253,0.598c-0.092,0.184-0.184,0.36-0.276,0.529
			c-0.583,1.119-1.166,2.228-1.748,3.324c-0.583,1.096-1.166,2.195-1.748,3.3l-0.713,1.356c-0.153,0.307-0.326,0.687-0.518,1.14
			c-0.191,0.451-0.364,0.931-0.518,1.438c0.384-0.89,0.805-1.745,1.265-2.565s0.851-1.537,1.173-2.15L24.94,17.874z M24.871,23.624
			c0.368,0,0.782-0.189,1.242-0.571c-0.491-0.366-0.824-0.877-1-1.532c-0.176-0.656-0.211-1.365-0.104-2.128
			c-0.046,0.092-0.092,0.183-0.138,0.274s-0.1,0.184-0.161,0.275c-0.199,0.441-0.353,0.885-0.46,1.326
			c-0.107,0.442-0.157,0.839-0.149,1.189c0.007,0.351,0.073,0.633,0.195,0.846C24.419,23.519,24.61,23.624,24.871,23.624z
			 M29.954,13.597c-0.153-0.061-0.33-0.05-0.529,0.034c-0.199,0.084-0.414,0.211-0.644,0.38c-0.23,0.169-0.464,0.372-0.702,0.609
			c-0.238,0.238-0.464,0.479-0.679,0.725l-0.046,0.092c-0.215,0.261-0.414,0.525-0.598,0.793c-0.184,0.269-0.36,0.548-0.529,0.839
			l-0.414,0.897c-0.199,0.476-0.322,0.981-0.368,1.518c-0.061,0.706,0.004,1.331,0.196,1.874c0.191,0.545,0.502,0.955,0.932,1.23
			c0.368-0.413,0.732-0.908,1.092-1.482c0.36-0.575,0.69-1.186,0.989-1.829c0.299-0.644,0.564-1.284,0.794-1.921
			c0.23-0.635,0.41-1.218,0.54-1.748c0.13-0.529,0.196-0.973,0.196-1.334C30.184,13.915,30.107,13.689,29.954,13.597z
			 M31.219,14.448c-0.062-0.23-0.169-0.422-0.322-0.575c0.123,0.506,0.13,1.069,0.023,1.69s-0.276,1.253-0.506,1.897
			c-0.276,0.783-0.606,1.538-0.989,2.266c-0.383,0.729-0.751,1.361-1.104,1.898c0.445-0.491,0.84-1.027,1.185-1.61
			c0.345-0.583,0.648-1.149,0.909-1.702c0.123-0.275,0.249-0.574,0.379-0.896s0.242-0.652,0.333-0.989
			c0.092-0.337,0.149-0.675,0.172-1.012C31.323,15.077,31.295,14.754,31.219,14.448z"/>
		<path d="M37.291,21.071c-0.292,0.506-0.506,0.928-0.644,1.266c-0.138,0.337-0.211,0.609-0.219,0.816s0.031,0.353,0.115,0.437
			c0.084,0.085,0.203,0.127,0.356,0.127c0.123-0.03,0.261-0.069,0.414-0.115c0.153-0.046,0.314-0.114,0.483-0.207
			c0.659-0.444,1.25-0.95,1.771-1.519c0.521-0.566,0.997-1.264,1.426-2.092c0.214-0.384,0.287-0.802,0.218-1.254
			s-0.326-0.778-0.771-0.978c0.107-0.046,0.257-0.069,0.449-0.069c0.191,0,0.379,0.027,0.563,0.08
			c0.184,0.055,0.345,0.154,0.483,0.3c0.138,0.146,0.207,0.341,0.207,0.587c0,0.551-0.149,1.107-0.449,1.667
			c-0.299,0.56-0.667,1.085-1.104,1.575c-0.437,0.491-0.905,0.936-1.403,1.334c-0.499,0.398-0.939,0.713-1.323,0.943
			c-0.399,0.23-0.774,0.376-1.127,0.438c-0.123,0.03-0.253,0.053-0.391,0.068c-0.138,0.016-0.276,0.023-0.414,0.023
			c-0.399,0-0.69-0.1-0.874-0.299s-0.288-0.461-0.311-0.783c-0.023-0.321,0.026-0.693,0.149-1.115
			c0.123-0.422,0.307-0.854,0.552-1.299c0.598-1.059,1.054-1.863,1.368-2.416c0.314-0.551,0.548-0.965,0.702-1.241
			c0.153-0.276,0.256-0.464,0.311-0.563c0.053-0.1,0.119-0.219,0.195-0.356c-0.184,0.245-0.387,0.433-0.609,0.563
			c-0.223,0.131-0.437,0.207-0.644,0.23c-0.207,0.022-0.395-0.004-0.563-0.081c-0.169-0.077-0.276-0.199-0.322-0.368
			c-0.475,0.629-0.92,1.223-1.334,1.783c-0.414,0.559-0.747,1.111-1,1.655c-0.253,0.544-0.399,1.089-0.437,1.634
			c-0.038,0.544,0.081,1.107,0.357,1.689c-0.445-0.229-0.771-0.486-0.978-0.77c-0.207-0.284-0.333-0.576-0.38-0.875
			c-0.046-0.299-0.023-0.594,0.069-0.885c0.092-0.291,0.222-0.567,0.391-0.828c0.383-0.567,0.697-1.012,0.943-1.334
			c0.245-0.322,0.467-0.609,0.667-0.863c0.199-0.252,0.398-0.51,0.598-0.77c0.199-0.261,0.46-0.599,0.782-1.012
			c-0.23-0.383-0.311-0.767-0.242-1.15c0.069-0.383,0.199-0.759,0.391-1.127c0.192-0.368,0.395-0.736,0.609-1.104
			c0.215-0.368,0.345-0.728,0.391-1.081c0.153,0.046,0.333,0.115,0.541,0.207c0.207,0.092,0.379,0.215,0.518,0.368
			s0.222,0.333,0.253,0.541s-0.039,0.448-0.207,0.725c-0.368,0.598-0.613,1.123-0.736,1.575c-0.123,0.453-0.149,0.793-0.081,1.023
			s0.21,0.323,0.425,0.276s0.475-0.276,0.782-0.69c0.153-0.215,0.322-0.499,0.506-0.851c0.168-0.337,0.314-0.744,0.437-1.219
			c0.123-0.475,0.168-0.958,0.138-1.449c0.138,0.046,0.307,0.126,0.506,0.241c0.199,0.115,0.387,0.265,0.563,0.449
			s0.322,0.391,0.437,0.621c0.115,0.23,0.149,0.483,0.104,0.759c-0.062,0.368-0.169,0.732-0.322,1.092
			c-0.154,0.361-0.368,0.79-0.644,1.289c-0.276,0.498-0.633,1.096-1.07,1.793C38.429,19.183,37.903,20.044,37.291,21.071z
			 M36.187,21.394c0.337-0.582,0.663-1.123,0.978-1.621c0.314-0.498,0.613-0.97,0.897-1.415c0.284-0.444,0.548-0.874,0.793-1.288
			c0.245-0.414,0.483-0.828,0.713-1.242c0.215-0.398,0.372-0.763,0.472-1.093c0.1-0.329,0.088-0.632-0.035-0.908
			c-0.123,0.644-0.341,1.284-0.655,1.92c-0.314,0.636-0.66,1.27-1.035,1.897c-0.376,0.629-0.755,1.257-1.139,1.886
			S36.462,20.78,36.187,21.394z M36.922,13.804c-0.031,0.062-0.073,0.161-0.126,0.299s-0.115,0.284-0.184,0.437
			c-0.069,0.153-0.13,0.299-0.184,0.437s-0.08,0.23-0.08,0.276c-0.016,0.123-0.012,0.25,0.011,0.38s0.05,0.195,0.081,0.195
			c-0.046-0.107-0.02-0.291,0.081-0.552c0.1-0.26,0.222-0.536,0.368-0.828c0.146-0.292,0.299-0.563,0.46-0.817
			c0.161-0.253,0.287-0.433,0.379-0.54c-0.215,0-0.379,0.065-0.495,0.195C37.118,13.417,37.015,13.589,36.922,13.804z"/>
		<path d="M48.515,17.483c0.705-0.138,1.196-0.08,1.472,0.173c0.276,0.253,0.399,0.595,0.368,1.023
			c-0.031,0.476-0.184,0.95-0.46,1.426s-0.621,0.932-1.035,1.368c-0.414,0.438-0.874,0.84-1.38,1.208s-1.016,0.687-1.529,0.954
			c-0.514,0.269-1.009,0.48-1.484,0.633c-0.475,0.153-0.882,0.23-1.219,0.23c-0.721,0-1.261-0.211-1.622-0.633
			s-0.583-0.955-0.667-1.599c-0.084-0.644-0.042-1.353,0.126-2.128c0.168-0.773,0.414-1.521,0.736-2.242
			c0.184-0.414,0.46-0.893,0.828-1.438c0.368-0.544,0.805-1.062,1.311-1.552s1.069-0.916,1.69-1.277
			c0.621-0.36,1.284-0.578,1.99-0.655c0.322-0.031,0.575,0.016,0.759,0.138c0-0.429-0.115-0.759-0.345-0.989
			c0.322-0.061,0.621-0.019,0.897,0.126c0.276,0.146,0.518,0.33,0.724,0.552c0.207,0.222,0.364,0.445,0.472,0.667
			c0.107,0.222,0.153,0.379,0.138,0.471c-0.031,0.138-0.058,0.265-0.081,0.38c-0.023,0.115-0.069,0.241-0.138,0.379
			c-0.069,0.138-0.165,0.299-0.288,0.483s-0.284,0.414-0.483,0.69c-0.276,0.353-0.521,0.656-0.736,0.909
			c-0.215,0.253-0.434,0.49-0.656,0.713s-0.464,0.441-0.724,0.655c-0.261,0.216-0.567,0.445-0.92,0.69
			c-0.445,0.322-0.955,0.663-1.53,1.023c-0.575,0.36-1.146,0.655-1.713,0.885c-0.169,0.783-0.184,1.441-0.046,1.979
			c0.138,0.537,0.498,0.82,1.081,0.852c0.475,0.016,1.012-0.131,1.61-0.438s1.173-0.701,1.725-1.185
			c0.552-0.483,1.023-1.016,1.415-1.599c0.391-0.582,0.617-1.143,0.678-1.679c0.031-0.322-0.039-0.579-0.207-0.771
			C49.105,17.718,48.852,17.575,48.515,17.483z M41.247,21.118c0,0.015,0.015,0.022,0.046,0.022
			C41.277,21.141,41.262,21.133,41.247,21.118z M42.075,23.142c0.092,0.153,0.214,0.269,0.368,0.346
			c-0.245-0.414-0.383-0.871-0.414-1.369s0.012-1.016,0.126-1.553c0.115-0.537,0.284-1.076,0.506-1.621
			c0.222-0.545,0.479-1.07,0.771-1.576c0.291-0.506,0.598-0.973,0.92-1.402c0.322-0.429,0.636-0.805,0.943-1.127l0.115-0.115
			c-0.092,0.062-0.173,0.115-0.242,0.161c-0.069,0.046-0.119,0.084-0.149,0.115c-0.292,0.23-0.598,0.537-0.92,0.92
			c-0.322,0.384-0.629,0.809-0.92,1.277c-0.292,0.468-0.552,0.963-0.782,1.483c-0.23,0.521-0.402,1.046-0.518,1.575
			c-0.115,0.529-0.165,1.039-0.149,1.529C41.745,22.275,41.859,22.728,42.075,23.142z M47.825,14.103
			c-0.491,0.138-0.97,0.411-1.438,0.816c-0.468,0.407-0.909,0.89-1.323,1.449c-0.414,0.561-0.786,1.17-1.115,1.828
			c-0.33,0.66-0.587,1.297-0.771,1.909c0.598-0.46,1.234-1.016,1.909-1.667c0.675-0.652,1.28-1.308,1.817-1.967
			c0.169-0.199,0.387-0.518,0.656-0.955c0.268-0.437,0.486-0.893,0.655-1.369C48.108,14.072,47.978,14.057,47.825,14.103z
			 M49.112,13.367c0.031,0.215,0.015,0.433-0.046,0.655c-0.062,0.223-0.13,0.441-0.207,0.656c-0.215,0.491-0.46,0.924-0.736,1.299
			c-0.276,0.376-0.46,0.641-0.552,0.793c0.153-0.138,0.341-0.33,0.564-0.575c0.222-0.245,0.433-0.51,0.632-0.794
			c0.199-0.283,0.372-0.571,0.518-0.862c0.146-0.291,0.218-0.552,0.218-0.782c0-0.031-0.046-0.092-0.138-0.184
			C49.274,13.482,49.189,13.413,49.112,13.367z"/>
		<path d="M32.759,5.915c-0.782,0.246-1.694,0.537-2.737,0.874c-1.043,0.337-2.143,0.69-3.301,1.058
			c-1.158,0.368-2.346,0.74-3.565,1.115c-1.219,0.376-2.396,0.713-3.53,1.012c-1.135,0.299-2.193,0.548-3.174,0.748
			c-0.981,0.199-1.825,0.307-2.53,0.322c-1.671,0.062-3.132-0.092-4.382-0.46c-1.25-0.368-2.158-0.981-2.725-1.84
			C5.865,8.514,4.983,8.211,4.17,7.835C3.358,7.46,2.652,7.019,2.054,6.513c-0.598-0.506-1.077-1.07-1.438-1.69
			C0.257,4.201,0.053,3.53,0.007,2.81c-0.031-0.475,0.034-0.916,0.195-1.322s0.391-0.74,0.69-1c0.299-0.261,0.664-0.418,1.093-0.472
			S2.882,0.05,3.388,0.28C2.837,0.402,2.441,0.64,2.204,0.993C1.966,1.346,1.832,1.744,1.801,2.189
			C1.755,2.863,1.844,3.481,2.066,4.04C2.288,4.6,2.603,5.109,3.009,5.57c0.406,0.46,0.897,0.866,1.472,1.219
			c0.575,0.353,1.2,0.66,1.874,0.92C6.309,7.54,6.279,7.36,6.263,7.168C6.248,6.977,6.24,6.774,6.24,6.559
			c0.016-0.506,0.13-1.004,0.345-1.495C6.8,4.573,7.103,4.151,7.494,3.799c0.391-0.353,0.855-0.61,1.392-0.771
			c0.537-0.161,1.127-0.18,1.771-0.058c0.123,0.031,0.28,0.081,0.472,0.149s0.379,0.172,0.563,0.311
			c0.184,0.138,0.345,0.318,0.483,0.541c0.138,0.222,0.222,0.495,0.253,0.816c-0.261-0.245-0.575-0.425-0.943-0.541
			c-0.368-0.115-0.636-0.165-0.805-0.149C10.204,4.067,9.771,4.121,9.38,4.259C8.989,4.397,8.648,4.592,8.357,4.845
			C8.065,5.098,7.843,5.397,7.69,5.742c-0.153,0.345-0.23,0.725-0.23,1.138c0.016,0.46,0.084,0.874,0.207,1.242
			c0.767,0.2,1.545,0.345,2.334,0.437c0.79,0.092,1.568,0.13,2.335,0.115c2.039-0.031,3.891-0.157,5.554-0.38
			c1.664-0.222,3.239-0.486,4.727-0.793c1.487-0.307,2.933-0.636,4.335-0.989c1.403-0.353,2.856-0.679,4.358-0.978
			c1.503-0.299,3.109-0.552,4.819-0.759s3.615-0.318,5.715-0.333c1.564,0.016,3.074,0.142,4.531,0.38
			c1.457,0.238,2.825,0.579,4.106,1.023c1.279,0.445,2.445,0.989,3.495,1.633c1.051,0.644,1.951,1.369,2.703,2.173
			c0.751,0.805,1.33,1.695,1.736,2.668s0.602,2.012,0.587,3.116c0,0.414-0.039,0.882-0.115,1.402
			c-0.077,0.521-0.195,1.043-0.356,1.564s-0.372,1.023-0.633,1.507s-0.591,0.901-0.989,1.253c-0.414,0.553-0.928,1.059-1.541,1.519
			s-1.25,0.843-1.909,1.149c-0.659,0.308-1.307,0.525-1.943,0.656c-0.636,0.13-1.192,0.142-1.667,0.034
			c-0.337-0.015-0.617-0.096-0.839-0.241s-0.391-0.338-0.506-0.575c-0.115-0.237-0.184-0.506-0.207-0.806
			c-0.023-0.299-0.012-0.609,0.034-0.931c0.092-0.536,0.292-1.038,0.598-1.507c0.307-0.467,0.682-0.881,1.127-1.242
			c0.445-0.359,0.935-0.655,1.472-0.885c0.537-0.23,1.088-0.383,1.656-0.461h0.138c0.092-0.336,0.161-0.636,0.207-0.896
			s0.092-0.502,0.138-0.725c0.047-0.222,0.1-0.437,0.161-0.644s0.146-0.425,0.253-0.655l0.207-0.414
			c-0.307,0.261-0.605,0.533-0.896,0.816c-0.292,0.284-0.545,0.567-0.759,0.851c-0.215,0.284-0.38,0.552-0.495,0.806
			c-0.115,0.252-0.149,0.471-0.104,0.654c-0.169-0.106-0.303-0.244-0.402-0.414c-0.1-0.168-0.142-0.359-0.126-0.574
			c0.015-0.215,0.095-0.452,0.241-0.713c0.146-0.261,0.379-0.529,0.701-0.805c0.199-0.168,0.44-0.36,0.725-0.575
			c0.283-0.214,0.587-0.425,0.908-0.632c0.322-0.207,0.648-0.395,0.978-0.563c0.33-0.168,0.633-0.284,0.909-0.345
			c0.444-0.168,0.966-0.26,1.563-0.276c-0.414,0.307-0.744,0.656-0.989,1.046c-0.245,0.391-0.448,0.816-0.609,1.277
			c-0.161,0.46-0.287,0.943-0.379,1.448c-0.092,0.506-0.192,1.021-0.299,1.541c0.536,0.262,0.809,0.664,0.816,1.208
			c0.007,0.544-0.326,1.146-1.001,1.806c0.153-0.307,0.241-0.652,0.265-1.035s-0.073-0.713-0.287-0.988
			c-0.062,0.215-0.127,0.433-0.196,0.654c-0.068,0.223-0.142,0.441-0.218,0.656c-0.2,0.49-0.422,0.954-0.667,1.391
			c-0.246,0.438-0.545,0.832-0.897,1.186c-0.123,0.123-0.233,0.237-0.333,0.345c-0.101,0.107-0.211,0.207-0.334,0.299
			c0.552-0.199,1.097-0.468,1.633-0.806c0.537-0.336,1.016-0.724,1.438-1.16c0.422-0.438,0.76-0.912,1.013-1.427
			c0.253-0.514,0.379-1.046,0.379-1.599c0-0.184-0.054-0.391-0.161-0.621c-0.107-0.229-0.299-0.406-0.574-0.529
			c0.214-0.015,0.425,0,0.632,0.047c0.207,0.046,0.392,0.123,0.552,0.23c0.161,0.107,0.288,0.252,0.38,0.437
			c0.092,0.184,0.13,0.413,0.115,0.69c-0.016,0.168-0.035,0.329-0.058,0.482c-0.023,0.153-0.065,0.307-0.127,0.46
			c0.338-0.599,0.571-1.257,0.702-1.978c0.13-0.721,0.203-1.48,0.218-2.277c0.016-1.089-0.188-2.108-0.609-3.059
			s-1.016-1.825-1.782-2.622c-0.767-0.797-1.676-1.506-2.726-2.127s-2.2-1.146-3.45-1.576c-1.25-0.429-2.572-0.751-3.967-0.966
			c-1.395-0.215-2.813-0.314-4.255-0.299c-1.687,0.031-3.251,0.127-4.692,0.288c-1.441,0.161-2.821,0.365-4.14,0.61
			C32.92,5.861,32.867,5.9,32.759,5.915z M12.151,9.318c-1.38,0.031-2.691-0.064-3.933-0.286C8.51,9.342,8.862,9.588,9.276,9.774
			s0.87,0.325,1.368,0.417c0.499,0.093,1.028,0.151,1.587,0.174s1.123,0.034,1.69,0.034c0.613,0,1.361-0.069,2.242-0.208
			c0.882-0.139,1.836-0.327,2.864-0.566c1.027-0.239,2.097-0.513,3.208-0.821c1.112-0.309,2.212-0.625,3.3-0.948
			c1.089-0.323,2.131-0.636,3.128-0.936c0.997-0.301,1.902-0.574,2.714-0.821c-1.503,0.325-2.971,0.668-4.405,1.031
			c-1.434,0.363-2.909,0.699-4.427,1.008s-3.124,0.576-4.819,0.799C16.035,9.161,14.175,9.288,12.151,9.318z M52.447,20.45
			c0.169-0.398,0.311-0.762,0.426-1.092s0.211-0.633,0.287-0.908c-0.49,0.03-0.97,0.148-1.438,0.355
			c-0.467,0.207-0.893,0.48-1.276,0.816c-0.383,0.338-0.706,0.717-0.966,1.139s-0.422,0.863-0.483,1.322
			c-0.076,0.506-0.046,0.932,0.092,1.277c0.138,0.345,0.353,0.502,0.644,0.471c0.23-0.015,0.479-0.148,0.748-0.402
			c0.268-0.252,0.529-0.555,0.782-0.908c0.253-0.353,0.483-0.717,0.69-1.092C52.16,21.053,52.324,20.727,52.447,20.45z
			 M54.655,15.483c-0.184,0.552-0.341,1.158-0.472,1.817c-0.13,0.659-0.287,1.322-0.471,1.989c-0.185,0.667-0.407,1.315-0.667,1.943
			c-0.262,0.629-0.606,1.181-1.035,1.656c0.307-0.229,0.57-0.498,0.793-0.806c0.223-0.307,0.418-0.636,0.587-0.988
			c0.168-0.353,0.311-0.717,0.426-1.093c0.114-0.376,0.218-0.739,0.311-1.093c0.092-0.398,0.18-0.793,0.264-1.184
			c0.084-0.392,0.173-0.783,0.265-1.174s0.203-0.793,0.334-1.207c0.13-0.414,0.303-0.843,0.518-1.288
			c-0.185,0.199-0.35,0.414-0.495,0.644S54.747,15.191,54.655,15.483z"/>
		<path d="M64.315,17.483c0.705-0.138,1.196-0.08,1.472,0.173c0.276,0.253,0.399,0.595,0.368,1.023
			c-0.03,0.476-0.184,0.95-0.46,1.426c-0.275,0.476-0.621,0.932-1.035,1.368c-0.414,0.438-0.874,0.84-1.38,1.208
			s-1.016,0.687-1.529,0.954c-0.514,0.269-1.009,0.48-1.483,0.633c-0.476,0.153-0.882,0.23-1.219,0.23
			c-0.721,0-1.262-0.211-1.622-0.633s-0.583-0.955-0.667-1.599s-0.042-1.353,0.127-2.128c0.168-0.773,0.414-1.521,0.735-2.242
			c0.185-0.414,0.461-0.893,0.828-1.438c0.368-0.544,0.806-1.062,1.312-1.552s1.069-0.916,1.69-1.277
			c0.621-0.36,1.284-0.578,1.989-0.655c0.322-0.031,0.575,0.016,0.759,0.138c0-0.429-0.114-0.759-0.345-0.989
			c0.322-0.061,0.621-0.019,0.897,0.126c0.275,0.146,0.518,0.33,0.724,0.552c0.207,0.222,0.364,0.445,0.472,0.667
			s0.153,0.379,0.139,0.471c-0.031,0.138-0.058,0.265-0.081,0.38c-0.022,0.115-0.068,0.241-0.138,0.379
			c-0.069,0.138-0.165,0.299-0.288,0.483c-0.122,0.184-0.283,0.414-0.482,0.69c-0.276,0.353-0.521,0.656-0.736,0.909
			s-0.434,0.49-0.655,0.713c-0.223,0.223-0.464,0.441-0.725,0.655c-0.261,0.216-0.567,0.445-0.92,0.69
			c-0.445,0.322-0.954,0.663-1.529,1.023s-1.146,0.655-1.714,0.885c-0.169,0.783-0.184,1.441-0.046,1.979s0.498,0.82,1.081,0.852
			c0.476,0.016,1.012-0.131,1.61-0.438c0.598-0.307,1.173-0.701,1.725-1.185s1.023-1.016,1.415-1.599
			c0.391-0.582,0.616-1.143,0.678-1.679c0.031-0.322-0.038-0.579-0.207-0.771S64.652,17.575,64.315,17.483z M57.047,21.118
			c0,0.015,0.015,0.022,0.046,0.022C57.078,21.141,57.062,21.133,57.047,21.118z M57.876,23.142
			c0.092,0.153,0.214,0.269,0.367,0.346c-0.245-0.414-0.383-0.871-0.414-1.369c-0.03-0.498,0.012-1.016,0.127-1.553
			s0.283-1.076,0.506-1.621s0.479-1.07,0.771-1.576s0.598-0.973,0.92-1.402s0.637-0.805,0.943-1.127l0.115-0.115
			c-0.093,0.062-0.173,0.115-0.242,0.161C60.9,14.931,60.849,14.969,60.819,15c-0.291,0.23-0.598,0.537-0.92,0.92
			c-0.322,0.384-0.629,0.809-0.92,1.277s-0.552,0.963-0.782,1.483c-0.229,0.521-0.402,1.046-0.518,1.575
			c-0.114,0.529-0.165,1.039-0.149,1.529C57.545,22.275,57.66,22.728,57.876,23.142z M63.626,14.103
			c-0.491,0.138-0.971,0.411-1.438,0.816c-0.469,0.407-0.909,0.89-1.323,1.449c-0.414,0.561-0.785,1.17-1.115,1.828
			c-0.33,0.66-0.587,1.297-0.771,1.909c0.598-0.46,1.234-1.016,1.909-1.667c0.675-0.652,1.28-1.308,1.816-1.967
			c0.169-0.199,0.388-0.518,0.656-0.955c0.268-0.437,0.486-0.893,0.655-1.369C63.909,14.072,63.778,14.057,63.626,14.103z
			 M64.913,13.367c0.031,0.215,0.016,0.433-0.046,0.655c-0.062,0.223-0.13,0.441-0.207,0.656c-0.215,0.491-0.46,0.924-0.735,1.299
			c-0.276,0.376-0.46,0.641-0.553,0.793c0.153-0.138,0.342-0.33,0.564-0.575c0.222-0.245,0.433-0.51,0.632-0.794
			c0.199-0.283,0.372-0.571,0.518-0.862c0.146-0.291,0.219-0.552,0.219-0.782c0-0.031-0.046-0.092-0.138-0.184
			C65.074,13.482,64.99,13.413,64.913,13.367z"/>
		<path d="M71.674,16.449c0.015-0.046,0.101-0.203,0.253-0.472c0.154-0.268,0.291-0.556,0.414-0.862s0.191-0.583,0.207-0.828
			c0.016-0.245-0.1-0.368-0.346-0.368c-0.307,0-0.717,0.242-1.229,0.725c-0.514,0.483-1.046,1.073-1.599,1.771
			c-0.552,0.698-1.081,1.435-1.587,2.208c-0.506,0.774-0.92,1.453-1.242,2.035c-0.275,0.537-0.49,0.986-0.644,1.346
			c-0.153,0.361-0.261,0.676-0.322,0.943s-0.08,0.518-0.058,0.747c0.023,0.23,0.081,0.483,0.173,0.759
			c-0.384-0.184-0.683-0.463-0.897-0.839c-0.214-0.376-0.295-0.894-0.241-1.553s0.261-1.495,0.621-2.507s0.932-2.246,1.714-3.703
			c0.184-0.353,0.353-0.717,0.506-1.092c0.153-0.376,0.275-0.744,0.368-1.104c0.092-0.36,0.142-0.694,0.149-1
			c0.007-0.307-0.043-0.567-0.149-0.782c0.353,0.123,0.621,0.353,0.805,0.69c0.184,0.337,0.299,0.744,0.345,1.219s0.02,1-0.08,1.575
			c-0.101,0.575-0.265,1.155-0.495,1.737c0.368-0.506,0.756-1.008,1.162-1.507c0.406-0.498,0.816-0.943,1.23-1.334
			c0.414-0.391,0.816-0.705,1.207-0.943c0.391-0.237,0.756-0.364,1.092-0.379c0.43-0.015,0.744,0.096,0.943,0.333
			s0.311,0.541,0.334,0.908c0.023,0.368-0.023,0.763-0.139,1.185c-0.115,0.422-0.264,0.809-0.447,1.162l-2.715,4.922
			c-0.536,0.981-0.778,1.645-0.724,1.989c0.053,0.346,0.471,0.311,1.253-0.104c0.322-0.168,0.682-0.422,1.08-0.759
			c0.398-0.337,0.771-0.716,1.117-1.138c0.344-0.422,0.635-0.859,0.873-1.312s0.357-0.878,0.357-1.276
			c0-0.261-0.062-0.51-0.186-0.748c-0.123-0.237-0.322-0.418-0.598-0.54c0.107-0.046,0.262-0.065,0.461-0.058
			s0.395,0.046,0.586,0.115c0.191,0.068,0.357,0.188,0.494,0.356c0.139,0.169,0.199,0.391,0.184,0.667
			c-0.029,0.414-0.152,0.848-0.367,1.299c-0.215,0.453-0.494,0.897-0.84,1.334c-0.344,0.438-0.74,0.852-1.184,1.242
			c-0.445,0.391-0.906,0.736-1.381,1.035s-0.951,0.537-1.426,0.713c-0.476,0.177-0.92,0.265-1.334,0.265
			c-0.567-0.015-0.843-0.364-0.828-1.046c0.016-0.683,0.368-1.699,1.059-3.048L71.674,16.449z M67.236,17.599
			c0.061-0.139,0.142-0.322,0.241-0.553c0.1-0.229,0.203-0.479,0.311-0.747c0.107-0.269,0.207-0.541,0.299-0.817
			c0.093-0.276,0.161-0.529,0.207-0.759c-0.199,0.445-0.429,0.958-0.689,1.541c-0.261,0.583-0.491,1.073-0.69,1.473
			c-0.092,0.215-0.203,0.455-0.333,0.724c-0.131,0.269-0.261,0.544-0.392,0.828c-0.13,0.284-0.253,0.56-0.368,0.828
			c-0.114,0.269-0.203,0.51-0.264,0.725c-0.031,0.062-0.065,0.142-0.104,0.241c-0.039,0.1-0.043,0.127-0.012,0.08l0.621-1.219
			L67.236,17.599z M69.559,22.682c0.229-0.46,0.49-0.962,0.781-1.507c0.292-0.544,0.595-1.104,0.909-1.679
			c0.313-0.575,0.621-1.149,0.92-1.726c0.299-0.574,0.57-1.115,0.816-1.621c0.123-0.245,0.244-0.541,0.367-0.885
			c0.123-0.345,0.17-0.671,0.139-0.978c-0.016-0.092-0.043-0.191-0.08-0.299c-0.039-0.107-0.111-0.184-0.219-0.23
			c0.029,0.092,0.061,0.23,0.092,0.414c0.031,0.276,0.004,0.544-0.08,0.805c-0.086,0.261-0.189,0.521-0.311,0.782
			c-0.262,0.537-0.545,1.096-0.852,1.679s-0.613,1.169-0.92,1.76s-0.598,1.181-0.874,1.771
			C69.973,21.559,69.743,22.13,69.559,22.682z"/>
		<path d="M75.929,23.671c0.107-0.031,0.223-0.069,0.345-0.115c0.123-0.046,0.269-0.115,0.438-0.207
			c0.322-0.168,0.682-0.426,1.081-0.771c0.398-0.345,0.771-0.725,1.115-1.139s0.636-0.851,0.874-1.312
			c0.237-0.459,0.356-0.889,0.356-1.287c0-0.261-0.062-0.51-0.184-0.748c-0.123-0.237-0.322-0.418-0.599-0.54
			c0.107-0.046,0.261-0.065,0.46-0.058c0.199,0.008,0.395,0.046,0.587,0.115c0.191,0.068,0.356,0.188,0.494,0.356
			c0.139,0.169,0.199,0.391,0.185,0.667c-0.031,0.537-0.215,1.092-0.552,1.668c-0.338,0.574-0.756,1.123-1.254,1.645
			c-0.498,0.521-1.055,0.988-1.668,1.402s-1.211,0.721-1.794,0.92c-0.476,0.169-0.896,0.253-1.265,0.253
			c-0.276,0-0.494-0.072-0.655-0.218s-0.242-0.383-0.242-0.712s0.097-0.776,0.288-1.343s0.502-1.278,0.932-2.136l4.438-8.932
			c-0.414,0-0.778,0.018-1.092,0.053c-0.314,0.035-0.563,0.109-0.748,0.223c0.123-0.383,0.395-0.678,0.816-0.885
			s0.939-0.356,1.553-0.449l0.391-0.805c0.169-0.368,0.33-0.739,0.483-1.115c0.153-0.375,0.276-0.74,0.368-1.093
			c0.092-0.353,0.146-0.682,0.161-0.989c0.015-0.307-0.031-0.567-0.139-0.782c0.322,0.107,0.579,0.309,0.771,0.607
			c0.191,0.297,0.326,0.652,0.402,1.064c0.077,0.412,0.089,0.87,0.035,1.373c-0.054,0.504-0.165,1.007-0.334,1.51
			c0.828-0.03,1.683-0.045,2.564-0.045s1.694-0.03,2.438-0.09c0.743-0.061,1.384-0.181,1.92-0.362
			c0.537-0.181,0.882-0.467,1.035-0.859c0.016,0.557-0.096,1.017-0.333,1.38c-0.238,0.363-0.567,0.649-0.989,0.858
			c-0.422,0.209-0.916,0.359-1.483,0.452s-1.17,0.146-1.806,0.162c-0.637,0.015-1.292,0.004-1.967-0.035
			c-0.675-0.038-1.326-0.073-1.955-0.104l-0.138,0.252l-5.083,9.477c-0.092,0.153-0.207,0.388-0.345,0.701
			c-0.138,0.314-0.249,0.625-0.334,0.932c-0.084,0.307-0.104,0.572-0.057,0.794C75.493,23.628,75.653,23.717,75.929,23.671z
			 M80.783,10.584c0.122-0.291,0.256-0.64,0.402-1.046c0.146-0.406,0.249-0.793,0.311-1.162c-0.169,0.414-0.346,0.813-0.529,1.196
			c-0.414,0.843-0.87,1.748-1.368,2.714c-0.499,0.966-0.997,1.943-1.495,2.933c-0.499,0.989-0.985,1.962-1.461,2.921
			c-0.476,0.958-0.896,1.852-1.265,2.679l5.152-9.729l0.229-0.483c0.92,0.062,1.84,0.111,2.76,0.149
			c0.92,0.039,1.84,0.02,2.761-0.057c0.337-0.031,0.724-0.083,1.161-0.154c0.437-0.071,0.824-0.216,1.161-0.437
			c-0.215,0.064-0.434,0.108-0.655,0.132c-0.223,0.023-0.448,0.051-0.679,0.083c-0.997,0.127-1.989,0.179-2.979,0.155
			c-0.988-0.024-1.981-0.004-2.979,0.06L80.783,10.584z"/>
		<path d="M85.98,21.095c0.153-0.307,0.242-0.652,0.265-1.035c0.023-0.383-0.072-0.713-0.287-0.988
			c-0.062,0.215-0.127,0.433-0.195,0.654c-0.069,0.223-0.143,0.441-0.219,0.656c-0.199,0.49-0.422,0.954-0.667,1.391
			c-0.245,0.438-0.545,0.832-0.897,1.186c-0.122,0.123-0.233,0.237-0.333,0.345s-0.211,0.207-0.334,0.299
			c0.553-0.199,1.097-0.468,1.634-0.806c0.536-0.336,1.016-0.724,1.438-1.16c0.421-0.438,0.759-0.912,1.012-1.427
			c0.253-0.514,0.379-1.046,0.379-1.599c0-0.184-0.054-0.391-0.16-0.621c-0.107-0.229-0.3-0.406-0.575-0.529
			c0.214-0.015,0.425,0,0.632,0.047c0.207,0.046,0.392,0.123,0.553,0.23s0.287,0.252,0.379,0.437
			c0.093,0.184,0.131,0.413,0.115,0.69c-0.016,0.551-0.165,1.084-0.448,1.598c-0.284,0.514-0.652,0.997-1.104,1.449
			c-0.452,0.453-0.962,0.859-1.529,1.219c-0.567,0.361-1.143,0.66-1.725,0.896c-0.583,0.238-1.15,0.403-1.702,0.495
			c-0.552,0.093-1.035,0.093-1.449,0c-0.337-0.015-0.617-0.096-0.84-0.241c-0.222-0.146-0.391-0.338-0.506-0.575
			c-0.114-0.237-0.184-0.506-0.207-0.806c-0.022-0.299-0.011-0.609,0.035-0.931c0.092-0.536,0.291-1.038,0.598-1.507
			c0.307-0.467,0.682-0.881,1.127-1.242c0.444-0.359,0.936-0.655,1.472-0.885c0.537-0.23,1.089-0.383,1.656-0.461h0.138
			c0.093-0.336,0.161-0.636,0.207-0.896c0.047-0.261,0.093-0.502,0.139-0.725c0.046-0.222,0.1-0.437,0.161-0.644
			c0.061-0.207,0.146-0.425,0.253-0.655l0.207-0.414c-0.308,0.261-0.606,0.533-0.897,0.816c-0.291,0.284-0.544,0.567-0.759,0.851
			c-0.215,0.284-0.38,0.552-0.494,0.806c-0.115,0.252-0.15,0.471-0.104,0.654c-0.169-0.106-0.304-0.244-0.403-0.414
			c-0.1-0.168-0.142-0.359-0.126-0.574c0.015-0.215,0.096-0.452,0.241-0.713s0.38-0.529,0.701-0.805
			c0.199-0.168,0.441-0.36,0.725-0.575c0.284-0.214,0.587-0.425,0.909-0.632c0.321-0.207,0.647-0.395,0.978-0.563
			c0.329-0.168,0.632-0.284,0.908-0.345c0.444-0.168,0.966-0.26,1.563-0.276c-0.413,0.307-0.743,0.656-0.988,1.046
			c-0.246,0.391-0.449,0.816-0.609,1.277c-0.161,0.46-0.288,0.943-0.38,1.448c-0.092,0.506-0.192,1.021-0.299,1.541
			c0.536,0.262,0.809,0.664,0.816,1.208S86.655,20.436,85.98,21.095z M83.358,20.45c0.169-0.398,0.311-0.762,0.426-1.092
			s0.211-0.633,0.288-0.908c-0.491,0.03-0.971,0.148-1.438,0.355c-0.469,0.207-0.894,0.48-1.277,0.816
			c-0.383,0.338-0.705,0.717-0.966,1.139s-0.422,0.863-0.482,1.322c-0.077,0.506-0.046,0.932,0.092,1.277
			c0.138,0.345,0.353,0.502,0.644,0.471c0.23-0.015,0.479-0.148,0.748-0.402c0.268-0.252,0.528-0.555,0.782-0.908
			c0.253-0.353,0.482-0.717,0.689-1.092C83.071,21.053,83.236,20.727,83.358,20.45z M85.566,15.483
			c-0.184,0.552-0.341,1.158-0.471,1.817c-0.131,0.659-0.288,1.322-0.472,1.989c-0.185,0.667-0.406,1.315-0.667,1.943
			c-0.261,0.629-0.606,1.181-1.035,1.656c0.307-0.229,0.571-0.498,0.794-0.806c0.222-0.307,0.417-0.636,0.586-0.988
			s0.311-0.717,0.426-1.093s0.219-0.739,0.311-1.093c0.092-0.398,0.18-0.793,0.265-1.184c0.084-0.392,0.172-0.783,0.264-1.174
			c0.093-0.391,0.203-0.793,0.334-1.207c0.13-0.414,0.303-0.843,0.518-1.288c-0.185,0.199-0.349,0.414-0.494,0.644
			C85.777,14.931,85.659,15.191,85.566,15.483z"/>
	</g>
</g>
<g id="Layer_1">
</g>
</svg>
