<svg id="Layer_1" data-name="Layer 1" xmlns="http://www.w3.org/2000/svg" viewBox="0 0 138.66 286.59"><defs><style>.cls-1{fill:#010101;}.cls-2{fill:#cf9e76;}.cls-3{fill:#fff;}.cls-4{isolation:isolate;}</style></defs><title>left-hand</title><g id="Right_Hand" data-name="Right Hand"><g id="Right"><path class="cls-1" d="M62.76,36c.06-.56.14-1.09.93-.92-.1-1.13-.28-2.19-1.86-1.85C62,34.29,61.67,35.82,62.76,36Z"/><path class="cls-1" d="M72.06,55.35c.25-1.26-.58-3.6-.93-1.84C70.87,54.76,71.7,57.11,72.06,55.35Z"/><path class="cls-1" d="M73,58.12c2.7,1.36,2.7-4.13,0-2.77Z"/><path class="cls-1" d="M96.21,73.81c.26-1.26-.57-3.6-.92-1.85C95,73.22,95.86,75.56,96.21,73.81Z"/><path class="cls-1" d="M73.92,92.26c.14-.64-.33-5.37-.93-2.76C72.17,93,73.48,94.12,73.92,92.26Z"/><path class="cls-1" d="M68.34,107c.28-1.81-1.26-1.83-1.86-2.77-.21-.72,0-1.82-.93-1.84C64.4,105.08,65.08,106.62,68.34,107Z"/><path class="cls-1" d="M87.85,110.72c-.56-1.9,1.5-6.41-1.86-5.54C86.56,107.09,84.49,111.6,87.85,110.72Z"/><path class="cls-1" d="M125,119c.56,4.8,1.34-1.87.93-3.69.72-.63,2.42-5.5-.93-4.62Z"/><path class="cls-1" d="M65.55,131c-.1,2.93,6.68,3.76,8.37,1.85-1.48-.86-3.45-.2-4.65-.92-.58-.35.08-2.78-1.86-1.85C67.21,130.82,66.63,131.18,65.55,131Z"/><path class="cls-1" d="M75.77,133.79c-.8,2.76,3.28.82,5.58,0,.7-.25,1.84,0,1.86-.92C79.7,132.16,78.76,134,75.77,133.79Z"/><path class="cls-1" d="M87.85,137.48c1.31-2.94-5.56-2.33-5.57-.92C85.12,135.89,85.66,137.51,87.85,137.48Z"/><path class="cls-1" d="M14.45,137.48c-.07,0,.06.86,0,.93-.78.77-3.9-.8-3.72.92,2.56,2.55,3.88-.83,6.5-.92,1.14.29,5.74-.15,2.79-.93C18,137.7,16.15,137.19,14.45,137.48Z"/><path class="cls-1" d="M95.29,140.25c-1.47-.48-5-3.55-6.51-.92C90.48,139.58,94,142.65,95.29,140.25Z"/><path class="cls-1" d="M51.61,143.94c.72-.71-.27-5-1.85-1.84C50.51,141.64,51.22,144.33,51.61,143.94Z"/><path class="cls-1" d="M109.22,148.56c-.64-.72-5.18-2.06-5.57,0C105.28,148.3,108.29,151.16,109.22,148.56Z"/><path class="cls-1" d="M114.8,153.17c-1.19,0-1.29-1.18-2.79-.92C110.57,154.52,115.17,155,114.8,153.17Z"/><path class="cls-1" d="M120.37,159.63c-1.18,0-1.28-1.18-2.78-.92C116.14,161,120.74,161.42,120.37,159.63Z"/><path class="cls-1" d="M126,165.17c-1.23,0-.85-1.62-1.86-1.85C123,165.22,125.55,167.72,126,165.17Z"/><path class="cls-1" d="M79.49,171.63c.81-1.9-2.41-4.14-2.79-1.85C78,170,78.27,171.3,79.49,171.63Z"/><path class="cls-1" d="M102.72,172.55c-.13-1.72-.61-3.08-1.86-3.69C100.6,171,101.08,172.33,102.72,172.55Z"/><path class="cls-1" d="M70.2,173.48c.66,4.16,1.5,11.9,3.72,13.84-.25-.21.38-2.23.92-1.85-.72,3.8,1.43,4.74.93,8.31.88.17,1.64.07,1.86.92,1,3.91-.26,8.38,0,12.92,2.13.2,1.57-1,1.86-2.77.9-5.37.34-12.22,0-16.61-.06-.73-.91-.81-.93-.92-.11-.57.88-1.19.93-.92-.15-.89-.77-.55-.93-.93-.34-.78.29-2,0-2.77-.1-.26-1.69-.57-1.86-.92-.67-1.4.16-1.89-.93-2.77-.3-.25.24-1.51,0-1.84-.43-.62-1.91-.71-1.85-1.85.25-2.1-.23-3.47-1.86-3.69-.26,1.62,2.61,4.6,0,5.54-.69-1.26-.74-7.77-2.79-4.62C69.83,172.6,70.37,172.69,70.2,173.48Z"/><path class="cls-1" d="M83.21,203.93a14.12,14.12,0,0,0,0,6.46c.84,2.78-1.08,5.47,1.85,5.54-.2-6.26,1.13-14-2.78-16.61C81.51,201.92,83.59,201.7,83.21,203.93Z"/><path class="cls-1" d="M75.77,227c2,1.12,2.22-.79,3.72-1.84.72-.51,5.23-1.26,1.86-2.77C80.43,224.86,75.69,223.53,75.77,227Z"/><path class="cls-1" d="M88.78,247.3c-1.07.58-1.68,1.45-2.79,1.85-2.16.78-4.73-1.42-5.57,1.84,2.92,2.44,6.44-.43,8.36-1.84,3.23-1.1,7-1.69,7.44-5.54C92.76,244.42,90.9,246.16,88.78,247.3Z"/><path class="cls-1" d="M100.86,271.3c-1.56.62-2.59.21-3.72.92-1.75,1.11-5,1.08-5.57,2.77,2.61,2.16,5.84-.75,8.36-1.85s6.48-2.07,7.44-4.61C104.87,268.1,103,270.45,100.86,271.3Z"/><path class="cls-1" d="M79.49,14.74c5.78-2.58,12-2.66,15.8,1.85.7.83.33,1.68.92,2.77.27.49,1.71,1.44,1.86,1.85,1.09,2.8,0,6,.93,10.15.37,1.54,1.17,4.73,1.86,8.3a78.6,78.6,0,0,0,1.86,9.23c0,.13.77.3.93.92s-.11,1.26,0,1.85c.82,4.41.24,12.27.93,18.46.24,2.22,1.41,3.62,1.85,5.53.48,2.09-.54,4.33.93,5.54,2.65-2.73,2.29-7,1.86-12a12.56,12.56,0,0,0,0-1.84,57.29,57.29,0,0,1-1.86-9.23c-.13-2.58-.71-5.65.93-7.38,1.25-3.49,3-5.16,5.58-5.54,3.18-.47,4.1.91,6.5,2.77.75.58,2.22,1.12,2.79,1.85A33.77,33.77,0,0,1,126,55.35c.72,1.68.71,3.75,1.86,5.54a7.9,7.9,0,0,1,.92,2.77c.17.65.91.8.93.92.56,2.57-.32,5.43,0,8.31.24,2.15,1.44,4.12,1.86,6.46.22,1.19-.16,2.49,0,3.69.3,2.22.61,6.6.93,11.07.55,7.59,1.63,19.26.93,29.53-.18,2.62-1.65,5.44-.93,8.31.2.81.63,1.58.93,2.77a28.89,28.89,0,0,1,.93,4.61c.75,5.63,1.72,17.31,2.79,24.92,1.29,9.23,2.23,27.06.93,38.76-.41,3.64-2,7.36-2.79,11.07-1.05,4.78-1.45,9.47-2.79,13.85,0,.12-.77.3-.93.92-.48,1.92-.09,2.1-.93,4.61-.11.33-.88,0-.93.93,0,.23.1.71,0,.92-.27.63-1.56,1.32-1.86,1.84-.19.34.29,1.62,0,1.85-2.8,2.28-3.54,8.43-4.64,13.84a96.79,96.79,0,0,0-1.86,25.84c-1.16,0-1.23,1.37-1.86,1.85-.83.63-1.74.33-2.79.92-.51.29-1.42,1.66-1.85,1.85s-1.32-.14-1.86,0a16.54,16.54,0,0,1-4.65.92,11.55,11.55,0,0,0-1.86,0c-.57.14-4.29,1.64-6.5,1.85-6.65.62-16.49,0-26,0-8.91,0-18.63,1.18-26,0-.08,0-.21-.89-.93-.92-1.09-.06-2.69.33-3.72,0-.32-.11,0-.88-.93-.93-1.29-.06-7-3.86-7.43-4.61-.71-1.13-.53-2.34-.93-3.69-1.47-4.95-.46-14.87,0-21.23.16-2.24.16-5.2-.93-7.38-.43-.86-1.53-1.24-1.86-1.85-.76-1.44-.11-2.56-.93-3.69-.5-.7-1.29-1-1.85-1.84s-1.15-1.83-1.86-2.77c-.56-.74-1.38-1.22-1.86-1.85A55.15,55.15,0,0,1,20,227.93a29.55,29.55,0,0,0-2.78-4.62,38.13,38.13,0,0,1-2.79-3.69c-.28-.43-.79-.68-.93-.92a36.07,36.07,0,0,0-2.79-4.61c-1.41-1.84-2.38-4.81-3.72-8.31-.09-.25-.75-.2-.93-.92-.46-1.83,0-2.26-.92-4.62-.15-.38-.88,0-.93-.92-.11-2-3.23-6.84-3.72-10.15-1.14-7.68,0-18.28,0-28.61,0-9.78-.62-20.45,0-28.61C1,126.09,3.08,121,3.3,116.27c.32-7-3.31-17.22,0-22.15.79-1.19,2.29-4.07,5.57-4.62,3.07-.51,4.75.77,6.51,1.85a12.58,12.58,0,0,1,2.78,1.85c.54.68.33,2,.93,2.76.23.29,1.74.67,1.86.93.21.45-.29,1.45,0,1.84.59.82,1.33.75,1.86,1.85,1,2,.79,3.57,1.86,5.54,2.15-1.76.33-6.57.93-12a55.94,55.94,0,0,1,1.85-8.31c.09-.31-.22-1.66,0-1.84,1.56-1.27-.57-4.32.93-5.54.91-.74.75-1.25.93-2.77,0-.27-.19-1.69,0-1.84s.92.05.93,0c.78-5.09.46-10.93.93-17.54a19.7,19.7,0,0,1,0-2.77c1.11-5,1.91-16.59,3.72-23.07a48.71,48.71,0,0,1,1.86-4.61c.12-.33-.26-1.64,0-1.85.1-.09.87.12.92,0,.17-.33-.27-1.62,0-1.84,1.39-1.13,3.92-5.2,7.44-5.54a7.55,7.55,0,0,1,4.64.92c.47.23-.1.87.93.92,2.5.13,3.45,4.53,5.58,6.46.62-5.1-1.24-12.45.93-15.68.48-.73.91-2.28,1.85-3.69C61.3,2.16,65-1.81,71.12.91c.43.19-.07.87.93.92,0,0,2.6.77,2.79.93,1,.86,3.62,4.72,3.72,6.46C78.61,10.09,80.27,11.85,79.49,14.74Zm33.45,241.79c-2.92,2.43-4.62,4.63-7.43,6.46-1.7,1.11-3.75,1.69-5.58,2.77a13.92,13.92,0,0,1,9.29-6.46c-.78-1.8,1.44-1.3,1.86-1.84.62-.81.35-2.06.93-2.77s2.34,0,2.79-.93-.26-2.82-.93-2.77c-2.65,2.78-5.66,5.24-7.43,7.39-.26.31-1.55-.27-1.86,0s.29,1.55,0,1.84-1.54-.3-1.86,0c-2.37,2.25-3.74,5.63-7.43,5.54-.76-4.75,2.37-5.64,6.5-5.54.57-2.19,3.55-2.9,5.58-4.61,1.65-1.41,6.07-3.73,3.71-5.54-1,2-3.11,3.61-4.64,3.69-1,.06-.46.69-.93.93-.74.37-2-.36-2.79,0-.36.17-.48,1.65-.93,1.84-1.54.65-3.34.23-4.64.93,3.44-3.83,9-7.19,13-9.23,1.43-.73,4.27-.45,4.65-2.77-2.89.06-5.13,2.18-7.43,2.77-1.06.26-1.35-1.15-2.79-.93-.37.06-1.42,2.94-1.86.93,0-1.18,1.1-.51,1.86-.93.52-.28,1.3-1.47,1.86-1.84a20.88,20.88,0,0,1,4.64-2.77,17.87,17.87,0,0,1,2.79-4.61c1.06-1.18,3.65-1.55,3.72-2.77.1-1.86,2.22-1.92,2.79-2.77.42-.64-.34-2.07,0-2.77.17-.36,1.65-.49,1.85-.92.64-1.35.22-3.85,1.86-4.62,1.29,3.64-1.45,4.7-1.86,5.54s-.38,1.68-.92,2.77-1.35,1.06-1.86,1.84c-1.14,1.72-1.55,3-2.79,4.62-1.51,1.92-3.31,2.4-3.72,4.61,2.1,0,3-1.53,4.65-2.77,1.36-1.05,3.43-2.11,4.64-3.69.77-1,.31-2.6.93-3.69.4-.7,1.8-.65,1.86-1.85.07-1.36,1.5-3.52,1.86-4.61a24.23,24.23,0,0,0,.93-2.77c0-.89.84-.63.93-.92.52-1.7.43-4.1.93-6.46.73-3.44,1.45-6.18,1.85-9.23.58-4.34,2.53-12.31,2.79-15.69.5-6.39-.5-14.8-.93-18.45-.46-3.95-.71-7.29-.93-9.23-.57-5.09-1.4-13.18-1.85-16.61-.25-1.81.16-2.81-.93-3.69-.25-.21.12-1.52,0-1.85a18.38,18.38,0,0,1-.93-8.31c-.62-1.08-1.88-1.22-2.79-2.76-.54-.92.41-2.7,0-3.7-.1-.23-1.66.2-1.86,0-.82-.81-.09-6.39.93-5.53-.26,2.1.22,3.47,1.86,3.69,2.47-4.47,1.41-11.47,1.86-19.38.08-1.39,1.06-1,0-1.85-.64-.52.86-1.79.93-1.84,1.68-1.37-.91-8.15-.93-8.31-.23-1.78.27-4.13,0-5.54-.41-2.08-1.62-3.57-1.86-5.53-.62-5,0-10.7-.93-15.69-.24-1.25-1.42-3.16-1.86-4.62-1-3.23-1.23-5.48-1.86-6.46-2.07-3.23-4-8.86-8.36-8.3-8.28,5.39.25,17.16-1.86,27.68.57,2.2,4,1.52,2.79,5.54-2.14.28-1-2.67-2.79-2.77-.49,4.39-1.56,8.69-1.86,12.92-.25,3.55,1.21,2.49,0,3.69-1.94,1.93.94,12,.93,12a113,113,0,0,1,.93,12c1.71,1,1.22,2.68,2.79,2.77,1.32.06,1,2.15,1.86,2.76-2,.84-.33,5.21-2.79,5.54-2.56-.58-1.9-3.94-2.79-5.54-.15-.26-1.61.22-1.86,0-.46-.4.37-2.26,0-2.76-4.48.14-4.35-4.3-10.22-2.77.43-2.89-2-3-4.64-2.77-.57-3.83-5.92-4.7-1.86-8.31,2.23-.36-.52,4.21,2.79,2.77-.15-3.53,0-6.72,1.86-8.31.57,3.43-1.52,9.5,1.85,10.16.11-.59-.14-1.27,0-1.85.08-.3,1-1.23.93-.92.14-1.76-1-2-.93-3.69.09-1.24.77-1.84.93-3.7.44-5-.38-8.27.93-9.22,1.12.15,1,1.45.93,2.77,0,.8-.9.76-.93.92-.14.71.93,1,.93.92-.08,1.88-.81,3.59-.93,5.54-.1,1.57.1,3.82,0,5.54-.07,1.19-2.61,5.3.93,4.61,3.14,0,.79-2.43.93-3.69.2-1.76.87-3.87.93-5.54s-.91-2.79-.93-3.69.75-1.11.93-1.85c.84-3.55-.79-5.4-.93-7.38-.31-4.38.94-8.84,0-12.92-.36-1.54-1.72-2.91-1.86-4.61-.12-1.5.86-3,.93-4.62s-1-2-.93-3.69c0-1.33,1.07-1.67.93-3.69-.11-1.52-.61-3.74-.93-5.54s-.48-4.72-.93-6.46c0-.07-.85.07-.93,0-.25-.2.14-1.51,0-1.84a13.34,13.34,0,0,1-.93-1.85c-1.85-10.2-.31-22.37-7.43-29.53h-6.5c-.82,1.74-2.72,3.23-2.79,4.62,0,.85-.87.68-.93.92-1.6,5.88.54,19.64.93,24,.34,3.81-.92,5.38-.93,7.39a79.12,79.12,0,0,0,.93,13.84c.4,2.23,1.85,4.36,1.86,6.46,0,2.67-1.48,5.44-1.86,8.3-.2,1.47.36,3.19,0,4.62-.59,2.32-.3,2.53,0,5.54.25,2.57-.19,5.09,0,7.38.16,2,1,3.3.93,4.61,0,.71-.92.86-.93.93a3,3,0,0,0,.93,1.84c-.24,1.39-.91,3.15-1.86,3.69,0-1.22-1.63-.84-1.86-1.84v-3.69c-4.21-1.42.49,6-3.72,4.61-1.22,0-.85-1.62-1.85-1.85a2.52,2.52,0,0,1-1.86-2.77q-.21-3.44,1.86-4.61c-.14,2.29-.18,4.48,1.85,4.61,1.11-4.56.9-14.39,1.86-18.45.89-3.73,2-10,1.86-12.92-.23-3.83-2.39-6.31-2.79-9.23-.9-6.65,1.38-17.4.93-26.76-.06-1.14-.78-1.36-.93-2.77a58.26,58.26,0,0,1,0-12c.19-1.38,1-1.64.93-3.69,0-1.22-.74-2.83-.93-4.61-.14-1.36.47-3.34,0-4.62-.13-.36-1.59-1.41-1.86-1.84S73.46,5.94,73,5.52a16.21,16.21,0,0,0-2.78-.93c-.41-.17-.09-.67-.93-.92-3.71-1.11-4.76,2.6-6.51,1.85,0,3.72-2.3,5.48-2.78,8.3-1.11,6.48.91,15.52,0,23.07-.15,1.2-.84,1.29-.93,2.77-.21,3.19.22,6.51,0,9.23-.06.73-.91.81-.93.92-.11.56.87,1.21.93.93-.21,1.18-1,1.27-.93,2.77.06,1.34,1.11,1.65.93,3.69A16.37,16.37,0,0,1,58.12,60c-1,3.27-.5,6.52-.93,10.15a54.51,54.51,0,0,1-1.86,6.46c-1.74,6.9-.61,14.59-.93,23.07,1.08.15,1,1.46.93,2.77C56.8,104,59.6,104.33,60,107c-2.76-1.07-2.61,1.71-3.72,1.85s-1.82-1.65-3.72-.93a6.47,6.47,0,0,1-1.86,2.77c-3.64-.23-3.45,3.34-7.43,2.77-1.38,2.71,1,3.43-1.86,4.62-1.19,1.27-4,.91-6.5.92-.09,1.45.12,3.2-1.86,2.77-.28,1.81,1.25,1.83,1.86,2.77-1,1.76-2.24,2.09-2.79,4.61-.66,3,.71,6.45.93,9.23,2,1.35,6.92-.11,7.43,2.77-2.76,0-7.43-2.75-8.36.92,1.25.9,1.86,2.46,2.79,3.69q3.45-.21,4.64,1.85c-.87,1-3.42.28-2.78,2.77,1,.9,1.87,1.82,2.78,2.76-.41,3.46.87,4.33,1.86,5.54,1.24,1.52,5.34,7.4,6.51,4.62-1-.06-.74-1.19.92-.93,1.75,1.34,4.83,1.36,5.58,3.69H47a4.28,4.28,0,0,0,.93,2.77c0,1.53,2.57.52,2.78,1.85,0,.93.76,1.1.93,1.84-.67,2.1,1.68,7.2-1.86,6.46-3-1,2.5-6-.92-7.38.85,3.92-2.23,3.94-5.58,3.69a6,6,0,0,0,.93-4.61c-2.53-1.26-2.17-5.5-2.79-6.46-1.11-1.73-2.12-3-3.72-3.69.07,4.07-.06,7.93-2.78,9.23-.71-3.23,2.81-7,0-9.23.22,2.52-1.93,6.79-3.72,6.46-.33-.06.07-2.35-.93-1.85-1.82,1.73-.29,3.38,0,5.54-1.17.31-1.3.84-2.79.92s-.69,1.85-2.78,1.85c-.72,0-1.84-.19-1.86-.93.2-.71.78-1.07,1.86-.92v-3.69c1.84,0,1.18-2.52,3.71-1.85-.48-3.53,2.31-6.51,2.79-10.15,1-7.6-1.7-12.14-2.79-16.61,0-1.22-1.63-.84-1.86-1.84,1.54-.41,1.54-7,0-7.39.89,4-3.52,7.52-6.5,4.62,3,.79,2.88-1.46,4.65-1.85-.92-3.68,2.77-2.78,1.85-6.46-.27-3.21-2.51.08-2.78-1.84.66-4.27-.67-8.14-.93-10.16-.25-1.81.16-2.8-.93-3.69-.09-.07-.95-3.74-.93-3.69-.91-2.65-1.31-4.17-1.86-4.61-.29-.24.2-1.51,0-1.85s-1.44-1.28-1.86-1.84c-2-2.64-4.92-6.15-8.36-5.54-3,3.22-1.7,7.59-1.86,12-.19,5.21-.08,13.81-.93,16.61-.92,3-.5,4.45-.93,7.38-.2,1.36-.85,1.69-.93,3.69-.06,1.71.77,2.08.93,3.69a120.8,120.8,0,0,1,0,17.54c-.05,1.14-.8,1.33-.93,2.77-.73,8.17-.43,23.78.93,29.53.43,1.81-.25,2.73.93,3.69.08.06.94,2.8.93,2.77.29,1.14.17,1.23.93,1.84.25.21-.12,1.52,0,1.85a6.53,6.53,0,0,0,1.86,2.77c.84.68.63,4,.93,4.61.21.47,1.56,1.3,1.86,1.85.51.95.53,2,.92,2.77,1.31,2.53,2.79,4.87,3.72,6.46.51.87.34,1.82.93,2.77.22.35,1.54.58,1.86.92.71.75.31,1.85.93,2.77.38.57,1.46,1.21,1.86,1.84s.33,2,.93,2.77c1.78,2.21,5.08,4.53,7.43,6.46C37,237.38,38.59,239,46,238.08a10.67,10.67,0,0,0,5.57,1.85c.64,0,1,.92.93.92,3.06.31,7.06.59,7.43-2.77-1.92-.55-6.1,1.14-6.5-.92,2.89.5,5-.48,7.43-.93,2.06-.38,5.06-.38,6.51-1.84-2.12.25-3.5-.22-3.72-1.85h6.5a14.45,14.45,0,0,1,3.72-2.77c1.59-.08,2.31-3.34,2.79-.92.34,3.41-2.5,2.65-3.72,3.69s-2.54,2.87-3.71,3.69a9.09,9.09,0,0,1-6.51,1.85c.56,4.25-4.81,2.6-5.57,5.53,6.11.77,7.86-5.35,13-2.76.2-.72.77-1.08,1.85-.93-.11-1.62,1-2.08,1.86-2.77.53-.44,3.1-2.9,2.79-.92-.68,2.09-3.54,2-3.72,4.61,2.73,1.06,3.45-4.42,4.65-1.84a37.67,37.67,0,0,1-5.58,4.61c-2.23.38-2-1.68-4.64-.92-1.4,1.08-2.27,2.67-4.65,2.77-2.26-.38-2.92-1.09-4.64-.92-1.32.12-1.6,1.53-2.79,1.84-1.45.38-3.18-.29-4.65,0-2.68-.16-5.51-4.91-7.43-2.77,3.54,1.6-3.62-.07-2.79,1.85,2,.77,3.17,2.39,6.5,1.84-.2,1.16-1.44,1.89.93,1.85.06-.56.14-1.09.93-.92V251c-1.48-1.94-4.62-1-6.5-1.85-.42-.18-1.22-1.48-1.86-1.85a5.63,5.63,0,0,0-2.79-.92c-.78,3,2.25,2.23,2.79,2.77.29.29-.31,1.6,0,1.85,1.53,1.21,5.85.54,5.57,3.69-2.81,1.06-5.36-5.24-5.57-.93-.26,4.7.74,10.68-.93,12-2.66,2.1-.51,8.59,0,12,7.7,6.25,22.19,4.61,37.17,4.61,11.65,0,22.77.61,28.8-.92,2.82-.72,4.33-1.45,4.65-1.85s1.52.16,1.86,0c.11-.05-.09-.81,0-.92.25-.31,1.54.27,1.86,0,1.2-1.06,1.59-3.43,1.85-4.61-4.74.51-7,3.55-10.22,5.53-1.63-.25-4.63,2.6-5.57,0,2.14-.86,4.51-2.5,5.57-2.77.55-.13,1.35.22,1.86,0s1.36-1.54,1.86-1.84c.13-.08-.11-.8,0-.92s1.52.15,1.86,0c1.12-.52,1-1.26,1.85-1.85s2.07-.1,2.79-.92-.06-2.47.93-2.77c-2-.21-3.11,1.86-4.64,2.77-.93.54-2,.47-2.79.92-.24.14-.49.64-.93.92-.65.41-1.25.58-1.86.93s-1.23,1.52-1.86,1.84c-1.3.67-2.39.39-3.71.92-.64.26-.83,1.57-1.86,1.85-1.26.34-3.54,0-3.72-.92,2.44-2.14,5.42-1.7,7.43-2.77.53-.28,1.25-1.54,1.86-1.85,1.08-.54,1.94-.4,2.79-.92.56-.35,1.22-1.49,1.86-1.85a29.08,29.08,0,0,1,2.79-.92c.54-.25,1.17-1.63,2.78-.92-1-2.36,4-3.23.93-4.62-.44,1.83-2.57,1.12-3.71,1.85s-1.54,3.58-3.72,2.77c.57-.8,1.07-2.25,1.86-2.77,1-.65,2.93-.11,3.71-.92.29-.31-.18-1.45,0-1.85.38-.83,4.68-3.62,1.86-4.61-.21.75-1,1.8-1.86,1.84s-2.08,1.34-2.78,1.85-1.23,1.39-1.86,1.84c-2.24,1.61-5,3.86-7.44,4.62-2.15.67-5.81,1.73-6.5,0a26.59,26.59,0,0,0,8.36-2.77c2-1.27,2.57-1.37,3.72-2.77.25-.31,1.53.25,1.86,0,.63-.47,1.9-1.89,2.79-2.77,2.15-2.13,4.14-4.56,2.78-5.54C114.48,255.54,113.57,256,112.94,256.53ZM48.83,99.65c-1.38.17-.86,2.23-.93,3.69-1.22,0-1.19,2.56,0,2.77,4.86-3.84,2.2-11,2.79-17.54,0-.14-.1-.83,0-.92,1-1,.49-.93.92-2.77.68-2.86.61-5.32.93-8.3.19-1.75,1-3,.93-4.62s-.73-2.07-.93-3.69c-.61-5,.58-6,.93-10.15.79-9.14.46-30-2.79-35.07-1-1.64-2.42-2.85-4.64-2.77-3.88.15-6.69,7.38-8.36,14.77a141.25,141.25,0,0,0-2.79,20.3c-.28,4.52.37,10.71,0,13.85-.11.93-.75,1.07-.93,1.84-.43,1.81.25,2.73-.93,3.69-.25.21.12,1.52,0,1.85-1.91,5-1.94,14.18-2.79,18.46-1.63,8.25-.7,17.76-.93,27.68,2.8.93,1.65-2.06,1.86-3.69,1.89-.28,2.47-1.85,3.72-2.77,1.77.39,1.68,2.64,4.64,1.85-2.13-3.61,1.72-3.66,3.72-5.54.21-.72,0-1.82.93-1.85.1-3.54,1.7-7.42,2.79-8.3.25-.21-.14-1.52,0-1.85a15.92,15.92,0,0,0,.93-1.84c.33-1.58-1.07-3.56.93-4.62v5.54Z"/><path class="cls-2" d="M114.8,254.69c1.35,1-.64,3.4-2.79,5.53-.88.88-2.15,2.3-2.79,2.77-.33.25-1.6-.3-1.86,0-1.15,1.4-1.71,1.5-3.71,2.77a26.76,26.76,0,0,1-8.37,2.77c.7,1.73,4.36.67,6.51,0,2.41-.76,5.2-3,7.43-4.61.64-.46,1.27-1.42,1.86-1.85s1.84-1.8,2.79-1.85,1.65-1.09,1.86-1.84c2.81,1-1.49,3.78-1.86,4.61-.18.4.29,1.55,0,1.85-.79.81-2.73.27-3.72.92-.79.52-1.29,2-1.86,2.77,2.19.82,2.64-2.07,3.72-2.77s3.27,0,3.72-1.84c3.07,1.38-1.93,2.25-.93,4.61-1.62-.71-2.25.67-2.79.92a29.34,29.34,0,0,0-2.79.93c-.64.35-1.3,1.5-1.86,1.84-.84.52-1.71.39-2.78.92-.61.31-1.34,1.57-1.86,1.85-2,1.07-5,.63-7.43,2.77.18.88,2.46,1.26,3.71.92,1-.28,1.23-1.59,1.86-1.84,1.33-.54,2.41-.26,3.72-.93.62-.32,1.32-1.54,1.86-1.84s1.21-.52,1.85-.93c.44-.27.69-.78.93-.92.77-.45,1.87-.38,2.79-.92,1.53-.91,2.66-3,4.65-2.77-1,.3-.32,2.07-.93,2.77s-1.85.25-2.79.92-.73,1.33-1.86,1.85c-.33.15-1.64-.27-1.86,0s.14.84,0,.92c-.49.3-1.43,1.66-1.85,1.85s-1.32-.14-1.86,0c-1.06.26-3.43,1.9-5.58,2.77.94,2.59,3.95-.26,5.58,0,3.26-2,5.47-5,10.22-5.54-.27,1.18-.66,3.56-1.86,4.61-.31.27-1.6-.31-1.86,0-.09.11.12.87,0,.93-.33.15-1.63-.27-1.86,0s-1.82,1.13-4.64,1.84c-6,1.53-17.15.92-28.81.92-15,0-29.46,1.64-37.16-4.61-.51-3.41-2.66-9.9,0-12,1.67-1.32.67-7.3.93-12,.21-4.32,2.76,2,5.57.92.28-3.15-4-2.47-5.57-3.69-.32-.25.28-1.56,0-1.85-.55-.54-3.57.21-2.79-2.77a5.67,5.67,0,0,1,2.79.93c.63.36,1.44,1.66,1.85,1.84,1.88.82,5-.09,6.51,1.85v-2.77c-.79-.17-.88.36-.93.92-2.38,0-1.14-.68-.93-1.84-3.34.54-4.5-1.08-6.5-1.85-.84-1.92,6.33-.25,2.78-1.85,1.92-2.14,4.76,2.61,7.44,2.77,1.47-.28,3.19.38,4.64,0,1.2-.31,1.47-1.72,2.79-1.84,1.73-.17,2.39.54,4.65.92,2.37-.1,3.25-1.69,4.64-2.77,2.63-.76,2.41,1.3,4.65.92A37.08,37.08,0,0,0,77.63,239c-1.19-2.58-1.92,2.91-4.64,1.85.17-2.6,3-2.53,3.72-4.62.3-2-2.27.48-2.79.93-.82.68-2,1.14-1.86,2.76-1.08-.14-1.65.21-1.86.93-5.14-2.59-6.89,3.53-13,2.77.76-2.94,6.14-1.29,5.58-5.54a9.06,9.06,0,0,0,6.5-1.85c1.17-.82,2.52-2.66,3.72-3.69s4.06-.28,3.72-3.69c-.49-2.42-1.21.84-2.79.92a14.45,14.45,0,0,0-3.72,2.77H63.7c.22,1.63,1.59,2.11,3.71,1.85-1.44,1.46-4.44,1.46-6.5,1.85-2.4.44-4.55,1.42-7.43.92.4,2.06,4.58.37,6.5.92-.37,3.36-4.37,3.08-7.43,2.77,0,0-.29-.89-.93-.92A10.73,10.73,0,0,1,46,238.08c-7.45.9-9-.7-14.87-5.54-2.34-1.93-5.64-4.25-7.43-6.46-.59-.73-.46-2-.93-2.76S21.33,222,21,221.47c-.61-.92-.22-2-.93-2.77-.31-.33-1.63-.57-1.85-.92-.6-.94-.42-1.9-.93-2.77-.93-1.59-2.41-3.93-3.72-6.46-.4-.76-.41-1.82-.93-2.77-.29-.54-1.64-1.38-1.86-1.85-.3-.65-.09-3.93-.93-4.61A6.43,6.43,0,0,1,8,196.55c-.13-.33.25-1.64,0-1.85-.76-.61-.65-.7-.93-1.84,0,0-.85-2.71-.93-2.77-1.18-1-.5-1.88-.93-3.69C3.8,180.65,3.49,165,4.23,156.87c.13-1.44.87-1.62.93-2.77a120.8,120.8,0,0,0,0-17.54c-.16-1.61-1-2-.93-3.69.07-2,.73-2.32.93-3.69.43-2.92,0-4.35.93-7.38.85-2.8.73-11.4.93-16.61.16-4.41-1.16-8.78,1.86-12,3.43-.61,6.37,2.9,8.36,5.54.42.56,1.6,1.4,1.86,1.84s-.29,1.62,0,1.85c.54.44.95,2,1.85,4.61,0,0,.84,3.62.93,3.7,1.1.88.69,1.88.93,3.69.27,2,1.59,5.88.93,10.15.28,1.92,2.51-1.37,2.79,1.84.92,3.68-2.78,2.78-1.86,6.46-1.77.4-1.68,2.64-4.64,1.85,3,2.9,7.38-.62,6.5-4.61,1.53.41,1.53,7,0,7.38.23,1,1.85.62,1.86,1.84,1.09,4.48,3.78,9,2.79,16.62-.48,3.63-3.28,6.62-2.79,10.15-2.54-.68-1.87,1.83-3.72,1.84v3.69c-1.08-.15-1.65.21-1.86.93,0,.73,1.14.92,1.86.92,2.1,0,1.27-1.77,2.79-1.85s1.61-.61,2.79-.92c-.29-2.16-1.82-3.81,0-5.54,1-.5.6,1.79.93,1.85,1.78.33,3.94-3.94,3.71-6.46,2.81,2.26-.7,6,0,9.23,2.72-1.3,2.86-5.16,2.79-9.23,1.59.67,2.61,2,3.72,3.69.61,1,.26,5.2,2.79,6.46a6,6,0,0,1-.93,4.61c3.35.25,6.42.24,5.57-3.69,3.43,1.43-2.08,6.38.93,7.39,3.53.74,1.18-4.37,1.86-6.46-.18-.75-.94-.92-.93-1.85-.21-1.33-2.77-.32-2.79-1.85A4.31,4.31,0,0,1,47,166.1h7.44c-.75-2.34-3.83-2.36-5.58-3.7-1.66-.25-1.91.88-.93.93-1.17,2.78-5.26-3.1-6.5-4.62-1-1.21-2.28-2.08-1.86-5.53-.91-1-1.84-1.87-2.79-2.77-.64-2.48,1.92-1.79,2.79-2.77-.79-1.37-2.34-2-4.65-1.85-.93-1.23-1.53-2.78-2.78-3.69.93-3.67,5.59-.88,8.36-.92-.51-2.88-5.39-1.42-7.43-2.77-.23-2.77-1.59-6.23-.93-9.23.55-2.52,1.78-2.85,2.78-4.61-.6-.94-2.13-1-1.85-2.77,2,.43,1.76-1.32,1.85-2.77,2.47,0,5.31.35,6.51-.92,2.91-1.19.48-1.91,1.86-4.62,4,.57,3.78-3,7.43-2.77A6.44,6.44,0,0,0,52.55,108c1.9-.73,2.51,1.07,3.72.92S57.23,106,60,107c-.38-2.7-3.18-3-4.64-4.61.08-1.31.15-2.62-.93-2.77.31-8.47-.81-16.17.93-23.07a56.17,56.17,0,0,0,1.85-6.46c.43-3.63,0-6.88.93-10.15a15.27,15.27,0,0,0,.93-2.77c.18-2-.86-2.34-.93-3.69s.72-1.59.93-2.77c0,.28-1-.37-.93-.92,0-.12.87-.2.93-.93.23-2.72-.2-6,0-9.23.1-1.48.79-1.57.93-2.76.91-7.56-1.11-16.6,0-23.08.49-2.82,2.73-4.58,2.79-8.3,1.75.76,2.8-3,6.5-1.85.85.26.53.75.93.93A16.53,16.53,0,0,1,73,5.52c.48.42.59,2.23.93,2.77s1.73,1.48,1.86,1.84c.46,1.28-.15,3.26,0,4.62.19,1.78.88,3.39.93,4.61.08,2.05-.75,2.31-.93,3.69a57.56,57.56,0,0,0,0,12c.15,1.41.87,1.63.93,2.77.44,9.36-1.83,20.11-.93,26.76.39,2.92,2.55,5.4,2.79,9.23.17,2.91-1,9.19-1.86,12.92-1,4.06-.76,13.89-1.86,18.46-2-.14-2-2.33-1.86-4.62q-2.07,1.19-1.86,4.62A2.53,2.53,0,0,0,73,108c1,.22.63,1.83,1.86,1.84,4.21,1.41-.49-6,3.72-4.61v3.69c.23,1,1.84.62,1.85,1.84,1-.54,1.63-2.3,1.86-3.69a3,3,0,0,1-.93-1.84c0-.07.89-.21.93-.93.07-1.31-.76-2.61-.93-4.61-.19-2.29.26-4.81,0-7.38-.3-3-.58-3.22,0-5.54.36-1.43-.19-3.15,0-4.61.38-2.87,1.87-5.64,1.86-8.31,0-2.09-1.45-4.23-1.86-6.46a81,81,0,0,1-.93-13.84c0-2,1.27-3.58.93-7.39-.39-4.35-2.53-18.11-.93-24,.07-.24.89-.07.93-.92.08-1.39,2-2.88,2.79-4.62h6.51c7.11,7.16,5.58,19.33,7.43,29.53A13.34,13.34,0,0,0,99,48c.13.33-.26,1.64,0,1.85.07.06.91-.08.93,0,.44,1.73.58,4.51.93,6.46.31,1.79.82,4,.93,5.53.14,2-.9,2.37-.93,3.69,0,1.66,1,1.94.93,3.7s-1.06,3.11-.93,4.61c.13,1.7,1.5,3.08,1.85,4.61.94,4.08-.3,8.54,0,12.92.14,2,1.78,3.83.93,7.39-.17.73-1,.92-.93,1.84s1,2,.93,3.69-.73,3.78-.93,5.54c-.14,1.26,2.22,3.65-.92,3.69-3.54.69-1-3.42-.93-4.61.09-1.72-.1-4,0-5.54.12-2,.84-3.66.93-5.54,0,.09-1.08-.21-.93-.92,0-.16.91-.12.93-.92,0-1.31.19-2.62-.93-2.77-1.31,1-.49,4.27-.93,9.23-.17,1.85-.85,2.45-.93,3.69-.11,1.65,1.07,1.94.93,3.69,0-.31-.86.62-.93.92-.15.58.11,1.26,0,1.85-3.37-.66-1.28-6.73-1.86-10.15-1.81,1.58-2,4.77-1.86,8.3-3.3,1.44-.56-3.13-2.79-2.77-4.06,3.61,1.3,4.48,1.86,8.31,2.66-.18,5.07-.12,4.65,2.77,5.87-1.53,5.74,2.91,10.22,2.77.37.5-.46,2.36,0,2.77.25.21,1.71-.27,1.86,0,.89,1.59.22,5,2.79,5.53,2.45-.33.83-4.7,2.78-5.53-.8-.62-.54-2.7-1.85-2.77-1.58-.08-1.08-1.77-2.79-2.77a115.86,115.86,0,0,0-.93-12s-2.87-10.07-.93-12c1.21-1.2-.25-.14,0-3.69.3-4.23,1.36-8.52,1.86-12.92,1.75.11.64,3,2.79,2.77,1.26-4-2.22-3.34-2.79-5.53,2.1-10.53-6.43-22.29,1.86-27.69,4.4-.56,6.28,5.07,8.36,8.31.62,1,.87,3.22,1.86,6.46.44,1.45,1.61,3.37,1.85,4.61,1,5,.32,10.73.93,15.69.25,2,1.46,3.45,1.86,5.54.27,1.4-.23,3.76,0,5.53,0,.16,2.61,6.94.93,8.31-.07,0-1.57,1.32-.93,1.84,1.07.87.08.46,0,1.85-.45,7.91.61,14.92-1.86,19.38-1.63-.22-2.12-1.59-1.85-3.69-1-.85-1.75,4.72-.93,5.54.2.19,1.76-.24,1.85,0,.41,1-.53,2.77,0,3.69.91,1.54,2.18,1.68,2.79,2.77a18.34,18.34,0,0,0,.93,8.3c.13.33-.25,1.64,0,1.85,1.1.89.69,1.88.93,3.69.46,3.43,1.28,11.52,1.86,16.61.22,1.94.47,5.28.93,9.23.42,3.66,1.42,12.06.93,18.45-.27,3.38-2.22,11.35-2.79,15.69-.41,3-1.13,5.79-1.86,9.23-.5,2.36-.41,4.76-.93,6.46-.09.29-.88,0-.93.92a24.23,24.23,0,0,1-.93,2.77c-.36,1.09-1.78,3.25-1.85,4.62-.07,1.2-1.47,1.14-1.86,1.84-.63,1.1-.16,2.69-.93,3.69-1.22,1.58-3.29,2.64-4.65,3.69-1.6,1.24-2.55,2.8-4.64,2.77.41-2.21,2.21-2.69,3.71-4.61,1.24-1.58,1.65-2.9,2.79-4.61.52-.78,1.34-.81,1.86-1.85s.46-1.8.93-2.77,3.14-1.9,1.86-5.54c-1.65.77-1.22,3.28-1.86,4.62-.21.43-1.69.56-1.86.92-.33.7.43,2.13,0,2.77-.57.86-2.69.91-2.79,2.77-.06,1.23-2.66,1.6-3.71,2.77a17.87,17.87,0,0,0-2.79,4.61,20.72,20.72,0,0,0-4.65,2.77c-.56.37-1.34,1.56-1.86,1.85-.76.42-1.91-.26-1.85.92.44,2,1.48-.87,1.85-.92,1.45-.23,1.73,1.19,2.79.92,2.3-.58,4.54-2.71,7.43-2.77-.38,2.32-3.21,2-4.64,2.77-4,2-9.56,5.4-13,9.23,1.31-.7,3.1-.28,4.65-.93.44-.18.56-1.67.92-1.84.76-.36,2,.37,2.79,0,.47-.24-.11-.87.93-.92,1.53-.08,3.67-1.75,4.65-3.7,2.36,1.82-2.06,4.14-3.72,5.54-2,1.71-5,2.42-5.57,4.62-4.14-.11-7.26.78-6.51,5.53,3.69.09,5.07-3.29,7.43-5.53.33-.31,1.55.31,1.86,0s-.31-1.58,0-1.85,1.6.31,1.86,0c1.77-2.15,4.78-4.6,7.43-7.38.67-.06,1.34,1.94.93,2.77s-2.23.23-2.78.92-.32,2-.93,2.77c-.42.54-2.65,0-1.86,1.84a13.92,13.92,0,0,0-9.29,6.46c1.83-1.08,3.87-1.66,5.57-2.77,2.81-1.82,4.51-4,7.44-6.46C113.57,256,114.48,255.54,114.8,254.69ZM62.76,36c.06-.56.14-1.09.93-.92-.1-1.13-.28-2.19-1.86-1.85C62,34.29,61.67,35.82,62.76,36Zm9.3,19.38c.25-1.26-.58-3.6-.93-1.84C70.87,54.76,71.7,57.11,72.06,55.35ZM73,58.12c2.7,1.36,2.7-4.13,0-2.77ZM96.21,73.81c.26-1.26-.57-3.6-.92-1.85C95,73.22,95.86,75.56,96.21,73.81ZM73.92,92.26c.14-.64-.33-5.37-.93-2.76C72.17,93,73.48,94.12,73.92,92.26ZM68.34,107c.28-1.81-1.26-1.83-1.86-2.77-.21-.72,0-1.82-.93-1.84C64.4,105.08,65.08,106.62,68.34,107Zm19.51,3.69c-.56-1.9,1.5-6.41-1.86-5.54C86.56,107.09,84.49,111.6,87.85,110.72ZM125,119c.56,4.8,1.34-1.87.93-3.69.72-.63,2.42-5.5-.93-4.62ZM65.55,131c-.1,2.93,6.68,3.76,8.37,1.85-1.48-.86-3.45-.2-4.65-.92-.58-.35.08-2.78-1.86-1.85C67.21,130.82,66.63,131.18,65.55,131Zm10.22,2.77c-.8,2.76,3.28.82,5.58,0,.7-.25,1.84,0,1.86-.92C79.7,132.16,78.76,134,75.77,133.79Zm12.08,3.69c1.31-2.94-5.56-2.33-5.57-.92C85.12,135.89,85.66,137.51,87.85,137.48Zm-73.4,0c-.07,0,.06.86,0,.93-.78.77-3.9-.8-3.72.92,2.56,2.55,3.88-.83,6.5-.92,1.14.29,5.74-.15,2.79-.93C18,137.7,16.15,137.19,14.45,137.48Zm80.84,2.77c-1.47-.48-5-3.55-6.51-.92C90.48,139.58,94,142.65,95.29,140.25Zm-43.68,3.69c.72-.71-.27-5-1.85-1.84C50.51,141.64,51.22,144.33,51.61,143.94Zm14.87,5.54c.24.25,1.58,1.83,1.86,1.85,1.07,0,.41.59.93.92,2,1.29,4.9,3.27,6.5,2.77,1.28,4.88,7.63,4.72,10.22,8.3a4.39,4.39,0,0,0,2.79-.92c.35,1.14,1.9,1.25,2.79,1.85s1.13,2.9,3.72,1.84c.06,2.71,2.12,3.43,3.71,4.62.94-4.32-3.72-3.07-2.78-7.39H90.64c-.29-3.46-3.11-3.74-5.57-2.76-1.34-.9-2.47-2.71-3.72-2.77-1.87-.1-1.93-2.21-2.79-2.77-.65-.43-2.11.39-2.79,0S74,153,73,152.25a7.39,7.39,0,0,1-1.85-1.85c-.26-.31-1.55.27-1.86,0-1.83-1.54-2.81-4-4.65-5.53A5.22,5.22,0,0,0,66.48,149.48Zm-4.65,2.77h3.72a24.36,24.36,0,0,1,4.65,8.31c2.45-.28,3,1.28,2.79,3.69,1.72-.89,3.1,2.76,3.71,0-2.92-.29-2.68-1.2-1.85-1.85.2-.16-1.86-3.55-1.86-3.69-.06-1.05-.66-.44-.93-.92a14.93,14.93,0,0,0-4.65-5.54c-.64-.4-1.37-.39-1.86-.92-.23-.27.29-1.67,0-1.85-2.33-1.43-5.56.19-7.43-2.77-1,0-2.36.44-.93.93C58.62,150,63,148.22,61.83,152.25Zm47.39-3.69c-.64-.72-5.18-2.06-5.57,0C105.28,148.3,108.29,151.16,109.22,148.56Zm5.58,4.61c-1.19,0-1.29-1.18-2.79-.92C110.57,154.52,115.17,155,114.8,153.17Zm5.57,6.46c-1.18,0-1.28-1.18-2.78-.92C116.14,161,120.74,161.42,120.37,159.63Zm-55.75,12c.17.33,1.6.58,1.86.92a16.69,16.69,0,0,1,.93,2.77c.76,2.69.41,5.88.93,9.23,2.5.63,1.8-1.91,2.79-2.77-2.64-2.25-1.54-6.24-2.79-9.23-.06-.14-1.68-.78-1.86-.92s.2-1.51,0-1.85c-.08-.13-.8.11-.93,0-.73-.59-.33-2.9-.93-3.69-.72-.2-1.83,0-1.86-.92-.51-4.56-.47,1-1.85.92-1.1-.27-2.34-4.88-3.72-1.84,4.32,1.78-.88,1.28-1.86,2.77,1.38,1.09,4.15.79,3.72,3.69.05.56.14,1.09.93.92,1.2-2.29-2.07-4.48,0-4.61,2.17,2.45,2.51,6.72,5.57,8.3.63-3.94-5.46-6.84-2.79-9.23C64.44,167.51,63.65,169.76,64.62,171.63ZM126,165.17c-1.23,0-.85-1.62-1.86-1.85C123,165.22,125.55,167.72,126,165.17Zm-56.68,4.61A6.53,6.53,0,0,0,67.41,167C67.27,168.25,68.87,172.1,69.27,169.78Zm10.22,1.85c.81-1.9-2.41-4.14-2.79-1.85C78,170,78.27,171.3,79.49,171.63Zm23.23.92c-.13-1.72-.61-3.08-1.86-3.69C100.6,171,101.08,172.33,102.72,172.55Zm-32.52.93c.66,4.16,1.5,11.9,3.72,13.84-.25-.21.38-2.23.92-1.85-.72,3.8,1.43,4.74.93,8.31.88.17,1.64.07,1.86.92,1,3.91-.26,8.38,0,12.92,2.13.2,1.57-1,1.86-2.77.9-5.37.34-12.22,0-16.61-.06-.73-.91-.81-.93-.92-.11-.57.88-1.19.93-.92-.15-.89-.77-.55-.93-.93-.34-.78.29-2,0-2.77-.1-.26-1.69-.57-1.86-.92-.67-1.4.16-1.89-.93-2.77-.3-.25.24-1.51,0-1.84-.43-.62-1.91-.71-1.85-1.85.25-2.1-.23-3.47-1.86-3.69-.26,1.62,2.61,4.6,0,5.54-.69-1.26-.74-7.77-2.79-4.62C69.83,172.6,70.37,172.69,70.2,173.48Zm11.15,8.3c2.56.22,2.83,2.72,3.72,4.62-1.38.17-.86,2.22-.93,3.69.23,1.08,1.34,1,1.85,1.84s0,2.31.93,2.77c.68,3.67.68,3.71,0,7.38,2.2,1.21,1.79,5,2.79,7.39-2.6,2.22-.5,6.12-.93,9.22-.33,2.4-3.65,4.52-.93,6.46.31-1.16.85-1.29.93-2.76,0-.78.9-.78.93-.93.36-1.77-.21-4.92,0-7.38.1-1.12.72-1.39.93-2.77.81-5.36-1.53-7.51-1.86-10.15-.15-1.24,1.32-1.71.93-3.69-.15-.78-1.43-2.4-1.86-3.69-.95-2.87-1.19-6.35-1.85-7.38-1.7-2.64-1.54-6.37-2.79-7.39-.31-.25.24-1.52,0-1.84-.79-1-3.72-3.94-4.65-1.85C81,176,81.79,178.27,81.35,181.78Zm1.86,22.15a14.12,14.12,0,0,0,0,6.46c.84,2.78-1.08,5.47,1.85,5.54-.2-6.26,1.13-14-2.78-16.61C81.51,201.92,83.59,201.7,83.21,203.93ZM75.77,227c2,1.12,2.22-.79,3.72-1.84.72-.51,5.23-1.26,1.86-2.77C80.43,224.86,75.69,223.53,75.77,227Zm5.58,12.92a7.11,7.11,0,0,0-2.79,1.85c-1.18,1-2,2.12-2.79,2.77,4.6.63,6.35-5.93,7.44-8.31.15-.35,1.67-.49,1.85-.92,1-2.45.18-3.49.93-4.62.64-.95,2.12-4.4,0-4.61-.53,1.93-2.3,2.63-1.86,5.54-2.48,0-2.06,3.6-3.71,3.69-1,.05-2.79,3.35-.93,2.77.27-.82,2.51-4.05,2.79-1.85C82.49,238,81.23,238.27,81.35,239.92Zm33.45-7.38c-4.28,1.59-4.55,7.17-9.29,8.3,1.33-4.52,5.26-6.46,6.5-11.07-3.09-.72-2.06,3.41-2.79,4.61-.87,1.44-3.76,1.56-2.79,3.69-1.73,1.7-7.31,4.38-4.64,7.39.68-3.9,2.62-.14,4.64-.93.13,0,.8-1.68.93-1.84.26-.31,1.55.27,1.86,0,1.46-1.28,1.27-2.39,1.86-3.69.15-.33,1.64-.54,1.86-.93,1.13-2,.22-3,.93-4.61.15-.35,1.67-.49,1.86-.92.52-1.25.67-3.48,0-3.69C115.43,230.09,114.41,230.61,114.8,232.54Zm-35.31,1.84v-1.84c1.92.81,3.52-3,1.86-2.77C81.4,231.46,76.59,232.89,79.49,234.38Zm9.29,12.92c-1.07.58-1.68,1.45-2.79,1.85-2.16.78-4.73-1.42-5.57,1.84,2.92,2.44,6.44-.43,8.36-1.84,3.23-1.1,7-1.69,7.44-5.54C92.76,244.42,90.9,246.16,88.78,247.3Zm12.08,24c-1.56.62-2.59.21-3.72.92-1.75,1.11-5,1.08-5.57,2.77,2.61,2.16,5.84-.75,8.36-1.85s6.48-2.07,7.44-4.61C104.87,268.1,103,270.45,100.86,271.3Z"/><path class="cls-1" d="M66.48,149.48c.24.25,1.58,1.83,1.86,1.85,1.07,0,.41.59.93.92,2,1.29,4.9,3.27,6.5,2.77,1.28,4.88,7.63,4.72,10.22,8.3a4.39,4.39,0,0,0,2.79-.92c.35,1.14,1.9,1.25,2.79,1.85s1.13,2.9,3.72,1.84c.06,2.71,2.12,3.43,3.71,4.62.94-4.32-3.72-3.07-2.78-7.39H90.64c-.29-3.46-3.11-3.74-5.57-2.76-1.34-.9-2.47-2.71-3.72-2.77-1.87-.1-1.93-2.21-2.79-2.77-.65-.43-2.11.39-2.79,0S74,153,73,152.25a7.39,7.39,0,0,1-1.85-1.85c-.26-.31-1.55.27-1.86,0-1.83-1.54-2.81-4-4.65-5.53A5.22,5.22,0,0,0,66.48,149.48Z"/><path class="cls-1" d="M61.83,152.25h3.72a24.36,24.36,0,0,1,4.65,8.31c2.45-.28,3,1.28,2.79,3.69,1.72-.89,3.1,2.76,3.71,0-2.92-.29-2.68-1.2-1.85-1.85.2-.16-1.86-3.55-1.86-3.69-.06-1.05-.66-.44-.93-.92a14.93,14.93,0,0,0-4.65-5.54c-.64-.4-1.37-.39-1.86-.92-.23-.27.29-1.67,0-1.85-2.33-1.43-5.56.19-7.43-2.77-1,0-2.36.44-.93.93C58.62,150,63,148.22,61.83,152.25Z"/><path class="cls-1" d="M64.62,171.63c.17.33,1.6.58,1.86.92a16.69,16.69,0,0,1,.93,2.77c.76,2.69.41,5.88.93,9.23,2.5.63,1.8-1.91,2.79-2.77-2.64-2.25-1.54-6.24-2.79-9.23-.06-.14-1.68-.78-1.86-.92s.2-1.51,0-1.85c-.08-.13-.8.11-.93,0-.73-.59-.33-2.9-.93-3.69-.72-.2-1.83,0-1.86-.92-.51-4.56-.47,1-1.85.92-1.1-.27-2.34-4.88-3.72-1.84,4.32,1.78-.88,1.28-1.86,2.77,1.38,1.09,4.15.79,3.72,3.69.05.56.14,1.09.93.92,1.2-2.29-2.07-4.48,0-4.61,2.17,2.45,2.51,6.72,5.57,8.3.63-3.94-5.46-6.84-2.79-9.23C64.44,167.51,63.65,169.76,64.62,171.63Z"/><path class="cls-1" d="M69.27,169.78A6.53,6.53,0,0,0,67.41,167C67.27,168.25,68.87,172.1,69.27,169.78Z"/><path class="cls-1" d="M81.35,181.78c2.56.22,2.83,2.72,3.72,4.62-1.38.17-.86,2.22-.93,3.69.23,1.08,1.34,1,1.85,1.84s0,2.31.93,2.77c.68,3.67.68,3.71,0,7.38,2.2,1.21,1.79,5,2.79,7.39-2.6,2.22-.5,6.12-.93,9.22-.33,2.4-3.65,4.52-.93,6.46.31-1.16.85-1.29.93-2.76,0-.78.9-.78.93-.93.36-1.77-.21-4.92,0-7.38.1-1.12.72-1.39.93-2.77.81-5.36-1.53-7.51-1.86-10.15-.15-1.24,1.32-1.71.93-3.69-.15-.78-1.43-2.4-1.86-3.69-.95-2.87-1.19-6.35-1.85-7.38-1.7-2.64-1.54-6.37-2.79-7.39-.31-.25.24-1.52,0-1.84-.79-1-3.72-3.94-4.65-1.85C81,176,81.79,178.27,81.35,181.78Z"/><path class="cls-1" d="M81.35,239.92a7.11,7.11,0,0,0-2.79,1.85c-1.18,1-2,2.12-2.79,2.77,4.6.63,6.35-5.93,7.44-8.31.15-.35,1.67-.49,1.85-.92,1-2.45.18-3.49.93-4.62.64-.95,2.12-4.4,0-4.61-.53,1.93-2.3,2.63-1.86,5.54-2.48,0-2.06,3.6-3.71,3.69-1,.05-2.79,3.35-.93,2.77.27-.82,2.51-4.05,2.79-1.85C82.49,238,81.23,238.27,81.35,239.92Z"/><path class="cls-1" d="M114.8,232.54c-4.28,1.59-4.55,7.17-9.29,8.3,1.33-4.52,5.26-6.46,6.5-11.07-3.09-.72-2.06,3.41-2.79,4.61-.87,1.44-3.76,1.56-2.79,3.69-1.73,1.7-7.31,4.38-4.64,7.39.68-3.9,2.62-.14,4.64-.93.13,0,.8-1.68.93-1.84.26-.31,1.55.27,1.86,0,1.46-1.28,1.27-2.39,1.86-3.69.15-.33,1.64-.54,1.86-.93,1.13-2,.22-3,.93-4.61.15-.35,1.67-.49,1.86-.92.52-1.25.67-3.48,0-3.69C115.43,230.09,114.41,230.61,114.8,232.54Z"/><path class="cls-1" d="M79.49,234.38v-1.84c1.92.81,3.52-3,1.86-2.77C81.4,231.46,76.59,232.89,79.49,234.38Z"/><path class="cls-2" d="M48.83,99.65c-1.38.17-.86,2.23-.93,3.69-1.22,0-1.19,2.56,0,2.77,4.86-3.84,2.2-11,2.79-17.54,0-.14-.1-.83,0-.92,1-1,.49-.93.92-2.77.68-2.86.61-5.32.93-8.3.19-1.75,1-3,.93-4.62s-.73-2.07-.93-3.69c-.61-5,.58-6,.93-10.15.79-9.14.46-30-2.79-35.07-1-1.64-2.42-2.85-4.64-2.77-3.88.15-6.69,7.38-8.36,14.77a141.25,141.25,0,0,0-2.79,20.3c-.28,4.52.37,10.71,0,13.85-.11.93-.75,1.07-.93,1.84-.43,1.81.25,2.73-.93,3.69-.25.21.12,1.52,0,1.85-1.91,5-1.94,14.18-2.79,18.46-1.63,8.25-.7,17.76-.93,27.68,2.8.93,1.65-2.06,1.86-3.69,1.89-.28,2.47-1.85,3.72-2.77,1.77.39,1.68,2.64,4.64,1.85-2.13-3.61,1.72-3.66,3.72-5.54.21-.72,0-1.82.93-1.85.1-3.54,1.7-7.42,2.79-8.3.25-.21-.14-1.52,0-1.85a15.92,15.92,0,0,0,.93-1.84c.33-1.58-1.07-3.56.93-4.62Z"/></g><g id="Right_Eye" data-name="Right Eye"><path class="cls-3" d="M130.79,170.18l-.08,0-20.53-12.86a78.62,78.62,0,0,0-24.06-10h0a79.35,79.35,0,0,0-36,0h0a78.62,78.62,0,0,0-24.06,10L5.55,170.21l-.08,0,.07,0-.07,0,.08,0h0L26.08,183.1a78.89,78.89,0,0,0,24.05,10h0a79.35,79.35,0,0,0,36,0h0a78.89,78.89,0,0,0,24.05-10l20.52-12.86h0l.09,0-.08,0Z"/><path d="M129.53,168l-.08,0H132c-12.83-8-25.49-17.32-40.12-21.77-24.08-7.32-48.79-2.53-69.79,10.64L4.29,168.05H6.81l-.08,0a2.5,2.5,0,0,0-2.52,4.31l.07,0v-4.32l-.07.05c-2.29,1.42-.8,5.7,1.92,4.57-1.43.59-2.4-1-.81.36a35.92,35.92,0,0,0,4.06,2.54l10,6.26c8,5,16,9.56,25,12.32,24.26,7.37,49,2.42,70.08-10.82l10.88-6.81c1.61-1,3.36-1.95,4.9-3.08,2.17-1.58,1.6-.08-.14-.77,2.68,1.06,4.31-3.18,1.93-4.57l-.08-.05v4.32l.08,0c2.7-1.73.19-6.06-2.53-4.31l-.07,0a2.53,2.53,0,0,0,0,4.32l.07,0,1.93-4.57c-1.5-.59-3.34,1.05-4.49,1.77l-9.45,5.93c-7.64,4.78-15.11,9.67-23.68,12.7a77.38,77.38,0,0,1-45.58,1.8c-9.78-2.62-18.26-7.45-26.74-12.76l-11-6.9c-1.23-.77-4-3.25-5.71-2.53l1.93,4.56.07,0a2.54,2.54,0,0,0,0-4.32l-.07,0-2.52,4.31c2,.93,3.47-.5,5.06-1.5l9.46-5.93c7.64-4.79,15.11-9.68,23.69-12.71A77.38,77.38,0,0,1,88,150.39c9.78,2.62,18.26,7.45,26.74,12.76l11,6.91c1.84,1.16,4,3.29,6.3,2.27C135,171,132.45,166.71,129.53,168Z"/><ellipse cx="68.13" cy="170.22" rx="23.89" ry="23.73"/><path d="M89.52,170.22a21.39,21.39,0,0,1-42.78,0C46.68,158.58,56.59,149,68.13,149a21.58,21.58,0,0,1,21.39,21.23c.1,3.21,5.1,3.22,5,0a26.42,26.42,0,0,0-46.8-16.61C32.43,172.26,49.41,200.28,72.94,196c12.56-2.28,21.22-13.24,21.58-25.78C94.62,167,89.62,167,89.52,170.22Z"/><g class="cls-4"><g class="cls-4"><path class="cls-3" d="M61.48,165a4.14,4.14,0,0,1-.29,1.59,2.38,2.38,0,0,1-1.3,1.15,2,2,0,0,1,1.43,1,3.44,3.44,0,0,1,.42,1.63v5.92a3.9,3.9,0,0,1-.86,2.81,4,4,0,0,1-2.9.87H52.82a4,4,0,0,1-2.9-.87,3.9,3.9,0,0,1-.86-2.81v-5.92a2.9,2.9,0,0,1,.13-.86,3.24,3.24,0,0,1,.37-.8,2.25,2.25,0,0,1,.6-.63,2.11,2.11,0,0,1,.84-.35,2,2,0,0,1-1.26-1.12,4.11,4.11,0,0,1-.32-1.62v-4.8a3.49,3.49,0,0,1,.92-2.75,4.41,4.41,0,0,1,3-.83h4.28a4.41,4.41,0,0,1,3,.83,3.53,3.53,0,0,1,.92,2.75Zm-6.94-4.29c-.37,0-.55.18-.55.52v4.32c0,.23,0,.39.16.46a.89.89,0,0,0,.52.12h1.49a.78.78,0,0,0,.5-.12.55.55,0,0,0,.15-.46v-4.32a.63.63,0,0,0-.1-.39c-.06-.08-.21-.13-.45-.13Zm1.62,15.21a1,1,0,0,0,.47-.1c.12-.06.18-.25.18-.55v-5a.58.58,0,0,0-.13-.41.68.68,0,0,0-.49-.14H54.6c-.41,0-.61.18-.61.55v5c0,.3.06.49.18.55a1,1,0,0,0,.47.1Z"/></g><g class="cls-4"><path class="cls-3" d="M71.56,164.37a1.81,1.81,0,0,1,1.4.51,2,2,0,0,1,.46,1.38v7.45a3.58,3.58,0,0,1-.09.83,1.6,1.6,0,0,1-.36.65,1.71,1.71,0,0,1-.69.44,3.08,3.08,0,0,1-1.08.16H68.52v4.15H65.4V164.37Zm-3,2.73v6.11h1.55c.13,0,.22,0,.25-.07a.4.4,0,0,0,.06-.25V167.4a.26.26,0,0,0-.29-.3Z"/><path class="cls-3" d="M78.7,172.59v7.35h-3V164.37H79l1.71,6.57,1.71-6.57H85.7v15.57h-3v-7.35l-2,6.23Z"/></g></g></g></g></svg>