<svg xmlns="http://www.w3.org/2000/svg" viewBox="0 0 290.54 112.57"><defs><style>.cls-1{isolation:isolate;}.cls-2{fill:none;stroke:#000;stroke-miterlimit:10;stroke-width:2px;}</style></defs><title>tagline</title><g id="Layer_2" data-name="Layer 2"><g id="Layer_1-2" data-name="Layer 1"><g id="tagline"><g class="cls-1"><g class="cls-1"><path class="cls-2" d="M8.2,30.64l-.51,3.51H2L7.11,5.87h6l5.11,28.28H12.57l-.51-3.51Zm.63-4.49h2.61l-1.29-10Z" transform="translate(-0.8 -4.87)"/><path class="cls-2" d="M36.09,34.15l-1-5.27h6.09c.44,0,.66-.19.66-.58V23.15c0-.39-.08-.62-.23-.7a2,2,0,0,0-.82-.12H37.84a7.56,7.56,0,0,1-1.19-.09,2.31,2.31,0,0,1-1-.45,2.25,2.25,0,0,1-.7-1,4.48,4.48,0,0,1-.26-1.68V9.54a3.78,3.78,0,0,1,.92-2.67,3.79,3.79,0,0,1,2.9-1h7.8l1,5.27h-6.4c-.46,0-.7.21-.7.62v5.15a.68.68,0,0,0,.22.59,1.1,1.1,0,0,0,.64.15h3.55a3,3,0,0,1,2.08.65,2.84,2.84,0,0,1,.73,2.24v9.32a4.63,4.63,0,0,1-1,3.31,4.65,4.65,0,0,1-3.37,1Z" transform="translate(-0.8 -4.87)"/><path class="cls-2" d="M54.73,5.87h11l1,5.27H60.54v6.71h4.68v4.87H60.54v6.16h5.93l-1,5.27H54.73Z" transform="translate(-0.8 -4.87)"/><path class="cls-2" d="M78.05,34.15a4.68,4.68,0,0,1-3.43-1,4.77,4.77,0,0,1-1-3.36V9.35a3.36,3.36,0,0,1,1-2.58A3.29,3.29,0,0,1,77,5.87h7.45l1,5.27H80c-.34,0-.51.18-.51.55V28.34q0,.54.51.54h5.42l-1,5.27Z" transform="translate(-0.8 -4.87)"/><path class="cls-2" d="M106.87,22.64a2.63,2.63,0,0,1-.64,1.72,2.31,2.31,0,0,1-1.89.78l3,9h-5.85l-2.73-9H98v9H92.32V5.87h10.73a3.79,3.79,0,0,1,2.9,1,3.78,3.78,0,0,1,.92,2.67ZM98,10.83v9.75h2.77c.36,0,.54-.2.54-.59V11.41c0-.39-.18-.58-.54-.58Z" transform="translate(-0.8 -4.87)"/><path class="cls-2" d="M114.28,5.87h11l1,5.27h-6.16v6.71h4.68v4.87h-4.68v6.16H126l-1,5.27H114.28Z" transform="translate(-0.8 -4.87)"/><path class="cls-2" d="M144.35,5.87l1.4,5.27H142v23H136.2v-23h-3.78l1.48-5.27Z" transform="translate(-0.8 -4.87)"/><path class="cls-2" d="M163.58,34.15l-1-5.27h6.09c.44,0,.66-.19.66-.58V23.15c0-.39-.08-.62-.23-.7a2,2,0,0,0-.82-.12h-2.93a7.66,7.66,0,0,1-1.19-.09,2.31,2.31,0,0,1-1-.45,2.25,2.25,0,0,1-.7-1,4.48,4.48,0,0,1-.26-1.68V9.54a3.78,3.78,0,0,1,.92-2.67,3.79,3.79,0,0,1,2.9-1h7.8l1,5.27h-6.4c-.46,0-.7.21-.7.62v5.15a.68.68,0,0,0,.22.59,1.1,1.1,0,0,0,.64.15h3.55a3.06,3.06,0,0,1,2.09.65,2.88,2.88,0,0,1,.72,2.24v9.32a4.63,4.63,0,0,1-1,3.31,4.65,4.65,0,0,1-3.37,1Z" transform="translate(-0.8 -4.87)"/><path class="cls-2" d="M196.88,30.13a5.85,5.85,0,0,1-.19,1.54,3.11,3.11,0,0,1-.67,1.27,3.39,3.39,0,0,1-1.24.88,5.06,5.06,0,0,1-1.95.33h-6.56a5,5,0,0,1-2-.33,3.31,3.31,0,0,1-1.24-.88,3.11,3.11,0,0,1-.67-1.27,5.85,5.85,0,0,1-.19-1.54V9.54a3.78,3.78,0,0,1,.91-2.67,3.81,3.81,0,0,1,2.91-1h7a3.77,3.77,0,0,1,2.9,1,3.74,3.74,0,0,1,.92,2.67Zm-8.46-19.3q-.51,0-.51.54V28.61a.75.75,0,0,0,.1.45c.06.09.21.14.45.14h2.14c.24,0,.39-.05.45-.14a.75.75,0,0,0,.1-.45V11.37q0-.54-.51-.54Z" transform="translate(-0.8 -4.87)"/><path class="cls-2" d="M208.62,34.15a4.68,4.68,0,0,1-3.43-1,4.77,4.77,0,0,1-1-3.36V9.35a3.36,3.36,0,0,1,1-2.58,3.31,3.31,0,0,1,2.36-.9H215l1,5.27h-5.42c-.34,0-.51.18-.51.55V28.34q0,.54.51.54H216l-1,5.27Z" transform="translate(-0.8 -4.87)"/><path class="cls-2" d="M222.89,5.87h5.66V34.15h-5.66Z" transform="translate(-0.8 -4.87)"/><path class="cls-2" d="M235.88,5.87h11l1,5.27h-6.16v6.71h4.68v4.87h-4.68v6.16h5.93l-1,5.27H235.88Z" transform="translate(-0.8 -4.87)"/><path class="cls-2" d="M266,5.87l1.4,5.27h-3.78v23H257.8v-23H254l1.48-5.27Z" transform="translate(-0.8 -4.87)"/><path class="cls-2" d="M284.63,34.15h-6V27l-5.42-21.1h5.85l2.54,13.34L284.2,5.87h5.85L284.63,27Z" transform="translate(-0.8 -4.87)"/></g><g class="cls-1"><path class="cls-2" d="M26.9,46.87h5.73L27.41,75.15H21.52L16.29,46.87H22l.5,3.63,1.91,14.63,1.95-14.71Z" transform="translate(-0.8 -4.87)"/><path class="cls-2" d="M39,71.64l-.5,3.51h-5.7L37.9,46.87H44l5.1,28.28H43.36l-.51-3.51Zm.63-4.49h2.61l-1.29-10Z" transform="translate(-0.8 -4.87)"/><path class="cls-2" d="M67.15,63.64a2.63,2.63,0,0,1-.64,1.72,2.31,2.31,0,0,1-1.89.78l3,9H61.73l-2.73-9h-.74v9H52.6V46.87H63.33a3.36,3.36,0,0,1,3.82,3.67ZM58.26,51.83v9.75H61c.36,0,.54-.2.54-.59V52.41c0-.39-.18-.58-.54-.58Z" transform="translate(-0.8 -4.87)"/><path class="cls-2" d="M71.56,46.87h5.65V75.15H71.56Z" transform="translate(-0.8 -4.87)"/><path class="cls-2" d="M81.54,46.87h11l1,5.27H87.35v6.71H92v4.87H87.35v6.16h5.93l-1,5.27H81.54Z" transform="translate(-0.8 -4.87)"/><path class="cls-2" d="M108.61,46.87l1.4,5.27h-3.78v23h-5.77v-23H96.67l1.48-5.27Z" transform="translate(-0.8 -4.87)"/><path class="cls-2" d="M124.28,75.15h-6V68l-5.42-21.1h5.85l2.53,13.34,2.57-13.34h5.86L124.28,68Z" transform="translate(-0.8 -4.87)"/><path class="cls-2" d="M154.74,75.15H149V63.84h-3.08V75.15h-5.77V46.87h5.77V59H149V46.87h5.77Z" transform="translate(-0.8 -4.87)"/><path class="cls-2" d="M173.74,71.13a5.85,5.85,0,0,1-.2,1.54,3.22,3.22,0,0,1-.66,1.27,3.35,3.35,0,0,1-1.25.88,5,5,0,0,1-1.95.33h-6.55a5,5,0,0,1-1.95-.33,3.35,3.35,0,0,1-1.25-.88,3.22,3.22,0,0,1-.66-1.27,5.85,5.85,0,0,1-.2-1.54V50.54a3.36,3.36,0,0,1,3.82-3.67h7a3.36,3.36,0,0,1,3.83,3.67Zm-8.47-19.3q-.51,0-.51.54V69.61a.83.83,0,0,0,.1.45.56.56,0,0,0,.45.14h2.15c.23,0,.38,0,.44-.14a.75.75,0,0,0,.1-.45V52.37c0-.36-.17-.54-.5-.54Z" transform="translate(-0.8 -4.87)"/><path class="cls-2" d="M182.47,75.15a4.68,4.68,0,0,1-3.43-1,4.77,4.77,0,0,1-1-3.36V46.87h5.78v22.7a1,1,0,0,0,.09.47.53.53,0,0,0,.45.16h2a.53.53,0,0,0,.45-.16.94.94,0,0,0,.1-.47V46.87h5.77V70.78a4.77,4.77,0,0,1-1,3.36,4.68,4.68,0,0,1-3.43,1Z" transform="translate(-0.8 -4.87)"/><path class="cls-2" d="M211.56,63.64a2.63,2.63,0,0,1-.64,1.72,2.31,2.31,0,0,1-1.89.78l3,9h-5.85l-2.73-9h-.74v9H197V46.87h10.72a3.35,3.35,0,0,1,3.82,3.67Zm-8.89-11.81v9.75h2.77c.37,0,.55-.2.55-.59V52.41c0-.39-.18-.58-.55-.58Z" transform="translate(-0.8 -4.87)"/><path class="cls-2" d="M228.26,71.64l-.51,3.51h-5.69l5.1-28.28h6.05l5.11,28.28h-5.7l-.5-3.51Zm.62-4.49h2.61l-1.28-10Z" transform="translate(-0.8 -4.87)"/><path class="cls-2" d="M241.87,46.87h5.38l2.89,11.35V46.87H256V75.15h-5.81l-3-11.82V75.15h-5.22Z" transform="translate(-0.8 -4.87)"/><path class="cls-2" d="M274.71,70.78a4.77,4.77,0,0,1-1,3.36,4.68,4.68,0,0,1-3.43,1h-10V46.87h11.08a3.23,3.23,0,0,1,2.52.94,3.65,3.65,0,0,1,.84,2.5Zm-8.82-19V70.2h2.65c.24,0,.39,0,.45-.14a.75.75,0,0,0,.1-.45V52.37q0-.54-.51-.54Z" transform="translate(-0.8 -4.87)"/></g><g class="cls-1"><path class="cls-2" d="M54.57,116.15a4.68,4.68,0,0,1-3.43-1,4.77,4.77,0,0,1-1-3.36V91.35a3.36,3.36,0,0,1,.95-2.58,3.31,3.31,0,0,1,2.36-.9h7.45l1,5.27H56.48c-.33,0-.5.18-.5.55v16.65c0,.36.17.54.5.54H61.9l-1,5.27Z" transform="translate(-0.8 -4.87)"/><path class="cls-2" d="M73.25,112.64l-.5,3.51h-5.7l5.11-28.28h6l5.11,28.28h-5.7l-.51-3.51Zm.63-4.49h2.61l-1.29-10Z" transform="translate(-0.8 -4.87)"/><path class="cls-2" d="M103.24,99.07a3.69,3.69,0,0,1-.41,1.81,2.28,2.28,0,0,1-1.54,1.07,2.16,2.16,0,0,1,1.7.82,2.87,2.87,0,0,1,.53,1.68v7.33a4.77,4.77,0,0,1-1,3.36,4.68,4.68,0,0,1-3.43,1H88.85V87.87h11a3.23,3.23,0,0,1,2.52.94,3.64,3.64,0,0,1,.83,2.5Zm-8.77-6.24v7.41h2.65a.72.72,0,0,0,.51-.18.7.7,0,0,0,.19-.56V93.37c0-.36-.17-.54-.5-.54Zm3.43,12.52a.78.78,0,0,0-.23-.65,1.09,1.09,0,0,0-.63-.17H94.47v6.67h2.85a.58.58,0,0,0,.46-.14.67.67,0,0,0,.12-.45Z" transform="translate(-0.8 -4.87)"/><path class="cls-2" d="M114.87,112.64l-.51,3.51h-5.69l5.1-28.28h6l5.11,28.28h-5.7l-.5-3.51Zm.62-4.49h2.61l-1.28-10Z" transform="translate(-0.8 -4.87)"/><path class="cls-2" d="M130.47,87.87h5.81v23H142l-1,5.27H130.47Z" transform="translate(-0.8 -4.87)"/><path class="cls-2" d="M162.06,102.81v13.34h-5.5V87.87h6l3.08,11.94,3.09-11.94h6v28.28h-5.5V102.81l-3.59,11.31Z" transform="translate(-0.8 -4.87)"/><path class="cls-2" d="M181,87.87h5.66v28.28H181Z" transform="translate(-0.8 -4.87)"/><path class="cls-2" d="M204,101.41l4,14.74h-5.74l-2.18-10-2.15,10H192.2l4-14.74-3.86-13.54H198l2.11,9.95,2.18-9.95h5.58Z" transform="translate(-0.8 -4.87)"/><path class="cls-2" d="M213.53,87.87h11l1,5.27h-6.16v6.71H224v4.87h-4.68v6.16h5.92l-1,5.27H213.53Z" transform="translate(-0.8 -4.87)"/><path class="cls-2" d="M246,104.64a2.63,2.63,0,0,1-.64,1.72,2.31,2.31,0,0,1-1.89.78l3,9h-5.85l-2.73-9h-.74v9h-5.65V87.87h10.72A3.35,3.35,0,0,1,246,91.54Zm-8.89-11.81v9.75h2.77c.36,0,.55-.2.55-.59V93.41c0-.39-.19-.58-.55-.58Z" transform="translate(-0.8 -4.87)"/></g></g></g></g></g></svg>